<?xml version="1.0" encoding="utf-8"?>
<svg width="24" height="25" viewBox="0 0 24 25" fill="none" xmlns="http://www.w3.org/2000/svg">
  <g>
    <path d="M0 3.17442L4.22977 0C4.22977 0 5.73967 1.50992 5.73967 1.50992C6.27677 2.04702 6.27677 2.92212 5.73967 3.45922C5.73967 3.45922 0.55967 8.63922 0.55967 8.63922C0.35076 8.84812 0 8.69942 0 8.40952C0 8.40952 0 3.17442 0 3.17442Z" fill="#9A93FA" fill-opacity="0.4" stroke-width="1.5" stroke="#9A93FA" stroke-opacity="0.4" transform="translate(8.93 9.847)" />
    <path d="M3.15837 2.68986C3.15837 2.68986 0 5.06017 0 5.06017C0 5.06017 0 0.330809 0 0.330809C0 0.0411487 0.35307 -0.110101 0.56217 0.0936384C0.56217 0.0936384 3.15837 2.68986 3.15837 2.68986Z" fill="#9A93FA" stroke-width="1.5" stroke="#9A93FA" transform="translate(8.93 6.086)" />
  </g>
</svg>