<?xml version="1.0" encoding="utf-8"?>
<svg width="24" height="25" viewBox="0 0 24 25" fill="none" xmlns="http://www.w3.org/2000/svg">
  <g>
    <path d="M5.58231 8.63772C5.58231 8.63772 0.402833 3.46822 0.402833 3.46822C0.402753 3.46812 0.402673 3.46812 0.402593 3.46802C-0.134277 2.93092 -0.134197 2.05592 0.402833 1.51892C0.402833 1.51892 0.404173 1.51752 0.404173 1.51752L1.91411 0L6.14251 3.17342C6.14251 3.17342 6.14251 8.40852 6.14251 8.40852C6.14251 8.69842 5.79171 8.84712 5.58281 8.63822C5.58281 8.63822 5.58231 8.63772 5.58231 8.63772Z" fill="#9A93FA" fill-opacity="0.4" stroke-width="1.5" stroke="#9A93FA" stroke-opacity="0.4" transform="translate(8.927 9.848)" />
    <path d="M3.1584 5.06017L0 2.68986C0 2.68986 2.5962 0.0936384 2.5962 0.0936384C2.8054 -0.110101 3.1584 0.0411487 3.1584 0.330809C3.1584 0.330809 3.1584 5.06017 3.1584 5.06017Z" fill="#9A93FA" stroke-width="1.5" stroke="#9A93FA" transform="translate(11.912 6.086)" />
  </g>
</svg>