<?xml version="1.0" encoding="utf-8"?>
<svg width="186" height="186" viewBox="0 0 186 186" fill="none" xmlns="http://www.w3.org/2000/svg">
  <g>
    <g>
      <g transform="translate(1.302 2)">
        <g>
          <path d="M90 180C139.706 180 180 139.705 180 90.0001C180 40.2944 139.706 0 90 0C40.2944 0 0 40.2944 0 90.0001C0 139.705 40.2944 180 90 180Z" fill="#766BFF" fill-rule="evenodd" />
          <path d="M0 85.0001C0 38.0559 38.0558 0 85 0C131.944 0 170 38.0559 170 85.0001C170 131.944 131.944 170 85 170C38.0558 170 0 131.944 0 85.0001Z" fill="#E8E6FF" fill-rule="evenodd" transform="translate(5 5)" />
          <g transform="translate(37.863 6.135)">
            <path d="M0.261165 38.1967C-1.77668 29.3822 7.73376 0.227127 42.1526 0.000938416C69.6881 -0.180008 81.1004 25.8415 82.0063 38.1967C77.3267 38.6482 68.8268 39.2815 72.2691 38.1967C76.5717 36.8406 65.9286 9.04168 42.1524 8.8155C23.1315 8.63456 10.149 28.026 7.73376 38.1967C7.73376 38.1967 0.261165 38.1967 0.261165 38.1967Z" fill="#766BFF" transform="matrix(1 0 0 1 13.284 115.438)" />
            <path d="M47.8354 0.0861016C47.5915 0.146605 46.1584 0.358464 44.6339 0.539976C35.0296 1.84119 26.279 6.68274 20.9738 13.6425C16.2174 19.8457 13.6562 28.6513 14.4794 35.8228C14.8758 39.0304 15.638 40.3921 18.1382 42.3287C18.1382 42.3287 19.7846 43.5693 19.7846 43.5693C19.7846 43.5693 19.7846 46.8374 19.7846 46.8374C19.7846 46.8374 19.7846 50.1055 19.7846 50.1055C19.7846 50.1055 18.3822 50.5896 18.3822 50.5896C15.4246 51.5882 12.5281 54.0089 10.8512 56.8534C8.74732 60.4241 8.50337 65.6287 10.2718 69.3507C11.8878 72.8003 15.0892 75.6145 18.6871 76.8248C18.6871 76.8248 20.1811 77.3392 20.1811 77.3392C20.1811 77.3392 20.8518 80.0021 20.8518 80.0021C22.8642 87.8394 27.6816 94.5871 34.5113 99.0957C34.5113 99.0957 36.6456 100.518 36.6456 100.518C36.6456 100.518 34.5418 100.942 34.5418 100.942C31.4014 101.547 27.4986 102.909 24.2972 104.513C10.0279 111.623 0.819968 125.483 0.0577245 140.975C-0.155746 145.544 0.179652 147.179 1.79558 149.72C3.25911 151.929 5.30199 153.473 7.86315 154.259C9.75353 154.865 10.6072 154.865 52.4089 154.865C94.0581 154.865 95.0635 154.865 96.9541 154.259C100.522 153.17 103.418 150.265 104.425 146.724C104.851 145.363 104.912 144.244 104.76 141.096C104.028 125.543 94.5462 111.351 80.307 104.452C76.5874 102.667 73.4471 101.547 70.2763 100.942C70.2763 100.942 68.172 100.518 68.172 100.518C68.172 100.518 70.3067 99.0957 70.3067 99.0957C77.1363 94.5871 81.9536 87.8394 83.9658 80.0021C83.9658 80.0021 84.6362 77.3392 84.6362 77.3392C84.6362 77.3392 86.1309 76.8248 86.1309 76.8248C89.4231 75.7355 92.7163 72.9819 94.1797 70.1072C96.4052 65.8102 96.1612 60.2425 93.6004 56.2482C91.9234 53.6458 88.9664 51.3461 86.1916 50.4686C86.1916 50.4686 85.0331 50.1055 85.0331 50.1055C85.0331 50.1055 85.0331 46.7467 85.0331 46.7467C85.0331 46.7467 85.0331 43.3576 85.0331 43.3576C85.0331 43.3576 86.4357 42.4497 86.4357 42.4497C87.9902 41.421 89.0879 40.1198 89.8504 38.4252C90.5209 36.8819 90.5209 29.7104 89.82 26.6542C88.6615 21.6613 86.6189 17.2434 83.6002 13.3399C78.4476 6.59198 71.0379 2.47667 60.7935 0.661079C58.3239 0.237455 48.9635 -0.186261 47.8354 0.0861016ZM61.1896 5.35128C68.1416 6.7735 73.3246 9.31533 77.4107 13.2794C82.5024 18.2117 85.5516 24.8689 85.7339 31.4958C85.7339 31.4958 85.7956 33.977 85.7956 33.977C85.7956 33.977 64.3613 34.1283 64.3613 34.1283C43.5668 34.2796 42.896 34.3099 42.4691 34.8546C41.8594 35.7018 41.9508 36.9425 42.6216 37.7898C42.6216 37.7898 43.2009 38.516 43.2009 38.516C43.2009 38.516 63.5988 38.6673 63.5988 38.6673C63.5988 38.6673 83.9658 38.8186 83.9658 38.8186C83.9658 38.8186 80.947 40.3014 80.947 40.3014C78.7221 41.3906 76.7707 42.0564 73.4774 42.8129C71.0379 43.4181 68.7209 43.993 68.3249 44.1443C66.8606 44.6889 66.7695 47.0493 68.172 47.957C68.8738 48.4109 69.1482 48.4109 71.6476 47.9268C74.0871 47.4729 78.5084 46.323 79.9414 45.7481C80.4902 45.5665 80.4902 46.1717 80.3677 61.0898C80.2462 76.1288 80.2462 76.7341 79.5758 79.0644C76.1297 91.1982 66.1294 99.156 53.6284 99.7007C47.5 99.9731 42.4082 98.6424 37.5603 95.4947C31.4928 91.561 27.2546 85.8122 25.2423 78.7619C24.5716 76.4314 24.5411 75.8565 24.4191 60.9687C24.3582 52.5262 24.3887 45.627 24.4496 45.627C24.5411 45.627 25.1814 45.8388 25.9131 46.0809C28.4438 46.9888 33.0478 48.0175 37.4688 48.6833C41.3105 49.2885 43.1399 49.3792 51.5246 49.3792C60.6107 49.4095 61.22 49.3792 61.8306 48.8346C62.257 48.4411 62.4706 47.8965 62.4706 47.14C62.4706 45.0823 62.5314 45.1126 51.799 44.9311C44.268 44.8101 41.28 44.6284 37.9871 44.1443C31.066 43.1155 25.4863 41.542 22.3153 39.6659C22.3153 39.6659 20.8518 38.8186 20.8518 38.8186C20.8518 38.8186 28.3218 38.6673 28.3218 38.6673C32.4379 38.5765 36.0358 38.3949 36.3407 38.2437C37.6212 37.6384 37.8347 35.7926 36.7675 34.7941C36.0967 34.1586 35.7918 34.1283 27.5596 34.0678C27.5596 34.0678 19.0224 33.977 19.0224 33.977C19.0224 33.977 19.0834 31.4958 19.0834 31.4958C19.2663 25.0201 22.3153 18.1815 27.1022 13.5214C32.2855 8.46808 37.7433 6.13802 47.9878 4.65539C50.2746 4.32252 58.1714 4.74614 61.1896 5.35128ZM18.5346 71.8925C17.8333 71.4991 16.6747 70.561 15.9734 69.744C12.2231 65.6287 13.1684 58.8808 17.8943 55.8851C18.6565 55.4009 19.4188 55.0075 19.5408 55.0075C19.6627 55.0075 19.7846 58.9716 19.7846 63.8131C19.7846 63.8131 19.7846 72.5885 19.7846 72.5885C19.7846 72.5885 18.5346 71.8925 18.5346 71.8925ZM86.4965 55.5825C90.1553 57.4586 92.0764 62.6028 90.7042 66.7483C90.0945 68.5639 88.0823 70.8939 86.2828 71.8925C86.2828 71.8925 85.0332 72.5885 85.0332 72.5885C85.0332 72.5885 85.0332 63.8131 85.0332 63.8131C85.0332 58.9716 85.0939 55.0075 85.1851 55.0075C85.2772 55.0075 85.8565 55.2799 86.4965 55.5825ZM45.3962 108.447C46.7683 110.686 47.8354 112.561 47.8048 112.622C47.7439 112.653 46.5243 112.925 45.1218 113.227C43.7192 113.53 41.6154 114.075 40.4873 114.468C40.4873 114.468 38.3835 115.164 38.3835 115.164C38.3835 115.164 38.3835 110.05 38.3835 110.05C38.3835 104.24 38.1091 104.754 41.2801 104.543C42.1337 104.482 42.835 104.421 42.8655 104.391C42.896 104.361 44.0546 106.177 45.3962 108.447ZM56.3115 104.573C55.9761 105.39 52.5613 110.988 52.4089 110.988C52.2564 110.988 48.8415 105.39 48.5061 104.573C48.4452 104.451 50.2136 104.331 52.4089 104.331C54.6042 104.331 56.3725 104.451 56.3115 104.573ZM66.4648 114.075C66.4648 114.075 65.6111 113.863 65.6111 113.863C63.3548 113.288 59.1777 112.501 58.2934 112.501C57.7447 112.501 57.2873 112.38 57.2873 112.228C57.2873 112.047 58.2934 110.262 59.5436 108.204C59.5436 108.204 61.7994 104.482 61.7994 104.482C61.7994 104.482 64.0556 104.633 64.0556 104.633C64.0556 104.633 66.2815 104.785 66.2815 104.785C66.2815 104.785 66.3736 109.444 66.3736 109.444C66.3736 109.444 66.4648 114.075 66.4648 114.075ZM33.81 110.534C33.81 113.106 33.7795 115.224 33.7186 115.224C33.6881 115.224 32.072 113.651 30.1512 111.744C30.1512 111.744 26.6754 108.295 26.6754 108.295C26.6754 108.295 27.59 107.932 27.59 107.932C29.6939 107.085 33.0782 105.874 33.4441 105.874C33.7186 105.843 33.81 106.963 33.81 110.534ZM73.8127 106.63C88.5391 111.472 99.3936 125.694 100.187 141.157C100.369 144.727 100.339 144.909 99.5456 146.483C98.6007 148.419 96.466 150.144 95.9789 149.388C95.826 149.145 95.7045 148.631 95.7045 148.208C95.7045 146.846 94.2414 141.46 93.1437 138.676C90.9482 133.199 87.7158 128.538 82.9905 124C79.9414 121.035 76.3434 118.462 72.9286 116.767C72.9286 116.767 71.0075 115.83 71.0075 115.83C71.0075 115.83 71.0075 110.837 71.0075 110.837C71.0075 108.083 71.0987 105.844 71.2212 105.844C71.3731 105.844 72.5013 106.207 73.8127 106.63ZM30.0902 119.461C29.7244 119.703 28.6877 120.49 27.8035 121.185C26.9193 121.912 26.096 122.487 25.9741 122.487C25.8217 122.487 23.9007 120.671 21.6751 118.462C21.6751 118.462 17.5894 114.407 17.5894 114.407C17.5894 114.407 19.0834 113.227 19.0834 113.227C19.8762 112.561 20.9738 111.714 21.4616 111.351C21.4616 111.351 22.3763 110.716 22.3763 110.716C22.3763 110.716 26.5839 114.862 26.5839 114.862C30.7306 118.976 30.761 119.006 30.0902 119.461ZM59.3605 117.222C75.7945 119.643 88.8439 132.684 91.253 149.055C91.253 149.055 91.4363 150.325 91.4363 150.325C91.4363 150.325 89.18 150.325 89.18 150.325C86.6493 150.325 86.7709 150.417 86.4053 147.905C85.826 144.304 83.7217 139.251 81.2831 135.68C78.2644 131.232 72.5934 126.571 67.5016 124.302C60.4886 121.185 52.3784 120.52 45.0608 122.487C42.0118 123.334 36.5541 125.996 33.9624 127.963C29.4194 131.383 25.4253 136.375 23.4434 141.188C22.4678 143.457 21.0043 148.661 21.0043 149.75C21.0043 150.265 20.7603 150.325 18.6871 150.325C18.6871 150.325 16.3698 150.325 16.3698 150.325C16.3698 150.325 16.5832 148.661 16.5832 148.661C17.1625 144.062 19.6932 137.526 22.5288 133.38C27.6816 125.876 35.3955 120.429 44.2681 118.099C49.5123 116.707 54.1163 116.435 59.3605 117.222ZM21.2481 127.48C16.5832 133.017 13.1379 140.703 12.1012 147.753C11.6744 150.658 11.5829 150.719 9.17417 149.902C7.25332 149.206 6.12519 148.238 5.24101 146.452C4.47877 144.909 4.44819 144.697 4.63118 141.157C4.87513 136.043 6.09471 131.414 8.44239 126.602C10.0583 123.304 13.6257 117.948 14.2355 117.948C14.3575 117.948 16.2783 119.763 18.5041 121.972C18.5041 121.972 22.5288 125.966 22.5288 125.966C22.5288 125.966 21.2481 127.48 21.2481 127.48ZM60.6411 126.753C64.0869 127.54 69.3002 130.112 72.1357 132.472C77.0755 136.527 80.5814 142.216 81.7703 148.086C81.7703 148.086 82.1976 150.174 82.1976 150.174C82.1976 150.174 75.6112 150.265 75.6112 150.265L69.0561 150.325L61.9522 143.305L54.848 136.255L54.848 131.02C54.848 131.02 54.848 125.785 54.848 125.785C54.848 125.785 56.4641 125.996 56.4641 125.996C57.3177 126.088 59.2081 126.451 60.6411 126.753ZM47.8354 129.295C46.6767 128.145 45.762 127.146 45.823 127.086C46.006 126.905 48.811 126.178 49.4513 126.148C49.9086 126.118 49.9696 126.42 49.9696 128.75C49.9696 128.75 49.9696 131.383 49.9696 131.383C49.9696 131.383 47.8354 129.295 47.8354 129.295ZM58.0495 150.325L53.7809 150.325L44.7254 141.338C44.7254 141.338 35.7004 132.381 35.7004 132.381C35.7004 132.381 36.4017 131.837 36.4017 131.837C37.6822 130.808 40.3348 129.144 40.6702 129.144C40.8227 129.144 45.7925 133.895 51.6466 139.734C51.6466 139.734 62.3178 150.325 62.3178 150.325C62.3178 150.325 58.0495 150.325 58.0495 150.325ZM36.3102 150.325C30.4256 150.325 25.5777 150.235 25.5777 150.083C25.5777 148.873 27.1022 144.183 28.1694 142.005C29.389 139.523 31.8587 135.801 32.2855 135.801C32.377 135.801 35.7309 139.069 39.7556 143.063C39.7556 143.063 47.0731 150.325 47.0731 150.325C47.0731 150.325 36.3102 150.325 36.3102 150.325Z" fill="#8E8E8E" />
            <path d="M0.812864 0.635483C-0.22381 1.45248 -0.284777 2.96545 0.72142 3.8732C1.42261 4.50869 1.66655 4.53894 8.37434 4.53894C8.37434 4.53894 15.2955 4.53894 15.2955 4.53894C15.2955 4.53894 16.0272 3.78245 16.0272 3.78245C16.4542 3.38908 16.7895 2.69309 16.7895 2.26947C16.7895 1.84584 16.4542 1.14986 16.0272 0.756493C16.0272 0.756493 15.2955 0 15.2955 0C15.2955 0 8.46579 0 8.46579 0C2.00196 0 1.57511 0.0302582 0.812864 0.635483Z" fill="#8E8E8E" transform="translate(30.436 53.192)" />
            <path d="M0.762241 0.756493C0.3354 1.14986 0 1.84584 0 2.26947C0 2.69309 0.3354 3.38908 0.762241 3.78245C0.762241 3.78245 1.494 4.53894 1.494 4.53894C1.494 4.53894 8.47574 4.53894 8.47574 4.53894C15.367 4.53894 15.4581 4.53894 16.0982 3.84296C17.044 2.84444 16.9832 1.42222 15.9766 0.635483C15.2141 0.0302582 14.7877 0 8.32381 0C8.32381 0 1.494 0 1.494 0C1.494 0 0.762241 0.756493 0.762241 0.756493Z" fill="#8E8E8E" transform="translate(57.591 53.192)" />
            <path d="M2.22576 0.335144C1.12812 0.849518 0 2.4231 0 3.48221C0 4.60181 0.853786 6.08453 1.79892 6.65942C3.53687 7.68827 5.97602 7.05279 6.86029 5.35831C7.62253 3.87557 7.43954 2.45335 6.3419 1.27323C5.15281 0.00228119 3.68929 -0.330589 2.22576 0.335144Z" fill="#8E8E8E" transform="translate(34.114 64.476)" />
            <path d="M2.25624 0.218239C1.15851 0.641861 0 2.27585 0 3.4257C0 6.33065 2.89627 8.05549 5.45734 6.72402C6.40219 6.27016 7.31761 4.63616 7.31761 3.48631C7.31761 1.24709 4.39 -0.659355 2.25624 0.218239Z" fill="#8E8E8E" transform="matrix(1 0 0 1 63.385 64.473)" />
            <path d="M1.18882 0.302521C0.792461 0.483467 0.396103 1.02819 0.152145 1.75481C-0.640579 4.38702 1.76808 8.47245 4.96956 9.98505C6.92089 10.8936 9.90888 10.8936 11.8602 9.98505C16.8606 7.65536 18.7507 0 14.3299 0C13.5067 0 12.47 1.36182 12.2566 2.69253C12.1042 3.60103 11.7383 4.3267 11.037 5.02316C10.1224 5.93072 9.81744 6.05135 8.4149 6.05135C7.01234 6.05135 6.70742 5.93072 5.79277 5.02316C5.09149 4.3267 4.72561 3.60103 4.5732 2.69253C4.20732 0.544724 2.89621 -0.393936 1.18882 0.302521Z" fill="#8E8E8E" transform="matrix(1 0 0 1 43.993 78.913)" />
            <path d="M39.9415 11.6381C34.7335 11.6381 29.8563 10.3187 27.3454 8.16428C24.4586 10.3187 16.131 11.6381 13.5214 11.6381C10.9119 11.6381 -1.12041 11.033 0.0845356 1.65218C5.57103 7.45557 16.7088 -9.15527e-05 21.1999 0C25.1722 0.000190735 25.2787 1.65218 27.3454 1.65218C29.2534 1.65218 29.8563 9.15527e-05 33.5294 9.15527e-05C38.3784 0 46.2288 5.85721 54.7258 1.65218C53.2425 10.3187 42.7219 11.6381 39.9415 11.6381Z" fill="#766BFF" transform="translate(25.011 72.764)" />
          </g>
        </g>
      </g>
    </g>
  </g>
</svg>