<?xml version="1.0" encoding="utf-8"?>
<svg width="45" height="45" viewBox="0 0 45 45" fill="none" xmlns="http://www.w3.org/2000/svg">
  <g>
    <g transform="translate(0.5 0.5)">
      <g>
        <g>
          <g>
            <path d="M0 22C0 9.84974 9.62588 0 21.5 0C33.3741 0 43 9.84974 43 22C43 34.1503 33.3741 44 21.5 44C9.62588 44 0 34.1503 0 22Z" fill="#948CFA" fill-rule="evenodd" />
            <path d="M0 20C0 8.95428 8.73238 0 19.5043 0C30.2762 0 39.0086 8.95428 39.0086 20C39.0086 31.0457 30.2762 40 19.5043 40C8.73238 40 0 31.0457 0 20Z" fill="#EAE8FC" fill-rule="evenodd" transform="translate(1.991 2)" />
            <g transform="translate(7.831 3.293)">
              <g transform="scale(1 1)">
                <g transform="matrix(1 0 0 1 -0 -0)">
                  <path d="M9.54835 1.13136C9.06225 1.28091 8.34686 0.645326 8.14751 1.13136C7.99794 1.49278 6.46508 1.015 6.67691 2.02448C6.814 2.66009 5.76714 2.99278 5.90423 3.47879C6.14104 4.28894 4.98198 5.04054 4.99447 6.29923C4.99447 6.6981 4.94461 6.84759 4.78264 6.89744C3.18733 7.40842 2.25268 8.64223 2.25268 10.2375C2.25268 11.0351 2.57672 11.758 3.26217 12.4933C3.88527 13.1663 4.10958 13.3034 4.90724 13.4903C4.90724 13.4903 5.50545 13.6274 5.50545 13.6274C5.50545 13.6274 5.90423 14.6244 5.90423 14.6244C6.39033 15.8084 7.18789 16.9798 8.14751 17.8772C8.14751 17.8772 8.84545 18.5376 8.84545 18.5376C8.84545 18.5376 7.71137 19.2355 7.71137 19.2355C5.76714 20.432 3.83541 21.7407 3.26217 22.2267C2.01588 23.2985 0.844376 25.2925 0.30848 27.2118C0.0966112 27.9969 -0.102788 33.4058 0.0592218 34.0414C0.146461 34.3904 0.545268 34.8639 0.757137 34.8639C1.10609 34.8639 1.19333 34.2283 1.26811 31.0005C1.34289 27.8598 1.35535 27.648 1.66692 26.8005C2.17785 25.3549 2.75118 24.3952 3.62358 23.5104C4.35888 22.7626 5.25616 22.0771 5.63005 22.0023C5.72977 21.9774 5.77963 22.3014 5.80451 23.0243C5.86686 25.1429 6.00395 25.7411 6.67691 26.8255C7.01343 27.3738 7.69888 28.321 8.19737 28.9442C8.68348 29.5548 9.70535 30.8759 10.4406 31.8729C11.4377 33.2064 11.9985 33.842 12.5843 34.2906C13.3695 34.8639 13.4192 34.8889 14.0923 34.839C14.6157 34.8016 14.9023 34.7019 15.2389 34.4402C15.7 34.1037 17.6317 31.7732 18.529 30.502C18.7907 30.1281 19.1771 29.6046 19.4014 29.3429C19.6132 29.0813 19.9747 28.5329 20.199 28.1216C20.4732 27.5857 20.8221 27.1994 21.3331 26.8005C21.7319 26.4765 22.0684 26.1774 22.0684 26.115C22.0684 26.0528 21.9313 25.791 21.7569 25.5418C21.3456 24.9436 21.358 24.794 21.8441 24.3952C21.8441 24.3952 22.2429 24.0587 22.2429 24.0587C22.2429 24.0587 22.218 22.8498 22.218 22.8498C22.1805 21.4914 22.1183 21.5288 23.1278 22.3139C25.1841 23.8967 26.4553 25.7288 26.7918 27.5733C26.8666 27.9721 26.9289 29.642 26.9289 31.2622C26.9289 32.8949 26.9788 34.3654 27.0535 34.5399C27.2156 34.9636 27.5895 34.9512 27.9259 34.515C28.1877 34.1785 28.2001 34.1162 28.1378 30.8136C28.0755 27.1122 28.0131 26.7133 27.2405 25.0807C26.7544 24.0712 25.5455 22.6255 24.5734 21.9026C23.6761 21.2297 19.6507 18.787 19.1646 18.625C19.0898 18.6 19.4139 18.2136 19.8625 17.7401C20.3236 17.279 20.8595 16.6558 21.0714 16.3567C21.4951 15.7336 22.3176 14.0761 22.3176 13.8393C22.3176 13.752 22.4423 13.6772 22.6043 13.6772C23.0654 13.6648 23.9752 13.1912 24.5485 12.6428C25.6577 11.571 25.9818 10.1503 25.3836 8.86659C24.8726 7.76983 24.2992 7.25884 23.1403 6.89744C22.9159 6.82271 22.9035 6.7105 22.9907 4.87847C23.0654 3.08382 19.7379 3.99796 20.199 2.53981C20.8221 0.583166 19.2371 1.59283 18.938 1.13172C15.2793 -0.0865368 23.8756 -0.00690907 14.1297 0.00555104C9.20686 0.00555104 9.7353 1.0815 9.54835 1.13136ZM23.913 8.74192C24.561 9.47719 24.5984 10.6736 24.0002 11.5709C23.7509 11.9698 23.053 12.4309 22.7289 12.4309C22.6667 12.4309 22.6791 11.8576 22.7664 11.0849C22.8536 10.3496 22.9284 9.41484 22.9408 8.99118C22.9408 8.57995 22.9782 8.19357 23.0156 8.1562C23.1403 8.0315 23.4892 8.26831 23.913 8.74192ZM4.90724 9.58939C4.9571 10.3621 5.03184 11.3217 5.06921 11.708C5.11907 12.1442 5.10667 12.4309 5.03184 12.4309C4.79503 12.4309 3.83541 11.4962 3.67343 11.0974C3.28705 10.1875 3.56123 9.00357 4.28414 8.41788C4.77015 8.0191 4.83249 8.13122 4.90724 9.58939ZM10.2163 5.35654C10.8769 5.51851 11.6775 4.43427 13.3042 5.82613C13.3042 5.82613 16.1211 5.82613 16.1211 5.82613C16.1211 5.82613 19.4075 5.82613 19.4075 5.82613C20.5292 5.25289 20.6539 7.4801 20.816 7.70451C20.9032 7.8416 20.8161 8.23008 20.816 8.64348C21.2726 9.74522 21.4951 10.6612 21.4079 11.8577C21.2085 14.5372 19.4513 17.1419 17.0085 18.3882C15.7499 19.0362 13.2199 19.1982 11.6994 18.7371C10.1416 18.276 7.96057 16.3318 7.22526 14.7365C6.73925 13.7022 6.36536 12.1692 6.36536 11.2096C6.36536 10.4369 6.39033 10.3746 6.86385 9.86366C7.13803 9.56451 7.08817 8.4727 7.22526 8.17354C7.22526 8.17354 7.62414 7.2346 7.62414 7.2346C7.62414 7.2346 8.6585 6.29551 8.6585 6.29551C9.06977 6.51983 9.78018 5.24434 10.2163 5.35654ZM11.313 19.8712C12.9457 20.27 14.7154 20.3074 16.2732 19.946C17.3077 19.7092 18.7284 19.6469 18.9029 19.8213C18.9652 19.8712 18.9154 20.1828 18.8032 20.5069C18.6911 20.8308 18.554 21.3044 18.5165 21.5661C18.3919 22.2392 18.205 22.264 18.205 21.5911C18.205 20.8683 17.8062 20.4071 17.183 20.4071C16.6098 20.4195 15.7747 20.619 15.1765 20.9056C14.8898 21.0552 14.5534 21.1175 14.3914 21.0801C14.2294 21.0427 13.2698 21.2172 12.8834 21.0177C12.6217 20.8807 12.1107 20.6813 11.7368 20.5816C10.8644 20.3199 10.2163 20.4819 9.89229 21.0427C9.89229 21.0427 9.66798 21.4166 9.66798 21.4166C9.66798 21.4166 9.59323 21.0676 9.59323 21.0676C9.54337 20.8807 9.506 20.457 9.49352 20.1205C9.48103 19.41 9.45614 19.41 11.313 19.8712ZM8.30958 20.9304C9.38132 25.1054 9.58074 25.7535 10.0792 26.4141C10.7523 27.3114 13.4567 33.0567 13.2822 33.2187C13.2324 33.2685 13.1327 33.2187 13.0578 33.1066C12.9706 33.0068 12.3475 32.2467 11.6621 31.4241C10.9641 30.614 9.79257 29.1932 9.04488 28.2835C8.2846 27.3612 7.52442 26.439 7.33747 26.2146C7.33747 26.2146 6.98855 25.8034 6.98855 25.8034C6.98855 25.8034 7.36235 25.3174 7.36235 25.3174C7.86094 24.6568 7.84845 24.3453 7.3001 24.096C6.8016 23.8591 6.8016 23.8343 7.00094 22.2764C7.12564 21.2918 7.1755 21.1922 7.59916 20.8183C7.84845 20.594 8.07277 20.407 8.11014 20.407C8.14752 20.407 8.23475 20.6438 8.30958 20.9304ZM20.3236 20.7186C20.7349 20.9304 20.8595 21.4539 20.872 23.0242C20.872 23.0242 20.8845 23.9589 20.8845 23.9589C20.8845 23.9589 20.4234 24.2082 20.4234 24.2082C20.1616 24.3453 19.9249 24.5322 19.8874 24.6319C19.85 24.7191 20.0744 25.0681 20.386 25.4046C20.6975 25.7286 20.9467 26.0402 20.9467 26.0775C20.9467 26.1149 20.3112 26.7755 19.526 27.5482C18.7533 28.3208 17.8187 29.3802 17.4697 29.9037C16.6346 31.1623 14.678 33.4555 14.6157 33.2561C14.5908 33.1689 14.865 32.4959 15.2513 31.773C15.6252 31.0377 16.3106 29.5671 16.7717 28.5078C17.2453 27.4484 17.8062 26.3268 18.0305 26.0152C18.2423 25.7037 18.5165 25.1678 18.6162 24.8313C18.7284 24.4823 19.04 23.5601 19.3142 22.75C19.6008 21.9524 19.8252 21.1299 19.8252 20.918C19.8252 20.4693 19.8376 20.4693 20.3236 20.7186ZM16.6477 26.2585C15.4671 28.8398 14.0464 31.401 13.7862 31.401C13.7262 31.401 13.306 30.6606 12.8458 29.7403C12.4056 28.8398 11.5251 27.079 10.9049 25.8183C10.2645 24.5778 9.80441 23.4371 9.86441 23.2971C9.90436 23.157 10.3046 22.9169 10.7248 22.7768C11.1449 22.6368 11.8853 22.3165 12.3656 22.0565C12.8458 21.8163 13.4661 21.5962 13.7063 21.5962C13.9664 21.5962 15.0269 22.0165 16.0675 22.5168C16.0675 22.5168 17.9282 23.4171 17.9282 23.4171C17.9282 23.4171 16.6477 26.2585 16.6477 26.2585Z" fill="#948CFA" transform="scale(1 1)" />
                  <path d="M0.380817 0.322536C-0.242282 0.945633 -0.0803089 1.91774 0.71734 2.32901C1.32805 2.64056 2.06335 1.99249 2.06335 1.14507C2.06335 0.509486 1.77668 0.148076 1.16598 0.0233822C0.82955 -0.0388727 0.704853 0.0109873 0.380817 0.322536Z" fill="#948CFA" transform="matrix(1 0 0 1 9.224 11.152)" />
                  <path d="M0.361408 0.349561C0.09972 0.62374 0 0.835664 0 1.17209C0 1.50862 0.09972 1.72054 0.361408 1.99472C1.09671 2.72993 2.01896 2.28129 2.04394 1.1597C2.05634 0.686087 2.00648 0.536509 1.70742 0.287309C1.2338 -0.111565 0.810047 -0.0990763 0.361408 0.349561Z" fill="#948CFA" transform="translate(16.834 11.138)" />
                  <path d="M4.85847 0.448638C3.82401 1.59521 2.44072 1.64507 1.18195 0.610609C0.521384 0.062253 0.471523 0.04986 0.197348 0.324038C-0.151573 0.660469 -0.0393677 1.05934 0.54636 1.59521C2.02946 2.95361 4.02345 2.94122 5.45668 1.54535C6.01754 1.00948 6.11716 0.847418 6.04241 0.598216C5.9427 0.286667 5.64364 0 5.41932 0C5.33208 0 5.0828 0.199342 4.85847 0.448638Z" fill="#948CFA" transform="translate(10.978 15.115)" />
                  <path d="M0.199436 0.274178C0.0872307 0.423758 0 0.635586 0 0.747795C0 1.30854 0.735305 1.70742 1.09671 1.34601C1.45812 0.9846 1.1092 0 0.623192 0C0.498498 0 0.299156 0.124603 0.199436 0.274178Z" fill="#948CFA" transform="translate(13.146 28.169)" />
                  <path d="M0.199436 0.274178C0.0872307 0.423758 0 0.635586 0 0.747795C0 1.30854 0.735305 1.70742 1.09671 1.34601C1.45812 0.9846 1.1092 0 0.623192 0C0.498498 0 0.299156 0.124603 0.199436 0.274178Z" fill="#948CFA" transform="translate(13.146 23.474)" />
                  <path d="M0.199436 0.274178C0.0872307 0.423759 0 0.635586 0 0.747795C0 1.30854 0.735305 1.70742 1.09671 1.34601C1.45812 0.9846 1.1092 0 0.623192 0C0.498498 0 0.299156 0.124603 0.199436 0.274178Z" fill="#948CFA" transform="translate(13.5 36)" />
                  <path d="M0.361408 0.0748329C0.0747421 0.149576 0 0.859997 0 3.36497C0 5.78271 0.0872302 6.13173 0.672958 6.06938C0.996995 6.03201 1.05934 5.96967 1.15906 5.53352C1.22131 5.25934 1.24629 3.97568 1.20892 2.66704C1.14657 0.610703 1.1092 0.286665 0.922254 0.149576C0.797653 0.0623455 0.672958 0 0.635587 0C0.598216 0.0124855 0.473615 0.0374622 0.361408 0.0748329Z" fill="#948CFA" transform="matrix(1 0 0 1 3.873 29.708)" />
                  <path d="M0.361406 0.0748329C0.0747414 0.149578 0 0.859995 0 3.36497C0 5.78272 0.0872307 6.13173 0.672958 6.06939C0.996994 6.03201 1.05934 5.96967 1.15906 5.53352C1.22131 5.25934 1.24629 3.97568 1.20892 2.66704C1.14657 0.610701 1.1092 0.286667 0.922253 0.149578C0.797653 0.0623455 0.672958 0 0.635588 0C0.598215 0.0124855 0.473614 0.0374622 0.361406 0.0748329Z" fill="#948CFA" transform="matrix(1 0 0 1 23.474 30.348)" />
                </g>
              </g>
            </g>
          </g>
        </g>
      </g>
    </g>
  </g>
</svg>