<?xml version="1.0" encoding="utf-8"?>
<svg width="44" height="45" viewBox="0 0 44 45" fill="none" xmlns="http://www.w3.org/2000/svg">
  <g>
    <path d="M0 22C0 15.9249 2.14788 10.7394 6.44365 6.44365C10.7394 2.14788 15.9249 0 22 0C28.0751 0 33.2606 2.14788 37.5563 6.44365C41.8521 10.7394 44 15.9249 44 22C44 28.0751 41.8521 33.2606 37.5563 37.5563C33.2606 41.8521 28.0751 44 22 44C15.9249 44 10.7394 41.8521 6.44365 37.5563C2.14788 33.2606 0 28.0751 0 22L0 22Z" fill="#443DA8" fill-rule="evenodd" transform="translate(0 0.013)" />
    <g transform="translate(8 12.5)">
      <path d="M10.0617 0.0171044C7.53944 -0.0661783 5.5188 0.155941 4.47367 0.655687C2.73175 1.48856 1.0595 3.58472 0.543893 5.61149C0.334835 6.44436 -0.0135084 11.9138 0.000405558 14.2876C0.000405558 15.9395 0.111866 16.0922 1.28247 16.0922C1.28247 16.0922 2.21614 16.0922 2.21614 16.0922C2.21614 16.0922 2.64812 16.7585 2.64812 16.7585C2.94076 17.2028 3.33094 17.5498 3.83264 17.8275C5.40734 18.6881 7.2886 18.23 8.45915 16.6753C8.45915 16.6753 8.98873 15.9812 8.98873 15.9812C8.98873 15.9812 14.2563 15.9534 14.2563 15.9534C14.2563 15.9534 19.5238 15.9395 19.5238 15.9395C19.5238 15.9395 19.9559 16.6058 19.9559 16.6058C20.4017 17.2861 20.6387 17.4804 21.5166 17.9107C22.2831 18.2717 22.9241 18.3411 23.6766 18.1051C24.652 17.8275 25.4324 17.2861 25.9202 16.5642C26.3243 15.9673 26.3383 15.9534 27.1186 15.9534C28.8745 15.9534 29.0974 15.5509 29.0138 12.6912C28.9581 11.0115 28.9163 10.6506 28.6376 10.0814C27.8711 8.52667 26.3104 7.37448 24.4709 7.02744C23.6348 6.87474 23.6069 6.86082 23.3282 6.20838C22.9798 5.40323 21.6699 3.65415 20.6387 2.62688C19.8304 1.82174 18.5205 0.974952 17.4754 0.586268C16.7368 0.308641 15.9394 0.0726087 15.2503 0.0726087C13.8643 0.0726087 13.7186 0.0726087 12.5878 0.0726087C12.5878 0.0726087 11.6225 0.0726087 11.6225 0.0726087C11.6225 0.0726087 10.0617 0.0171044 10.0617 0.0171044ZM9.50433 2.21042C6.04832 2.21042 5.08682 2.47418 3.97198 3.66801C3.2334 4.45929 2.75963 5.50043 2.63421 6.55542C2.63421 6.55542 2.53666 7.36057 2.53666 7.36057C2.53666 7.36057 1.97921 7.31893 1.97921 7.31893C1.97921 7.31893 1.42181 7.2912 1.42181 7.2912C1.42181 7.2912 1.49148 6.62484 1.49148 6.62484C1.58902 5.80583 2.5227 3.97341 3.28915 3.12663C3.63755 2.72408 4.20886 2.30762 4.84989 1.9883C5.97865 1.43305 6.98199 1.29422 10.0617 1.25258C10.0617 1.25258 11.6225 1.23871 11.6225 1.23871C11.6225 1.23871 11.6225 1.72459 11.6225 1.72459C11.6225 1.72459 11.6225 2.21042 11.6225 2.21042C11.6225 2.21042 9.50433 2.21042 9.50433 2.21042ZM16.5696 1.5302C17.6983 1.72454 18.632 2.25206 19.6214 3.25155C20.9034 4.54258 22.3527 6.56934 22.3527 7.06908C22.3527 7.16623 22.1297 7.20787 21.7674 7.18014C21.21 7.1385 21.1543 7.09681 20.9592 6.56934C20.4296 5.12561 18.9525 3.41816 17.6147 2.6963C16.8761 2.2937 16.7646 2.27984 14.7998 2.2382C12.7791 2.18264 12.7373 2.18264 12.7373 1.87724C12.7373 1.71068 12.807 1.50247 12.8906 1.41919C13.0578 1.25258 15.3293 1.32199 16.5696 1.5302ZM8.59854 6.83309C7.16317 6.8886 5.46304 6.93024 4.83598 6.93024C3.48425 6.93024 3.47033 6.90246 4.04165 5.68091C4.51546 4.6675 4.94744 4.11225 5.58847 3.72356C6.28526 3.29318 6.88445 3.20991 9.18382 3.23768C9.18382 3.23768 11.1347 3.25155 11.1347 3.25155C11.1347 3.25155 11.1765 5.00067 11.1765 5.00067C11.1765 5.00067 11.2184 6.74976 11.2184 6.74976C11.2184 6.74976 8.59854 6.83309 8.59854 6.83309ZM16.6531 3.45981C17.7959 4.04283 19.705 5.9724 19.705 6.5277C19.705 6.77755 19.5378 6.79141 16.2769 6.79141C16.2769 6.79141 12.8488 6.79141 12.8488 6.79141C12.8488 6.79141 12.9324 6.36108 12.9324 6.36108C12.9742 6.1251 13.016 5.3616 13.016 4.68141C13.016 3.54309 13.0439 3.44589 13.3365 3.32097C13.7407 3.14049 16.2351 3.25155 16.6531 3.45981ZM10.7306 14.8429C9.51825 14.8429 9.39282 14.7734 9.39282 14.1627C9.37891 13.0938 8.20831 11.4418 7.0935 10.9421C6.39672 10.6228 5.0171 10.5951 4.30641 10.9005C3.59571 11.192 2.18827 12.5385 2.02105 13.0938C1.95133 13.3298 1.85379 13.8156 1.79808 14.1765C1.74233 14.6485 1.64478 14.8429 1.49148 14.8429C1.29639 14.8429 1.28247 14.6763 1.36605 13.5519C1.4079 12.8578 1.49148 11.3308 1.53327 10.1925C1.53327 10.1925 1.63087 8.09629 1.63087 8.09629C1.63087 8.09629 6.61969 8.06857 6.61969 8.06857C6.61969 8.06857 11.6225 8.02693 11.6225 8.02693C11.6225 8.02693 11.6225 11.4279 11.6225 11.4279C11.6225 11.4279 11.6225 14.8429 11.6225 14.8429C11.6225 14.8429 10.7306 14.8429 10.7306 14.8429ZM23.8717 8.17962C24.443 8.24899 25.2513 8.47111 25.6693 8.66545C25.6693 8.66545 26.4497 9.02641 26.4497 9.02641C26.4497 9.02641 25.9759 9.40118 25.9759 9.40118C25.6136 9.70658 25.516 9.88706 25.53 10.2619C25.5439 10.8865 26.4497 12.1637 27.2022 12.6079C27.2022 12.6079 27.7875 12.9688 27.7875 12.9688C27.7875 12.9688 27.7597 13.8017 27.7597 13.8017C27.7597 13.8017 27.7178 14.6346 27.7178 14.6346C27.7178 14.6346 27.2022 14.6763 27.2022 14.6763C26.6866 14.7179 26.6727 14.7041 26.6727 14.2598C26.6448 12.6912 25.2931 11.2059 23.4397 10.72C22.6175 10.5117 22.506 10.5117 21.7535 10.7338C21.0985 10.9282 20.7641 11.1364 20.1231 11.7611C19.3427 12.5246 19.1058 12.9966 18.8131 14.3154C18.7295 14.6763 18.7156 14.6763 17.1688 14.7734C16.3048 14.8151 14.967 14.8429 14.2005 14.8151C14.2005 14.8151 12.807 14.7734 12.807 14.7734C12.807 14.7734 12.7652 11.5251 12.7652 11.5251C12.7373 9.0125 12.7791 8.24899 12.9045 8.15185C13.1554 7.99915 22.6175 8.02692 23.8717 8.17962ZM27.6481 10.6783C27.7318 10.8866 27.7875 11.2197 27.7596 11.4002C27.7596 11.4002 27.7178 11.7195 27.7178 11.7195C27.7178 11.7195 27.3416 11.3447 27.3416 11.3447C26.826 10.8449 26.812 10.0259 27.2997 10.2063C27.3973 10.248 27.5506 10.4562 27.6481 10.6783ZM24.2479 12.3719C25.0004 12.8855 25.4185 13.6629 25.4185 14.5791C25.4185 15.2593 25.3488 15.4676 24.9586 15.9812C24.1364 17.064 22.952 17.3555 21.7953 16.7447C21.3354 16.5087 21.0706 16.2172 20.7223 15.6064C20.0116 14.3154 20.1231 13.5658 21.2239 12.5801C21.7396 12.1082 21.9347 12.0249 22.7011 11.886C23.1052 11.8166 23.7184 12.011 24.2479 12.3719ZM6.20162 12.0665C6.84266 12.247 7.79024 13.2326 7.9993 13.9683C8.43127 15.412 7.10742 17.0639 5.5188 17.0639C4.05561 17.0639 3.12194 16.0367 3.12194 14.4681C3.12194 13.6907 3.44245 13.0938 4.13919 12.5524C4.90565 11.9832 5.43517 11.8583 6.20162 12.0665Z" fill="#FDFCFF" transform="scale(1 1)" />
      <path d="M0.178906 0.0895281C-0.0858536 0.186724 -0.0440626 0.922451 0.220698 1.0196C0.555128 1.14452 1.75361 1.11679 2.1438 0.964091C2.53398 0.825254 2.61757 0.436571 2.33889 0.158946C2.17167 -0.00766659 0.527301 -0.0631723 0.178906 0.0895281Z" fill="#FDFCFF" transform="matrix(1 0 0 1 13.436 8.742)" />
      <path d="M0.905794 0.186013C0.334431 0.435908 0 0.977295 0 1.65747C0 2.78193 0.627119 3.58707 1.70013 3.80919C2.21574 3.93411 2.99611 3.53152 3.3445 2.97627C3.88799 2.10171 3.53959 0.533056 2.71738 0.158236C2.24362 -0.0638332 1.43537 -0.0499706 0.905794 0.186013ZM2.34117 1.54646C2.70348 2.30992 2.00669 3.00405 1.37962 2.50431C0.780378 2.03229 1.15665 1.0328 1.88127 1.13C2.03457 1.15773 2.24362 1.33821 2.34117 1.54646Z" fill="#FDFCFF" transform="translate(21.099 12.63)" />
      <path d="M1.25723 0.114388C-0.108424 0.586354 -0.428941 2.23829 0.630157 3.29333C1.70317 4.3761 3.62627 3.3627 3.62627 1.71076C3.62627 0.461429 2.48354 -0.302073 1.25723 0.114388ZM2.31632 1.46092C2.53929 1.87738 2.3442 2.39099 1.91217 2.55756C1.59166 2.68253 1.50807 2.65475 1.29902 2.40485C0.9785 2.00231 0.9785 1.6414 1.31298 1.30822C1.6335 0.988955 2.10726 1.05832 2.31632 1.46092Z" fill="#FDFCFF" transform="translate(3.746 12.716)" />
    </g>
  </g>
</svg>