<?xml version="1.0" encoding="utf-8"?>
<svg width="25" height="25" viewBox="0 0 25 25" fill="none" xmlns="http://www.w3.org/2000/svg">
  <g>
    <path d="M0 0L0 3" fill="none" stroke-width="1.2" stroke="#D0CDFA" stroke-linecap="round" stroke-linejoin="round" transform="translate(8.328 2.417)" />
    <path d="M0 0L17 0" fill="none" stroke-width="1.2" stroke="#D0CDFA" stroke-linecap="round" stroke-linejoin="round" transform="translate(3.828 9.506)" />
    <path d="M4 8C6.2092 8 8 6.2092 8 4C8 1.7909 6.2092 0 4 0C1.7909 0 0 1.7909 0 4C0 6.2092 1.7909 8 4 8Z" fill="none" stroke-width="1.2" stroke="#D0CDFA" stroke-linecap="round" stroke-linejoin="round" transform="translate(14.328 15.416)" />
    <path d="M2.12 2.11L0 0" fill="none" stroke-width="1.2" stroke="#D0CDFA" stroke-linecap="round" stroke-linejoin="round" transform="translate(17.278 18.416)" />
    <path d="M2.12 0L0 2.12" fill="none" stroke-width="1.2" stroke="#D0CDFA" stroke-linecap="round" stroke-linejoin="round" transform="translate(17.258 18.435)" />
    <path d="M18 12.86C17.27 12.03 16.2 11.5 15 11.5C12.79 11.5 11 13.29 11 15.5C11 16.25 11.21 16.96 11.58 17.56C11.79 17.92 12.06 18.24 12.37 18.5C12.37 18.5 5 18.5 5 18.5C1.5 18.5 0 16.5 0 13.5C0 13.5 0 5 0 5C0 2 1.5 0 5 0C5 0 13 0 13 0C16.5 0 18 2 18 5C18 5 18 12.86 18 12.86Z" fill="none" stroke-width="1.2" stroke="#D0CDFA" stroke-linecap="round" stroke-linejoin="round" transform="translate(3.328 3.916)" />
    <path d="M0 0L0.00890064 0" fill="none" stroke-width="1.2" stroke="#D0CDFA" stroke-linecap="round" stroke-linejoin="round" transform="translate(12.323 14.116)" />
    <path d="M0 0L0.0089798 0" fill="none" stroke-width="1.2" stroke="#D0CDFA" stroke-linecap="round" stroke-linejoin="round" transform="translate(8.622 14.116)" />
    <path d="M0 0L0.0089798 0" fill="none" stroke-width="1.2" stroke="#D0CDFA" stroke-linecap="round" stroke-linejoin="round" transform="translate(8.622 17.116)" />
  </g>
</svg>