<?xml version="1.0" encoding="utf-8"?>
<svg width="22" height="22.256" viewBox="0 0 22 22.256" fill="none" xmlns="http://www.w3.org/2000/svg">
  <g>
    <g transform="translate(0.103 2.554)">
      <path d="M7.58966 0.0161109C5.68708 -0.0623346 4.16288 0.146884 3.37453 0.617604C2.06059 1.4021 0.799192 3.37652 0.410263 5.28556C0.252569 6.07006 -0.0101904 11.2218 0.000305076 13.4578C0.000305076 15.0137 0.0843808 15.1576 0.967381 15.1576C0.967381 15.1576 1.67166 15.1576 1.67166 15.1576C1.67166 15.1576 1.9975 15.7852 1.9975 15.7852C2.21824 16.2036 2.51256 16.5305 2.891 16.792C4.07881 17.6027 5.49786 17.1712 6.38082 15.7067C6.38082 15.7067 6.78028 15.053 6.78028 15.053C6.78028 15.053 10.7536 15.0268 10.7536 15.0268C10.7536 15.0268 14.727 15.0137 14.727 15.0137C14.727 15.0137 15.0529 15.6414 15.0529 15.6414C15.3892 16.2821 15.568 16.4651 16.2302 16.8704C16.8083 17.2104 17.2919 17.2758 17.8595 17.0535C18.5953 16.792 19.1839 16.2821 19.5519 15.6021C19.8567 15.0399 19.8672 15.0268 20.4558 15.0268C21.7803 15.0268 21.9485 14.6476 21.8854 11.9541C21.8434 10.3719 21.8118 10.032 21.6016 9.49586C21.0235 8.03142 19.8462 6.94616 18.4586 6.61927C17.828 6.47544 17.8069 6.46234 17.5967 5.84779C17.3339 5.08941 16.3458 3.44191 15.568 2.47431C14.9583 1.71593 13.9702 0.918326 13.1818 0.552217C12.6247 0.290715 12.0233 0.0683914 11.5034 0.0683914C10.458 0.0683914 10.3481 0.0683914 9.49508 0.0683914C9.49508 0.0683914 8.76695 0.0683914 8.76695 0.0683914C8.76695 0.0683914 7.58966 0.0161109 7.58966 0.0161109ZM7.16924 2.08203C4.56233 2.08203 3.83706 2.33047 2.99612 3.45496C2.43901 4.20029 2.08164 5.18095 1.98703 6.17467C1.98703 6.17467 1.91345 6.93305 1.91345 6.93305C1.91345 6.93305 1.49296 6.89383 1.49296 6.89383C1.49296 6.89383 1.07251 6.86771 1.07251 6.86771C1.07251 6.86771 1.12506 6.24006 1.12506 6.24006C1.19864 5.46862 1.90292 3.74262 2.48106 2.94502C2.74386 2.56586 3.17481 2.17358 3.65835 1.87281C4.50978 1.34982 5.26661 1.21904 7.58969 1.17982C7.58969 1.17982 8.76697 1.16676 8.76697 1.16676C8.76697 1.16676 8.76697 1.62442 8.76697 1.62442C8.76697 1.62442 8.76697 2.08203 8.76697 2.08203C8.76697 2.08203 7.16924 2.08203 7.16924 2.08203ZM12.4986 1.44129C13.3501 1.62434 14.0543 2.12123 14.8006 3.06266C15.7677 4.2787 16.8609 6.18775 16.8609 6.65846C16.8609 6.74997 16.6927 6.78919 16.4194 6.76307C15.999 6.72385 15.9569 6.68458 15.8098 6.18775C15.4103 4.82787 14.2961 3.2196 13.287 2.53966C12.7299 2.16045 12.6458 2.14739 11.1636 2.10817C9.63945 2.05584 9.60793 2.05584 9.60793 1.76818C9.60793 1.61129 9.66048 1.41517 9.72357 1.33673C9.8497 1.17979 11.5631 1.24518 12.4986 1.44129ZM6.48592 6.43626C5.40321 6.48854 4.12078 6.52776 3.64778 6.52776C2.62816 6.52776 2.61766 6.5016 3.04861 5.35099C3.40602 4.39644 3.73186 3.87344 4.21539 3.50733C4.74099 3.10195 5.19296 3.02351 6.9274 3.04967C6.9274 3.04967 8.399 3.06273 8.399 3.06273C8.399 3.06273 8.43053 4.71027 8.43053 4.71027C8.43053 4.71027 8.46209 6.35777 8.46209 6.35777C8.46209 6.35777 6.48592 6.43626 6.48592 6.43626ZM12.5616 3.25887C13.4235 3.80803 14.8636 5.62552 14.8636 6.14857C14.8636 6.3839 14.7375 6.39696 12.2778 6.39696C12.2778 6.39696 9.6919 6.39696 9.6919 6.39696C9.6919 6.39696 9.75499 5.99163 9.75499 5.99163C9.78651 5.76936 9.81803 5.0502 9.81803 4.40952C9.81803 3.33731 9.83906 3.24576 10.0598 3.12809C10.3647 2.95809 12.2462 3.06271 12.5616 3.25887ZM8.09417 13.9809C7.17964 13.9809 7.08504 13.9155 7.08504 13.3402C7.07454 12.3334 6.19154 10.7774 5.35064 10.3067C4.82504 10.0059 3.78439 9.97982 3.2483 10.2675C2.71221 10.542 1.65057 11.8104 1.52443 12.3334C1.47185 12.5557 1.39827 13.0133 1.35625 13.3533C1.31419 13.7978 1.24061 13.9809 1.12497 13.9809C0.977812 13.9809 0.967317 13.824 1.03036 12.7649C1.06193 12.1111 1.12497 10.6728 1.1565 9.6006C1.1565 9.6006 1.23011 7.62618 1.23011 7.62618C1.23011 7.62618 4.99323 7.60006 4.99323 7.60006C4.99323 7.60006 8.76688 7.56084 8.76688 7.56084C8.76688 7.56084 8.76688 10.7643 8.76688 10.7643C8.76688 10.7643 8.76688 13.9809 8.76688 13.9809C8.76688 13.9809 8.09417 13.9809 8.09417 13.9809ZM18.0066 7.70467C18.4376 7.77001 19.0473 7.97922 19.3626 8.16228C19.3626 8.16228 19.9513 8.50227 19.9513 8.50227C19.9513 8.50227 19.5939 8.85527 19.5939 8.85527C19.3206 9.14293 19.247 9.31293 19.2575 9.66598C19.268 10.2544 19.9513 11.4573 20.5189 11.8757C20.5189 11.8757 20.9604 12.2157 20.9604 12.2157C20.9604 12.2157 20.9394 13.0002 20.9394 13.0002C20.9394 13.0002 20.9078 13.7848 20.9078 13.7848C20.9078 13.7848 20.5189 13.824 20.5189 13.824C20.13 13.8632 20.1195 13.8502 20.1195 13.4317C20.0984 11.9542 19.0788 10.5551 17.6808 10.0975C17.0606 9.90132 16.9765 9.90132 16.4089 10.1105C15.9148 10.2936 15.6626 10.4897 15.179 11.0781C14.5904 11.7973 14.4117 12.2418 14.1909 13.484C14.1279 13.824 14.1173 13.824 12.9506 13.9155C12.2988 13.9548 11.2897 13.9809 10.7116 13.9548C10.7116 13.9548 9.66044 13.9155 9.66044 13.9155C9.66044 13.9155 9.62892 10.8559 9.62892 10.8559C9.60789 8.48916 9.63941 7.77001 9.73402 7.6785C9.92324 7.53467 17.0606 7.56083 18.0066 7.70467ZM20.8552 10.0582C20.9183 10.2544 20.9603 10.5682 20.9393 10.7382C20.9393 10.7382 20.9078 11.0389 20.9078 11.0389C20.9078 11.0389 20.624 10.6858 20.624 10.6858C20.2351 10.2151 20.2245 9.44369 20.5924 9.61364C20.666 9.65291 20.7816 9.84902 20.8552 10.0582ZM18.2904 11.6535C18.858 12.1372 19.1734 12.8695 19.1734 13.7324C19.1734 14.3732 19.1208 14.5693 18.8265 15.0531C18.2063 16.073 17.3128 16.3476 16.4404 15.7722C16.0934 15.55 15.8937 15.2754 15.6309 14.7C15.0948 13.484 15.179 12.7779 16.0094 11.8496C16.3983 11.405 16.5455 11.3266 17.1236 11.1958C17.4284 11.1304 17.8909 11.3135 18.2904 11.6535ZM4.67792 11.3658C5.16146 11.5358 5.87623 12.4641 6.03393 13.1571C6.35977 14.517 5.36117 16.073 4.16286 16.073C3.05916 16.073 2.35489 15.1054 2.35489 13.6279C2.35489 12.8956 2.59666 12.3334 3.12221 11.8234C3.70036 11.2873 4.09978 11.1696 4.67792 11.3658Z" fill="#ABA5FA" transform="scale(1 1)" />
      <path d="M0.134952 0.0843287C-0.0647602 0.175879 -0.0332375 0.868873 0.166474 0.960376C0.418738 1.07804 1.32277 1.05193 1.61709 0.908095C1.91141 0.777322 1.97445 0.411215 1.76425 0.149714C1.63812 -0.00722122 0.397748 -0.0595026 0.134952 0.0843287Z" fill="#ABA5FA" transform="matrix(1 0 0 1 10.135 8.235)" />
      <path d="M0.683249 0.175209C0.252265 0.41059 0 0.920532 0 1.5612C0 2.62035 0.473042 3.37873 1.28242 3.58795C1.67135 3.70562 2.25999 3.3264 2.52279 2.8034C2.93275 1.97964 2.66995 0.502096 2.04975 0.149045C1.69238 -0.0601254 1.08271 -0.0470676 0.683249 0.175209ZM1.76589 1.45663C2.03918 2.17574 1.51359 2.82956 1.04059 2.35884C0.588574 1.91424 0.872399 0.972804 1.41898 1.06435C1.53462 1.09047 1.69231 1.26047 1.76589 1.45663Z" fill="#ABA5FA" transform="matrix(1 0 0 1 15.915 11.897)" />
      <path d="M0.948339 0.107744C-0.0817854 0.552298 -0.323554 2.10828 0.475334 3.10204C1.28472 4.12192 2.73533 3.16738 2.73533 1.6114C2.73533 0.434628 1.87336 -0.284529 0.948339 0.107744ZM1.74724 1.37611C1.91543 1.76838 1.76827 2.25216 1.44238 2.40905C1.20061 2.52677 1.13757 2.5006 0.979874 2.26522C0.738105 1.88605 0.738105 1.54611 0.990407 1.23228C1.23218 0.931559 1.58954 0.996898 1.74724 1.37611Z" fill="#ABA5FA" transform="matrix(1 0 0 1 2.826 11.977)" />
    </g>
  </g>
</svg>