<?xml version="1.0" encoding="utf-8"?>
<svg width="25" height="24" viewBox="0 0 25 24" fill="none" xmlns="http://www.w3.org/2000/svg">
  <g>
    <path d="M10.0001 20C15.5229 20 20 15.5228 20 10C20 4.47715 15.5229 0 10.0001 0C4.47716 0 0 4.47715 0 10C0 15.5228 4.47716 20 10.0001 20Z" fill="#9A93FA" fill-opacity="0.4" transform="translate(2.6 2)" />
    <path d="M4.0418 3.2527C4.0415 3.253 4.0413 3.2532 4.0411 3.2534C4.0411 3.2534 0.942201 1.404 0.942201 1.404C0.487 1.1321 0.110001 0.550301 0 0C0.0494003 0.2452 0.1488 0.4756 0.2544 0.661201C0.4026 0.921801 0.6355 1.2216 0.946301 1.4038C0.946301 1.4038 4.0428 3.2517 4.0428 3.2517C4.0425 3.2521 4.0421 3.2524 4.0418 3.2527Z" fill="#9A93FA" stroke-width="1.5" stroke="#9A93FA" transform="translate(12.272 11.922)" />
  </g>
</svg>