<?xml version="1.0" encoding="utf-8"?>
<svg width="20" height="20" viewBox="0 0 20 20" fill="none" xmlns="http://www.w3.org/2000/svg">
  <g>
    <path d="M0 0L16.6667 0" fill="none" stroke-width="1.5" stroke="#ABA5FA" stroke-linecap="round" stroke-linejoin="round" transform="translate(1.667 18.334)" />
    <path d="M0 0C1.3333 0.53334 2.8333 0.53334 4.1667 0C4.1667 0 4.1667 2.5 4.1667 2.5C2.8333 3.03334 1.3333 3.03334 0 2.5C0 2.5 0 0 0 0Z" fill="none" stroke-width="1.5" stroke="#ABA5FA" stroke-linecap="round" stroke-linejoin="round" transform="translate(10 1.667)" />
    <path d="M0 0L0 2.5" fill="none" stroke-width="1.5" stroke="#ABA5FA" stroke-linecap="round" stroke-linejoin="round" transform="translate(10 4.167)" />
    <path d="M2.5 0C0.83334 0 0 0.83334 0 2.5C0 2.5 0 11.6667 0 11.6667L13.3333 11.6667C13.3333 11.6667 13.3333 2.5 13.3333 2.5C13.3333 0.83334 12.5 0 10.8334 0C10.8334 0 2.5 0 2.5 0Z" fill="none" stroke-width="1.5" stroke="#ABA5FA" stroke-linecap="round" stroke-linejoin="round" transform="translate(3.333 6.667)" />
    <path d="M0 0L12.3666 0" fill="none" stroke-width="1.5" stroke="#ABA5FA" stroke-linecap="round" stroke-linejoin="round" transform="translate(3.817 10)" />
    <path d="M0 0L0 8.3333" fill="none" stroke-width="1.5" stroke="#ABA5FA" stroke-linejoin="round" transform="translate(6.658 10)" />
    <path d="M0 0L0 8.3333" fill="none" stroke-width="1.5" stroke="#ABA5FA" stroke-linejoin="round" transform="translate(9.992 10)" />
    <path d="M0 0L0 8.3333" fill="none" stroke-width="1.5" stroke="#ABA5FA" stroke-linejoin="round" transform="translate(13.325 10)" />
  </g>
</svg>