<?xml version="1.0" encoding="utf-8"?>
<svg width="180.22" height="180.22" viewBox="0 0 180.22 180.22" fill="none" xmlns="http://www.w3.org/2000/svg">
  <defs>
    <linearGradient id="gradient_1" gradientUnits="userSpaceOnUse" x1="15.497" y1="4.109" x2="160.854" y2="175.988">
      <stop offset="0" stop-color="#2A10A1" stop-opacity="0.529" />
      <stop offset="0.8" stop-color="#3017BD" />
    </linearGradient>
    <filter color-interpolation-filters="sRGB" x="-175" y="-174" width="177" height="176" id="filter_2">
      <feFlood flood-opacity="0" result="BackgroundImageFix_1" />
      <feColorMatrix type="matrix" values="0 0 0 0 0 0 0 0 0 0 0 0 0 0 0 0 0 0 1 0" in="SourceAlpha" />
      <feOffset dx="1" dy="1" />
      <feGaussianBlur stdDeviation="1" />
      <feColorMatrix type="matrix" values="0 0 0 0 0 0 0 0 0 0 0 0 0 0 0 0 0 0 0.478 0" />
      <feBlend mode="normal" in2="BackgroundImageFix_1" result="Shadow_2" />
      <feBlend mode="normal" in="SourceGraphic" in2="Shadow_2" result="Shape_3" />
    </filter>
  </defs>
  <g>
    <g transform="translate(0 0.31)">
      <g>
        <g>
          <g>
            <g>
              <g>
                <path d="M0 30.8001C0 22.2948 3.02413 15.0352 9.07239 9.02112C15.1207 3.00704 22.4215 0 30.975 0C30.975 0 146.025 0 146.025 0C154.58 0 161.88 3.00704 167.928 9.02112C173.977 15.0352 177 22.2948 177 30.8001C177 30.8001 177 145.2 177 145.2C177 153.706 173.977 160.964 167.928 166.979C161.88 172.994 154.58 176 146.025 176C146.025 176 30.975 176 30.975 176C22.4215 176 15.1207 172.994 9.07239 166.979C3.02413 160.964 0 153.706 0 145.2C0 145.2 0 61.6001 0 61.6001C0 61.6001 0 30.8001 0 30.8001Z" fill="url(#gradient_1)" fill-rule="evenodd" filter="url(#filter_2)" />
                <g transform="translate(24.11 39.467)">
                  <g>
                    <g>
                      <path d="M0 76.778L0 0L54.5527 0L54.5527 58.3512" fill="none" stroke-width="6.2" stroke="#F7F4FF" stroke-linecap="round" stroke-linejoin="round" transform="translate(0 11.555)" />
                      <path d="M34.0399 11.5554C34.0399 11.5554 0 11.5554 0 11.5554C0 11.5554 0 0 0 0C0 0 34.0399 0 34.0399 0C34.0399 0 34.0399 11.5554 34.0399 11.5554Z" fill="none" stroke-width="6.2" stroke="#F7F4FF" stroke-linecap="round" stroke-linejoin="round" transform="translate(10.04 0)" />
                      <path d="M0 17.3331L0 0L17.0199 0L17.0199 17.3331" fill="none" stroke-width="6.2" stroke="#F7F4FF" stroke-linecap="round" stroke-linejoin="round" transform="translate(13.966 66)" />
                      <path d="M0 0L7.85538 0" fill="none" stroke-width="6.2" stroke="#F7F4FF" stroke-linecap="round" stroke-linejoin="round" transform="translate(17.894 27.641)" />
                      <path d="M0 0L7.85539 0" fill="none" stroke-width="6.2" stroke="#F7F4FF" stroke-linecap="round" stroke-linejoin="round" transform="translate(36.224 27.641)" />
                      <path d="M0 0L7.85538 0" fill="none" stroke-width="6.2" stroke="#F7F4FF" stroke-linecap="round" stroke-linejoin="round" transform="translate(17.894 41.993)" />
                      <path d="M0 0L7.85539 0" fill="none" stroke-width="6.2" stroke="#F7F4FF" stroke-linecap="round" stroke-linejoin="round" transform="translate(36.224 41.993)" />
                      <path d="M27 0L0 0" fill="none" stroke-width="6.2" stroke="#F7F4FF" stroke-linecap="round" stroke-linejoin="round" transform="translate(72.39 27)" />
                      <path d="M12.375 0L0 9.61149L12.375 19.223" fill="none" stroke-width="6.2" stroke="#F7F4FF" stroke-linecap="round" stroke-linejoin="round" transform="translate(71.484 18)" />
                    </g>
                    <g transform="matrix(-1 0 0 1 121 54)">
                      <path d="M25.9961 0.0434085C19.4794 -0.167951 14.2587 0.395755 11.5585 1.66404C7.05792 3.77775 2.73739 9.0975 1.40523 14.2411C0.865097 16.3548 -0.0349041 30.2355 0.0010449 36.2599C0.0010449 40.4522 0.289021 40.8397 3.31347 40.8397C3.31347 40.8397 5.72576 40.8397 5.72576 40.8397C5.72576 40.8397 6.84184 42.5307 6.84184 42.5307C7.59792 43.6581 8.60603 44.5389 9.90224 45.2435C13.9707 47.4277 18.8313 46.2652 21.8556 42.3194C21.8556 42.3194 23.2238 40.5579 23.2238 40.5579C23.2238 40.5579 36.8334 40.4874 36.8334 40.4874C36.8334 40.4874 50.443 40.4522 50.443 40.4522C50.443 40.4522 51.5592 42.1432 51.5592 42.1432C52.7112 43.8695 53.3233 44.3627 55.5916 45.4548C57.5719 46.3709 59.2281 46.5469 61.1723 45.948C63.6925 45.2435 65.7087 43.8695 66.969 42.0375C68.013 40.5227 68.0491 40.4874 70.0653 40.4874C74.6018 40.4874 75.1779 39.4658 74.9618 32.2084C74.8179 27.9455 74.7098 27.0296 73.9898 25.5851C72.0095 21.6394 67.9771 18.7154 63.2245 17.8346C61.0643 17.4471 60.9922 17.4118 60.2721 15.756C59.372 13.7126 55.9877 9.27369 53.3233 6.66664C51.2351 4.6233 47.8507 2.47429 45.1504 1.48786C43.2422 0.783286 41.1821 0.18427 39.4015 0.18427C35.8206 0.18427 35.4442 0.18427 32.5226 0.18427C32.5226 0.18427 30.0285 0.18427 30.0285 0.18427C30.0285 0.18427 25.9961 0.0434085 25.9961 0.0434085ZM24.556 5.60973C15.6268 5.60973 13.1426 6.27911 10.2622 9.30887C8.35401 11.317 7.12995 13.9593 6.8059 16.6367C6.8059 16.6367 6.55387 18.68 6.55387 18.68C6.55387 18.68 5.11361 18.5744 5.11361 18.5744C5.11361 18.5744 3.67348 18.504 3.67348 18.504C3.67348 18.504 3.85348 16.8129 3.85348 16.8129C4.1055 14.7344 6.5178 10.0839 8.49806 7.93492C9.39819 6.91331 10.8743 5.8564 12.5305 5.04602C15.4468 3.63688 18.0391 3.28453 25.9961 3.17885C25.9961 3.17885 30.0285 3.14367 30.0285 3.14367C30.0285 3.14367 30.0285 4.37676 30.0285 4.37676C30.0285 4.37676 30.0285 5.60973 30.0285 5.60973C30.0285 5.60973 24.556 5.60973 24.556 5.60973ZM42.8101 3.88341C45.7264 4.37662 48.1387 5.71541 50.6949 8.25196C54.0074 11.5284 57.7518 16.672 57.7518 17.9403C57.7518 18.1868 57.1757 18.2925 56.2397 18.2221C54.7995 18.1165 54.6555 18.0107 54.1514 16.672C52.7832 13.008 48.9668 8.6748 45.5104 6.84282C43.6021 5.82109 43.3141 5.7859 38.2375 5.68022C33.0169 5.53923 32.9089 5.53923 32.9089 4.76417C32.9089 4.34145 33.0889 3.81306 33.305 3.6017C33.737 3.17885 39.6056 3.35503 42.8101 3.88341ZM22.2157 17.3414C18.5072 17.4823 14.1147 17.5879 12.4945 17.5879C9.00211 17.5879 8.96617 17.5174 10.4422 14.4173C11.6664 11.8454 12.7825 10.4363 14.4387 9.44986C16.239 8.35762 17.7871 8.14627 23.7279 8.21677C23.7279 8.21677 28.7684 8.25195 28.7684 8.25195C28.7684 8.25195 28.8764 12.691 28.8764 12.691C28.8764 12.691 28.9845 17.1299 28.9845 17.1299C28.9845 17.1299 22.2157 17.3414 22.2157 17.3414ZM43.0261 8.78048C45.9785 10.2601 50.911 15.1571 50.911 16.5663C50.911 17.2004 50.479 17.2356 42.054 17.2356C42.054 17.2356 33.1969 17.2356 33.1969 17.2356C33.1969 17.2356 33.413 16.1435 33.413 16.1435C33.521 15.5446 33.6289 13.6069 33.6289 11.8807C33.6289 8.99184 33.701 8.74517 34.457 8.42812C35.5012 7.9701 41.9459 8.25196 43.0261 8.78048ZM27.7243 37.669C24.5919 37.669 24.2679 37.4928 24.2679 35.9428C24.2319 33.2301 21.2075 29.0377 18.3272 27.7694C16.5269 26.9591 12.9625 26.8887 11.1263 27.6638C9.29008 28.4035 5.65374 31.8208 5.22171 33.2301C5.04158 33.829 4.78956 35.0621 4.64563 35.978C4.50158 37.1758 4.24955 37.669 3.85348 37.669C3.34942 37.669 3.31347 37.2463 3.52942 34.3927C3.63753 32.6312 3.85348 28.7559 3.96145 25.867C3.96145 25.867 4.21361 20.5472 4.21361 20.5472C4.21361 20.5472 17.103 20.4768 17.103 20.4768C17.103 20.4768 30.0285 20.3712 30.0285 20.3712C30.0285 20.3712 30.0285 29.0024 30.0285 29.0024C30.0285 29.0024 30.0285 37.669 30.0285 37.669C30.0285 37.669 27.7243 37.669 27.7243 37.669ZM61.6763 20.7587C63.1525 20.9347 65.2408 21.4984 66.3209 21.9916C66.3209 21.9916 68.3371 22.9077 68.3371 22.9077C68.3371 22.9077 67.1129 23.8588 67.1129 23.8588C66.1769 24.6339 65.9248 25.0919 65.9608 26.0431C65.9969 27.6284 68.3371 30.8696 70.2813 31.997C70.2813 31.997 71.7935 32.9129 71.7935 32.9129C71.7935 32.9129 71.7216 35.0267 71.7216 35.0267C71.7216 35.0267 71.6135 37.1406 71.6135 37.1406C71.6135 37.1406 70.2813 37.2463 70.2813 37.2463C68.9492 37.3519 68.9132 37.3168 68.9132 36.1893C68.8412 32.2083 65.3488 28.4388 60.5602 27.2057C58.4359 26.6772 58.148 26.6772 56.2036 27.2409C54.5115 27.7341 53.6474 28.2626 51.9912 29.848C49.975 31.7856 49.3628 32.9834 48.6068 36.3303C48.3908 37.2463 48.3547 37.2463 44.3583 37.4928C42.126 37.5986 38.6696 37.669 36.6894 37.5986C36.6894 37.5986 33.089 37.4928 33.089 37.4928C33.089 37.4928 32.981 29.2491 32.981 29.2491C32.9089 22.8724 33.0169 20.9347 33.341 20.6882C33.9891 20.3006 58.4359 20.3711 61.6763 20.7587ZM71.4335 27.1001C71.6496 27.6285 71.7935 28.474 71.7216 28.9321C71.7216 28.9321 71.6135 29.7423 71.6135 29.7423C71.6135 29.7423 70.6415 28.7911 70.6415 28.7911C69.3093 27.5228 69.2733 25.4443 70.5334 25.9022C70.7854 26.008 71.1815 26.5364 71.4335 27.1001ZM62.6484 31.3981C64.5926 32.7016 65.6727 34.6746 65.6727 36.9996C65.6727 38.7259 65.4927 39.2544 64.4846 40.5579C62.3603 43.3058 59.3 44.0457 56.3117 42.4956C55.1234 41.8967 54.4394 41.1568 53.5392 39.6067C51.703 36.3304 51.9911 34.4279 54.8354 31.9265C56.1676 30.7287 56.6717 30.5174 58.6519 30.165C59.696 29.9889 61.2802 30.4821 62.6484 31.3981ZM16.0229 30.6231C17.6791 31.0811 20.1273 33.5823 20.6675 35.4495C21.7836 39.1135 18.3632 43.3058 14.2587 43.3058C10.4783 43.3058 8.06603 40.6988 8.06603 36.7179C8.06603 34.7449 8.89413 33.2301 10.6943 31.8561C12.6745 30.4117 14.0426 30.0945 16.0229 30.6231Z" fill="#FDFCFF" />
                      <path d="M0.462234 0.227211C-0.221817 0.473877 -0.113842 2.34104 0.57021 2.58759C1.43427 2.90462 4.53074 2.83426 5.53885 2.44672C6.54695 2.09438 6.7629 1.10795 6.0429 0.403381C5.61087 -0.0194569 1.36237 -0.160322 0.462234 0.227211Z" fill="#FDFCFF" transform="translate(34.715 22.186)" />
                      <path d="M2.34026 0.472073C0.864056 1.10627 0 2.48023 0 4.20641C0 7.06012 1.62026 9.10346 4.39255 9.66717C5.72471 9.9842 7.74092 8.96247 8.64105 7.55333C10.0452 5.33382 9.14511 1.35282 7.02079 0.401577C5.79674 -0.161999 3.7085 -0.126818 2.34026 0.472073ZM6.04879 3.92469C6.98487 5.86222 5.1846 7.62384 3.56447 6.35556C2.01623 5.15765 2.98839 2.62111 4.86055 2.86777C5.25663 2.93814 5.79676 3.39617 6.04879 3.92469Z" fill="#FDFCFF" transform="translate(54.512 32.053)" />
                      <path d="M3.24825 0.290298C-0.280129 1.48808 -1.10824 5.68044 1.62811 8.35798C4.4004 11.1059 9.36903 8.53403 9.36903 4.34167C9.36903 1.17104 6.41661 -0.766617 3.24825 0.290298ZM5.98459 3.7076C6.56067 4.76452 6.05661 6.06798 4.9404 6.49069C4.1123 6.80786 3.89635 6.73736 3.35622 6.10316C2.52811 5.08155 2.52811 4.16563 3.3923 3.32007C4.2204 2.50982 5.44446 2.68587 5.98459 3.7076Z" fill="#FDFCFF" transform="translate(9.679 32.27)" />
                    </g>
                  </g>
                </g>
              </g>
            </g>
          </g>
        </g>
      </g>
    </g>
  </g>
</svg>