<?xml version="1.0" encoding="utf-8"?>
<svg width="180.22" height="180.22" viewBox="0 0 180.22 180.22" fill="none" xmlns="http://www.w3.org/2000/svg">
  <defs>
    <linearGradient id="gradient_1" gradientUnits="userSpaceOnUse" x1="15.497" y1="4.109" x2="160.854" y2="175.988">
      <stop offset="0" stop-color="#2A10A1" stop-opacity="0.529" />
      <stop offset="0.8" stop-color="#3017BD" />
    </linearGradient>
    <filter color-interpolation-filters="sRGB" x="-175" y="-174" width="177" height="176" id="filter_2">
      <feFlood flood-opacity="0" result="BackgroundImageFix_1" />
      <feColorMatrix type="matrix" values="0 0 0 0 0 0 0 0 0 0 0 0 0 0 0 0 0 0 1 0" in="SourceAlpha" />
      <feOffset dx="1" dy="1" />
      <feGaussianBlur stdDeviation="1" />
      <feColorMatrix type="matrix" values="0 0 0 0 0 0 0 0 0 0 0 0 0 0 0 0 0 0 0.49 0" />
      <feBlend mode="normal" in2="BackgroundImageFix_1" result="Shadow_2" />
      <feBlend mode="normal" in="SourceGraphic" in2="Shadow_2" result="Shape_3" />
    </filter>
    <filter color-interpolation-filters="sRGB" x="-48.988" y="-30.576" width="50.988" height="32.576" id="filter_3">
      <feFlood flood-opacity="0" result="BackgroundImageFix_1" />
      <feColorMatrix type="matrix" values="0 0 0 0 0 0 0 0 0 0 0 0 0 0 0 0 0 0 1 0" in="SourceAlpha" />
      <feOffset dx="0" dy="4" />
      <feGaussianBlur stdDeviation="2" />
      <feColorMatrix type="matrix" values="0 0 0 0 0 0 0 0 0 0 0 0 0 0 0 0 0 0 0.251 0" />
      <feBlend mode="normal" in2="BackgroundImageFix_1" result="Shadow_2" />
      <feBlend mode="normal" in="SourceGraphic" in2="Shadow_2" result="Shape_3" />
    </filter>
  </defs>
  <g>
    <g transform="translate(-0 0.31)">
      <g>
        <g>
          <path d="M9.53674e-07 30.8001C9.53674e-07 22.2948 3.02413 15.0352 9.07239 9.02112C15.1207 3.00704 22.4215 0 30.975 0C30.975 0 146.025 0 146.025 0C154.58 0 161.88 3.00704 167.928 9.02112C173.977 15.0352 177 22.2948 177 30.8001C177 30.8001 177 145.2 177 145.2C177 153.706 173.977 160.964 167.928 166.979C161.88 172.994 154.58 176 146.025 176C146.025 176 30.975 176 30.975 176C22.4215 176 15.1207 172.994 9.07239 166.979C3.02413 160.964 9.53674e-07 153.706 9.53674e-07 145.2C9.53674e-07 145.2 9.53674e-07 61.6001 9.53674e-07 61.6001C9.53674e-07 61.6001 9.53674e-07 30.8001 9.53674e-07 30.8001Z" fill="url(#gradient_1)" fill-rule="evenodd" filter="url(#filter_2)" />
          <g transform="translate(23.675 39.467)">
            <g>
              <g>
                <path d="M0 69.668L0 0L54.9877 0L54.9877 52.9476" fill="none" stroke-width="6.2" stroke="#F7F4FF" stroke-linecap="round" stroke-linejoin="round" transform="translate(0 11.555)" />
                <path d="M0 11.5554C0 11.5554 0 0 0 0C0 0 34.0399 0 34.0399 0C34.0399 0 34.0399 11.5554 34.0399 11.5554C34.0399 11.5554 0 11.5554 0 11.5554Z" fill="none" stroke-width="6.2" stroke="#F7F4FF" stroke-linecap="round" stroke-linejoin="round" transform="translate(10.475 0)" />
                <path d="M0 0L7.85538 0" fill="none" stroke-width="6.2" stroke="#F7F4FF" stroke-linecap="round" stroke-linejoin="round" transform="translate(18.329 27.641)" />
                <path d="M0 0L7.85539 0" fill="none" stroke-width="6.2" stroke="#F7F4FF" stroke-linecap="round" stroke-linejoin="round" transform="translate(36.659 27.641)" />
                <path d="M0 0L7.85538 0" fill="none" stroke-width="6.2" stroke="#F7F4FF" stroke-linecap="round" stroke-linejoin="round" transform="translate(18.329 41.993)" />
                <path d="M0 0L7.85539 0" fill="none" stroke-width="6.2" stroke="#F7F4FF" stroke-linecap="round" stroke-linejoin="round" transform="translate(36.659 41.993)" />
                <path d="M0 17.3331L0 0L17.0199 0L17.0199 17.3331" fill="none" stroke-width="6.2" stroke="#F7F4FF" stroke-linecap="round" stroke-linejoin="round" transform="translate(14.401 60)" />
                <path d="M0 0L27 0" fill="none" stroke-width="6.2" stroke="#F7F4FF" stroke-linecap="round" stroke-linejoin="round" transform="matrix(-1 0 0 1 99.825 27)" />
                <path d="M0 0L12.375 9.61149L0 19.223" fill="none" stroke-width="6.2" stroke="#F7F4FF" stroke-linecap="round" stroke-linejoin="round" transform="matrix(-1 0 0 1 84.294 18)" />
                <g transform="matrix(-1 0 0 1 132.319 58.123)">
                  <path d="M50.9879 0C50.9879 0 21.697 0 21.697 0C18.4425 0 15.7304 1.62882 13.9946 4.51057C13.9946 4.51057 9.76375 11.2764 9.76375 11.2764C9.76375 11.2764 5.42433 11.2764 5.42433 11.2764C2.38679 11.2764 0 14.0329 0 17.5412C0 17.5412 0 26.3116 0 26.3116C0 29.8199 2.38679 32.5763 5.42433 32.5763C5.42433 32.5763 9.76375 32.5763 9.76375 32.5763" fill="none" stroke-width="6.2" stroke="#F7F4FF" stroke-linecap="round" stroke-linejoin="round" filter="url(#filter_3)" transform="scale(1 1)" />
                  <path d="M0 0C0 0 15.9616 11.1311 15.9616 11.1311C15.9616 11.1311 26.6025 11.1311 26.6025 11.1311C34.0512 11.1311 39.9038 13.8521 39.9038 17.3152C39.9038 17.3152 39.9038 25.9726 39.9038 25.9726C39.9038 29.4357 34.0512 32.1568 26.6025 32.1568C26.6025 32.1568 15.9616 32.1568 15.9616 32.1568" fill="none" stroke-width="6.2" stroke="#F7F4FF" stroke-linecap="round" stroke-linejoin="round" transform="matrix(1 0 0 1 52.096 0)" />
                  <path d="M0 0L54.063 0" fill="none" stroke-width="6.2" stroke="#F7F4FF" stroke-linecap="round" stroke-linejoin="round" transform="matrix(1 0 0 1 9.547 31.681)" />
                  <path d="M0 8.16618C0 3.65613 4.03413 0 9.01049 0C13.9868 0 18.021 3.65613 18.021 8.16618C18.021 12.6763 13.9868 16.3324 9.01049 16.3324C4.03413 16.3324 0 12.6763 0 8.16618Z" fill="none" stroke-width="6.2" stroke="#F7F4FF" stroke-linecap="round" stroke-linejoin="round" transform="matrix(1 0 0 1 10.834 24.589)" />
                  <path d="M0 8.16615C0 3.65612 4.03411 0 9.01047 0C13.9868 0 18.0209 3.65612 18.0209 8.16615C18.0209 12.6762 13.9868 16.3324 9.01047 16.3324C4.03411 16.3324 0 12.6762 0 8.16615Z" fill="none" stroke-width="6.2" stroke="#F7F4FF" stroke-linecap="round" stroke-linejoin="round" transform="translate(62.072 24.768)" />
                </g>
              </g>
            </g>
          </g>
        </g>
      </g>
    </g>
  </g>
</svg>