<?xml version="1.0" encoding="utf-8"?>
<svg width="44" height="44" viewBox="0 0 44 44" fill="none" xmlns="http://www.w3.org/2000/svg">
  <g>
    <path d="M0 22C0 9.84974 9.84974 0 22 0C34.1503 0 44 9.84974 44 22C44 34.1503 34.1503 44 22 44C9.84974 44 0 34.1503 0 22Z" fill="#DEDBFF" fill-rule="evenodd" />
    <path d="M5.52 0C2.07 0 0 2.06 0 5.52C0 5.52 0 13.47 0 13.47C0 16.94 2.07 19 5.52 19C5.52 19 13.47 19 13.47 19C16.93 19 18.99 16.94 18.99 13.48C18.99 13.48 18.99 5.52 18.99 5.52C19 2.06 16.93 0 13.48 0C13.48 0 5.52 0 5.52 0Z" fill="#9A93FA" fill-opacity="0.4" transform="translate(12 13)" />
    <path d="M6.61714 1.36504C4.82714 -0.434958 3.07714 -0.474958 1.23714 1.36504C1.23714 1.36504 0.107143 2.48504 0.107143 2.48504C0.00714302 2.58504 -0.0228577 2.72504 0.0171432 2.85504C0.717144 5.30504 2.67714 7.26504 5.12714 7.96504C5.15714 7.97504 5.20714 7.97504 5.23714 7.97504C5.33714 7.97504 5.43714 7.93504 5.50714 7.86504C5.50714 7.86504 6.61714 6.74504 6.61714 6.74504C7.52714 5.83504 7.97714 4.96504 7.97714 4.07504C7.97714 3.17504 7.52714 2.28504 6.61714 1.36504Z" fill="#9A93FA" transform="translate(24.403 11.615)" />
    <path d="M11.1736 5.08C10.9036 4.95 10.6436 4.82 10.4036 4.67C10.2036 4.55 10.0036 4.42 9.81358 4.28C9.65358 4.18 9.47358 4.03 9.29358 3.88C9.27358 3.87 9.21358 3.82 9.13358 3.74C8.82358 3.49 8.49358 3.15 8.18358 2.78C8.16358 2.76 8.10358 2.7 8.05358 2.61C7.95358 2.5 7.80358 2.31 7.67358 2.1C7.56358 1.96 7.43358 1.76 7.31358 1.55C7.16358 1.3 7.03358 1.05 6.91358 0.789999C6.78358 0.51 6.68358 0.25 6.59358 0C6.59358 0 1.21358 5.38 1.21358 5.38C0.863577 5.73 0.523577 6.39 0.453577 6.88C0.453577 6.88 0.0235767 9.86 0.0235767 9.86C-0.0664234 10.49 0.103577 11.08 0.493576 11.47C0.823576 11.8 1.27358 11.97 1.77358 11.97C1.88358 11.97 1.99358 11.96 2.10358 11.95C2.10358 11.95 5.07358 11.53 5.07358 11.53C5.56358 11.46 6.22358 11.13 6.57358 10.77C6.57358 10.77 11.9536 5.39 11.9536 5.39C11.7036 5.31 11.4536 5.2 11.1736 5.08Z" fill="#9A93FA" transform="translate(16.687 15.34)" />
  </g>
</svg>