<?xml version="1.0" encoding="utf-8"?>
<svg width="86" height="87" viewBox="0 0 86 87" fill="none" xmlns="http://www.w3.org/2000/svg">
  <defs>
    <clipPath id="clip_path_1">
      <rect width="86" height="87" />
    </clipPath>
  </defs>
  <g>
    <g clip-path="url(#clip_path_1)">
      <g transform="translate(-0.001 0.939)">
        <path d="M4.76837e-07 28C4.76837e-07 28 4.76837e-07 14 4.76837e-07 14C4.76837e-07 10.134 1.36683 6.83418 4.1005 4.1005C6.83418 1.36683 10.134 4.76837e-07 14 4.76837e-07C14 4.76837e-07 71.9395 4.76837e-07 71.9395 4.76837e-07C75.8055 4.76837e-07 79.1053 1.36683 81.839 4.1005C84.5727 6.83418 85.9395 10.134 85.9395 14C85.9395 14 85.9395 71.9395 85.9395 71.9395C85.9395 75.8055 84.5727 79.1053 81.839 81.839C79.1053 84.5727 75.8055 85.9395 71.9395 85.9395C71.9395 85.9395 14 85.9395 14 85.9395C10.134 85.9395 6.83418 84.5727 4.1005 81.839C1.36683 79.1053 4.76837e-07 75.8055 4.76837e-07 71.9395C4.76837e-07 71.9395 4.76837e-07 28 4.76837e-07 28Z" fill="#DCD9FC" fill-rule="evenodd" />
        <path d="M0 32.7099C0 14.6447 14.6447 0 32.7099 0C50.7751 0 65.4198 14.6447 65.4198 32.7099C65.4198 50.7751 50.7751 65.4198 32.7099 65.4198C14.6447 65.4198 0 50.7751 0 32.7099Z" fill="#ABA5FA" fill-rule="evenodd" transform="translate(10.26 10.26)" />
        <path d="M20.1036 0.0341759C15.064 -0.132225 11.0267 0.311575 8.93851 1.31008C5.45811 2.97418 2.11691 7.16237 1.08671 11.2119C0.669007 12.876 -0.0269918 23.8041 0.000808716 28.547C0.000808716 31.8476 0.223509 32.1527 2.56241 32.1527C2.56241 32.1527 4.42791 32.1527 4.42791 32.1527C4.42791 32.1527 5.29101 33.484 5.29101 33.484C5.87571 34.3716 6.65531 35.065 7.65771 35.6197C10.804 37.3393 14.5628 36.4241 16.9016 33.3176C16.9016 33.3176 17.9597 31.9308 17.9597 31.9308C17.9597 31.9308 28.4844 31.8753 28.4844 31.8753C28.4844 31.8753 39.0091 31.8476 39.0091 31.8476C39.0091 31.8476 39.8723 33.1789 39.8723 33.1789C40.7632 34.538 41.2366 34.9263 42.9907 35.7861C44.5221 36.5073 45.8029 36.6459 47.3064 36.1744C49.2554 35.6197 50.8146 34.538 51.7892 33.0957C52.5966 31.9031 52.6245 31.8753 54.1837 31.8753C57.6919 31.8753 58.1374 31.071 57.9703 25.3573C57.859 22.0012 57.7754 21.2801 57.2186 20.1429C55.6872 17.0365 52.5688 14.7344 48.8935 14.041C47.2229 13.7359 47.1672 13.7081 46.6103 12.4045C45.9142 10.7958 43.297 7.30108 41.2366 5.24858C39.6217 3.63988 37.0044 1.94798 34.9162 1.17138C33.4405 0.616674 31.8474 0.145075 30.4704 0.145075C27.7012 0.145075 27.4101 0.145075 25.1507 0.145075C25.1507 0.145075 23.222 0.145075 23.222 0.145075C23.222 0.145075 20.1036 0.0341759 20.1036 0.0341759ZM23.222 4.41648C23.222 4.41648 18.9899 4.41648 18.9899 4.41648C12.0847 4.41648 10.1636 4.94348 7.93611 7.32878C6.46041 8.90978 5.51381 10.99 5.26321 13.0979C5.26321 13.0979 5.06831 14.7066 5.06831 14.7066C5.06831 14.7066 3.95451 14.6234 3.95451 14.6234C3.95451 14.6234 2.84081 14.568 2.84081 14.568C2.84081 14.568 2.98001 13.2366 2.98001 13.2366C3.17491 11.6002 5.04041 7.93897 6.57181 6.24708C7.26791 5.44278 8.40941 4.61068 9.69021 3.97268C11.9455 2.86328 13.9502 2.58588 20.1036 2.50268C20.1036 2.50268 23.222 2.47498 23.222 2.47498C23.222 2.47498 23.222 3.44578 23.222 3.44578C23.222 3.44578 23.222 4.41648 23.222 4.41648ZM33.1064 3.05737C35.3617 3.44567 37.2272 4.49968 39.204 6.49668C41.7656 9.07618 44.6613 13.1257 44.6613 14.1242C44.6613 14.3183 44.2158 14.4015 43.4919 14.3461C42.3782 14.2629 42.2668 14.1796 41.877 13.1257C40.8189 10.2411 37.8676 6.82958 35.1946 5.38728C33.7189 4.58288 33.4962 4.55518 29.5703 4.47198C25.533 4.36098 25.4495 4.36098 25.4495 3.75078C25.4495 3.41798 25.5887 3.00198 25.7558 2.83558C26.0899 2.50268 30.6283 2.64138 33.1064 3.05737ZM22.4146 13.4862C22.4146 13.4862 17.1801 13.6527 17.1801 13.6527C14.3122 13.7636 10.9153 13.8468 9.66241 13.8468C6.96161 13.8468 6.93381 13.7913 8.07531 11.3506C9.02201 9.32578 9.88511 8.21638 11.1659 7.43978C12.5581 6.57987 13.7553 6.41348 18.3495 6.46898C18.3495 6.46898 22.2475 6.49668 22.2475 6.49668C22.2475 6.49668 22.331 9.99148 22.331 9.99148C22.331 9.99148 22.4146 13.4862 22.4146 13.4862ZM33.2734 6.91278C35.5566 8.07768 39.3711 11.933 39.3711 13.0425C39.3711 13.5417 39.037 13.5694 32.5217 13.5694C32.5217 13.5694 25.6722 13.5694 25.6722 13.5694C25.6722 13.5694 25.8393 12.7096 25.8393 12.7096C25.9228 12.2381 26.0063 10.7126 26.0063 9.35357C26.0063 7.07918 26.062 6.88498 26.6467 6.63537C27.4542 6.27477 32.4381 6.49668 33.2734 6.91278ZM23.222 29.6564C23.222 29.6564 21.4401 29.6564 21.4401 29.6564C19.0177 29.6564 18.7671 29.5177 18.7671 28.2974C18.7393 26.1617 16.4004 22.8611 14.173 21.8626C12.7808 21.2246 10.0243 21.1692 8.60431 21.7794C7.18431 22.3618 4.37221 25.0522 4.03811 26.1617C3.89881 26.6332 3.70391 27.604 3.59261 28.3251C3.48121 29.2681 3.28631 29.6564 2.98001 29.6564C2.59021 29.6564 2.56241 29.3236 2.72941 27.077C2.81301 25.6902 2.98001 22.6392 3.06351 20.3648C3.06351 20.3648 3.25851 16.1766 3.25851 16.1766C3.25851 16.1766 13.2263 16.1212 13.2263 16.1212C13.2263 16.1212 23.222 16.038 23.222 16.038C23.222 16.038 23.222 22.8333 23.222 22.8333C23.222 22.8333 23.222 29.6564 23.222 29.6564ZM47.6962 16.3431C48.8378 16.4817 50.4527 16.9255 51.288 17.3138C51.288 17.3138 52.8472 18.035 52.8472 18.035C52.8472 18.035 51.9005 18.7838 51.9005 18.7838C51.1766 19.394 50.9817 19.7546 51.0095 20.5035C51.0374 21.7516 52.8472 24.3033 54.3507 25.1909C54.3507 25.1909 55.5201 25.912 55.5201 25.912C55.5201 25.912 55.4645 27.5762 55.4645 27.5762C55.4645 27.5762 55.3809 29.2404 55.3809 29.2404C55.3809 29.2404 54.3507 29.3236 54.3507 29.3236C53.3205 29.4068 53.2927 29.3791 53.2927 28.4915C53.237 25.3573 50.5362 22.3896 46.8331 21.4188C45.1903 21.0027 44.9676 21.0027 43.464 21.4465C42.1554 21.8348 41.4872 22.2509 40.2064 23.499C38.6472 25.0245 38.1738 25.9675 37.5891 28.6025C37.4221 29.3236 37.3942 29.3236 34.3036 29.5177C32.5773 29.601 29.9044 29.6564 28.373 29.601C28.373 29.601 25.5887 29.5177 25.5887 29.5177C25.5887 29.5177 25.5052 23.0275 25.5052 23.0275C25.4495 18.0072 25.533 16.4817 25.7836 16.2876C26.2848 15.9825 45.1903 16.038 47.6962 16.3431ZM55.2417 21.3356C55.4088 21.7516 55.5201 22.4173 55.4645 22.7779C55.4645 22.7779 55.3809 23.4158 55.3809 23.4158C55.3809 23.4158 54.6292 22.6669 54.6292 22.6669C53.599 21.6684 53.5711 20.032 54.5456 20.3925C54.7405 20.4758 55.0468 20.8918 55.2417 21.3356ZM48.448 24.7194C49.9515 25.7456 50.7868 27.2989 50.7868 29.1294C50.7868 30.4885 50.6476 30.9046 49.868 31.9308C48.2252 34.0942 45.8586 34.6767 43.5476 33.4563C42.6287 32.9848 42.0997 32.4023 41.4036 31.1819C39.9836 28.6025 40.2064 27.1047 42.406 25.1354C43.4362 24.1924 43.826 24.026 45.3574 23.7486C46.1648 23.6099 47.3899 23.9982 48.448 24.7194ZM12.391 24.1092C13.6718 24.4698 15.5651 26.439 15.9828 27.909C16.8459 30.7936 14.2008 34.0942 11.0267 34.0942C8.10321 34.0942 6.23771 32.0417 6.23771 28.9076C6.23771 27.3543 6.87811 26.1617 8.27021 25.08C9.80161 23.9428 10.8596 23.6931 12.391 24.1092Z" fill="#443DA8" transform="translate(13.97 26.25)" />
        <path d="M0.35746 0.178879C-0.171539 0.373077 -0.0880394 1.84308 0.44096 2.03718C1.10916 2.28678 3.50376 2.23138 4.28336 1.92628C5.06296 1.64888 5.22996 0.87228 4.67316 0.317577C4.33906 -0.0153198 1.05356 -0.126221 0.35746 0.178879Z" fill="#443DA8" transform="translate(40.816 43.717)" />
        <path d="M1.8098 0.371658C0.668201 0.870956 0 1.95266 0 3.31166C0 5.55836 1.253 7.16706 3.3969 7.61086C4.4271 7.86046 5.9863 7.05606 6.6824 5.94666C7.7683 4.19926 7.0722 1.06506 5.4294 0.316158C4.4828 -0.127541 2.8679 -0.0998421 1.8098 0.371658ZM4.6777 3.08986C5.4016 4.61526 4.0094 6.00216 2.7565 5.00366C1.5592 4.06056 2.311 2.06356 3.7588 2.25776C4.0651 2.31316 4.4828 2.67376 4.6777 3.08986Z" fill="#443DA8" transform="translate(56.126 51.485)" />
        <path d="M2.51197 0.22855C-0.216635 1.17155 -0.857035 4.47215 1.25907 6.58015C3.40297 8.74355 7.24537 6.71875 7.24537 3.41815C7.24537 0.921947 4.96217 -0.60355 2.51197 0.22855ZM4.62807 2.91895C5.07357 3.75105 4.68377 4.77725 3.82057 5.11005C3.18017 5.35975 3.01317 5.30425 2.59547 4.80495C1.95507 4.00065 1.95507 3.27955 2.62337 2.61385C3.26377 1.97595 4.21037 2.11455 4.62807 2.91895Z" fill="#443DA8" transform="translate(21.455 51.656)" />
      </g>
    </g>
  </g>
</svg>