<?xml version="1.0" encoding="utf-8"?>
<svg width="25" height="24" viewBox="0 0 25 24" fill="none" xmlns="http://www.w3.org/2000/svg">
  <g>
    <path d="M14.2592 4.52C13.6906 5.0791 13.3623 5.8845 13.443 6.7467C13.5724 8.2693 14.9404 9.3 16.3499 9.3C16.3499 9.3 17.5 9.3 17.5 9.3C17.5 9.3 17.5 9.74 17.5 9.74C17.5 11.3958 16.1458 12.75 14.49 12.75C14.49 12.75 3.01 12.75 3.01 12.75C1.35422 12.75 0 11.3958 0 9.74C0 9.74 0 3.01 0 3.01C0 1.35422 1.35422 0 3.01 0C3.01 0 14.49 0 14.49 0C16.1458 0 17.5 1.35422 17.5 3.01C17.5 3.01 17.5 3.7 17.5 3.7C17.5 3.7 16.2299 3.7 16.2299 3.7C15.4724 3.7 14.7709 3.9982 14.2592 4.52Z" fill="#9A93FA" fill-opacity="0.4" stroke-width="1.5" stroke="#9A93FA" stroke-opacity="0.4" transform="translate(4.05 8.5)" />
    <path d="M12.3499 5.70079C12.3499 5.70079 3.76 5.70079 3.76 5.70079C1.69 5.70079 0 7.3908 0 9.46077C0 9.46077 0 5.79082 0 5.79082C0 4.60082 0.73 3.54078 1.84 3.12078C1.84 3.12078 9.77995 0.120778 9.77995 0.120778C11.0199 -0.339222 12.3499 0.570798 12.3499 1.90081C12.3499 1.90081 12.3499 5.70079 12.3499 5.70079Z" fill="#9A93FA" transform="translate(3.3 2.049)" />
    <path d="M5.12912 3.08C5.12912 3.63 4.68912 4.08 4.12912 4.1C4.12912 4.1 2.16912 4.1 2.16912 4.1C1.08912 4.1 0.099123 3.31 0.00912476 2.23C-0.0508766 1.6 0.189123 1.01 0.609123 0.6C0.979124 0.22 1.48912 0 2.04912 0C2.04912 0 4.12912 0 4.12912 0C4.68912 0.0199995 5.12912 0.47 5.12912 1.02C5.12912 1.02 5.12912 3.08 5.12912 3.08Z" fill="#9A93FA" transform="translate(18.231 12.95)" />
    <path d="M0.75 1.5C0.34 1.5 0 1.16 0 0.75C0 0.34 0.34 0 0.75 0C0.75 0 7.74995 0 7.74995 0C8.15995 0 8.49995 0.34 8.49995 0.75C8.49995 1.16 8.15995 1.5 7.74995 1.5C7.74995 1.5 0.75 1.5 0.75 1.5Z" fill="#9A93FA" transform="translate(7.05 11.25)" />
  </g>
</svg>