<?xml version="1.0" encoding="utf-8"?>
<svg width="225" height="238" viewBox="0 0 225 238" fill="none" xmlns="http://www.w3.org/2000/svg">
  <g>
    <path d="M0 110.447C0 49.4488 49.4488 0 110.447 0C171.445 0 220.894 49.4488 220.894 110.447C220.894 171.445 171.445 220.894 110.447 220.894C49.4488 220.894 0 171.445 0 110.447Z" fill="none" stroke-width="3" stroke="#D0CDFA" stroke-dasharray="3 6" transform="translate(1.881 14.739)" />
    <path d="M0 26.1476C0 11.7067 11.7067 0 26.1476 0C40.5885 0 52.2952 11.7067 52.2952 26.1476C52.2952 40.5885 40.5885 52.2952 26.1476 52.2952C11.7067 52.2952 0 40.5885 0 26.1476Z" fill="#9A93FA" fill-rule="evenodd" transform="translate(156.823 0.329)" />
    <path d="M0 0L0 7.2187" fill="none" stroke-width="2" stroke="#FCFCFC" stroke-linecap="round" stroke-linejoin="round" transform="translate(182.971 20.633)" />
    <path d="M24.984 18.4525C24.984 19.9925 24.159 21.4226 22.825 22.2063C22.825 22.2063 14.658 26.9226 14.658 26.9226C13.324 27.6926 11.674 27.6926 10.326 26.9226C10.326 26.9226 2.159 22.2063 2.159 22.2063C0.824997 21.4363 0 20.0063 0 18.4525C0 18.4525 0 9.0476 0 9.0476C0 7.5076 0.824997 6.0775 2.159 5.2938C2.159 5.2938 10.326 0.5775 10.326 0.5775C11.66 -0.1925 13.31 -0.1925 14.658 0.5775C14.658 0.5775 22.825 5.2938 22.825 5.2938C24.159 6.0775 24.984 7.4938 24.984 9.0476C24.984 9.0476 24.984 18.4525 24.984 18.4525Z" fill="none" stroke-width="2" stroke="#FCFCFC" stroke-linecap="round" stroke-linejoin="round" transform="translate(170.472 12.727)" />
    <path d="M0 0L0 0.137501" fill="none" stroke-width="1.5" stroke="#FCFCFC" stroke-linecap="round" stroke-linejoin="round" transform="translate(182.971 32.252)" />
    <path d="M10.2897 0C10.2897 0 12.202 4.596 12.202 4.596C13.017 6.5549 14.5724 8.1129 16.5299 8.9313C16.5299 8.9313 21.0919 10.8383 21.0919 10.8383C21.0919 10.8383 16.5767 12.7259 16.5767 12.7259C14.5915 13.5558 13.0211 15.1458 12.2159 17.1412C12.2159 17.1412 10.2897 21.9149 10.2897 21.9149C10.2897 21.9149 8.3188 17.0305 8.3188 17.0305C7.5402 15.1007 6.0446 13.5475 4.1456 12.6964C4.1456 12.6964 0 10.8383 0 10.8383C0 10.8383 4.1914 8.9598 4.1914 8.9598C6.0631 8.1209 7.544 6.5994 8.33179 4.7058C8.33179 4.7058 10.2897 0 10.2897 0Z" fill="#B0ABF7" transform="translate(76.537 30.71)" />
    <path d="M10.29 0C10.29 0 12.202 4.59599 12.202 4.59599C13.017 6.55499 14.572 8.11299 16.53 8.931C16.53 8.931 21.092 10.838 21.092 10.838C21.092 10.838 16.577 12.726 16.577 12.726C14.592 13.556 13.021 15.146 12.216 17.141C12.216 17.141 10.29 21.915 10.29 21.915C10.29 21.915 8.319 17.031 8.319 17.031C7.54001 15.101 6.045 13.547 4.146 12.696C4.146 12.696 0 10.838 0 10.838C0 10.838 4.192 8.95999 4.192 8.95999C6.063 8.121 7.54401 6.599 8.332 4.70599C8.332 4.70599 10.29 0 10.29 0Z" fill="#B0ABF7" transform="translate(179.392 172.186)" />
    <path d="M10.2897 0C10.2897 0 12.202 4.59599 12.202 4.59599C13.017 6.554 14.5724 8.112 16.5299 8.931C16.5299 8.931 21.0919 10.838 21.0919 10.838C21.0919 10.838 16.5767 12.725 16.5767 12.725C14.5915 13.555 13.0211 15.145 12.216 17.141C12.216 17.141 10.2897 21.914 10.2897 21.914C10.2897 21.914 8.3189 17.03 8.3189 17.03C7.5402 15.1 6.0446 13.547 4.1456 12.696C4.1456 12.696 0 10.838 0 10.838C0 10.838 4.1915 8.959 4.1915 8.959C6.0631 8.12 7.544 6.599 8.3318 4.705C8.3318 4.705 10.2897 0 10.2897 0Z" fill="#B0ABF7" transform="translate(41.328 185.64)" />
    <path d="M0 2.10498C0 0.942429 0.923294 0 2.06223 0C3.20116 0 4.12444 0.942429 4.12444 2.10498C4.12444 3.26752 3.20116 4.20996 2.06223 4.20996C0.923294 4.20996 0 3.26752 0 2.10498Z" fill="#FCFCFC" fill-rule="evenodd" transform="translate(168.857 118.622)" />
    <path d="M79.4 0C88.313 0.447006 96.295 1.19099 102.803 2.15401C102.741 2.562 103.022 2.944 103.431 3.007C108.677 3.81 112.873 4.752 115.741 5.78C117.179 6.295 118.239 6.817 118.925 7.32401C119.631 7.84601 119.797 8.241 119.797 8.48601C119.797 8.731 119.631 9.12601 118.925 9.64799C118.239 10.155 117.179 10.677 115.741 11.192C112.873 12.22 108.677 13.162 103.431 13.966C103.022 14.028 102.741 14.41 102.803 14.819C96.295 15.781 88.313 16.525 79.4 16.972C79.38 16.559 79.029 16.24 78.615 16.26C72.722 16.543 66.432 16.696 59.899 16.696C53.365 16.696 47.0749 16.543 41.1822 16.26C40.7687 16.24 40.4174 16.559 40.3971 16.972C31.4843 16.525 23.5023 15.781 16.9944 14.819C17.0559 14.41 16.775 14.028 16.3662 13.966C11.1201 13.162 6.9245 12.22 4.0567 11.192C2.6182 10.677 1.5584 10.155 0.8722 9.64799C0.166599 9.12601 0 8.731 0 8.48601C0 8.241 0.166599 7.84601 0.8722 7.32401C1.5584 6.817 2.6182 6.295 4.0567 5.78C6.9245 4.752 11.1201 3.81 16.3662 3.007C16.775 2.944 17.0559 2.562 16.9944 2.15401C23.5023 1.19099 31.4843 0.447006 40.3971 0C40.4174 0.412994 40.7687 0.731995 41.1822 0.712006C47.0749 0.429001 53.365 0.277008 59.899 0.277008C66.432 0.277008 72.722 0.429001 78.615 0.712006C79.029 0.731995 79.38 0.412994 79.4 0Z" fill="none" stroke-width="1.5" stroke="#C2BEFA" stroke-linecap="round" stroke-linejoin="round" stroke-dasharray="60 40" transform="translate(51.358 159.543)" />
    <path d="M89.5274 0C99.6984 0.554001 108.793 1.481 116.176 2.681C116.108 3.089 116.384 3.474 116.792 3.543C122.646 4.52301 127.328 5.673 130.53 6.92601C132.134 7.554 133.323 8.192 134.097 8.817C134.882 9.45001 135.13 9.97701 135.13 10.381C135.13 10.786 134.882 11.312 134.097 11.945C133.323 12.571 132.134 13.208 130.53 13.836C127.328 15.089 122.646 16.239 116.792 17.22C116.384 17.288 116.108 17.673 116.176 18.081C108.793 19.281 99.6984 20.208 89.5274 20.762C89.5054 20.349 89.1534 20.031 88.7394 20.053C82.0754 20.402 74.9584 20.591 67.5654 20.591C60.1724 20.591 53.0548 20.402 46.3905 20.053C45.9771 20.031 45.6244 20.349 45.6024 20.762C35.4315 20.208 26.3368 19.281 18.9541 18.081C19.0214 17.673 18.7459 17.288 18.338 17.22C12.4837 16.239 7.8018 15.089 4.6002 13.836C2.9957 13.208 1.8069 12.571 1.0324 11.945C0.2477 11.312 0 10.786 0 10.381C0 9.97701 0.2477 9.45001 1.0324 8.817C1.8069 8.192 2.9957 7.554 4.6002 6.92601C7.8018 5.673 12.4837 4.52301 18.338 3.543C18.7459 3.474 19.0214 3.089 18.9541 2.681C26.3368 1.481 35.4315 0.554001 45.6024 0C45.6244 0.414001 45.9771 0.731003 46.3905 0.709C53.0548 0.360001 60.1724 0.172012 67.5654 0.172012C74.9584 0.172012 82.0754 0.360001 88.7394 0.709C89.1534 0.731003 89.5054 0.414001 89.5274 0Z" fill="none" stroke-width="1.5" stroke="#C9C6F7" stroke-linecap="round" stroke-linejoin="round" stroke-dasharray="60 40" transform="translate(44.413 159.648)" />
    <path d="M0 8.20932C0 3.67543 22.0465 0 49.2423 0C76.4381 0 98.4846 3.67543 98.4846 8.20932C98.4846 12.7432 76.4381 16.4186 49.2423 16.4186C22.0465 16.4186 0 12.7432 0 8.20932Z" fill="#9A93FA" fill-rule="evenodd" transform="translate(62.736 158.07)" />
    <path d="M29.7764 13.726C29.7764 25.634 21.2744 60.414 11.9234 78.126C6.32644 78.905 -0.419563 76.918 0.0204391 75.575C11.9224 39.231 -0.829559 22.653 11.9224 5.01169C20.5234 -6.88601 29.7764 5.01179 29.7764 13.726Z" fill="#9A93FA" transform="translate(119.298 87.469)" />
    <path d="M0 14.1399C0 26.0479 8.5014 60.8279 17.8532 78.5399C23.4501 79.3189 30.1954 77.3319 29.7554 75.9889C17.8533 39.6449 30.6064 23.0669 17.8534 5.42561C8.5749 -7.40959 0 5.4257 0 14.1399Z" fill="#9A93FA" transform="translate(74.877 87.055)" />
  </g>
</svg>