<?xml version="1.0" encoding="utf-8"?>
<svg width="24" height="25" viewBox="0 0 24 25" fill="none" xmlns="http://www.w3.org/2000/svg">
  <g>
    <path d="M7.79199 0.471665C7.79199 0.471665 7.79239 0.471375 7.79239 0.471375C8.57669 -0.157595 9.91629 -0.159795 10.7133 0.480825C10.7133 0.480825 10.7149 0.482065 10.7149 0.482065C10.7149 0.482065 17.6428 6.02042 17.6428 6.02042C17.6431 6.02066 17.6434 6.0209 17.6437 6.02114C17.8998 6.22768 18.1495 6.58661 18.3162 7.02361C18.4829 7.46041 18.5364 7.89641 18.4831 8.22441C18.4831 8.2248 18.483 8.22511 18.483 8.22541C18.483 8.22541 17.1538 16.1804 17.1538 16.1804C17.1538 16.1806 17.1537 16.1808 17.1537 16.181C16.9746 17.2315 15.9161 18.1263 14.8532 18.1263C14.8532 18.1263 3.65316 18.1263 3.65316 18.1263C2.57956 18.1263 1.5321 17.2409 1.35278 16.1818C1.35274 16.1816 1.35271 16.1814 1.35268 16.1813C1.35268 16.1813 0.0229061 8.22261 0.0229061 8.22261L0.0229261 8.22261C0.0229261 8.22261 0.022126 8.21811 0.022126 8.21811C-0.0343239 7.8926 0.016556 7.45891 0.182646 7.02361C0.348706 6.58831 0.599966 6.22994 0.859846 6.02337C0.859846 6.02337 0.859846 6.02338 0.859846 6.02338L0.861996 6.02166C0.861996 6.02166 7.79199 0.471665 7.79199 0.471665Z" fill="#9A93FA" fill-opacity="0.4" stroke-width="1.5" stroke="#9A93FA" stroke-opacity="0.4" transform="translate(2.747 3.434)" />
    <path d="M2.5 5C3.8807 5 5 3.8807 5 2.5C5 1.1193 3.8807 0 2.5 0C1.1193 0 0 1.1193 0 2.5C0 3.8807 1.1193 5 2.5 5Z" fill="#9A93FA" transform="translate(9.5 11)" />
  </g>
</svg>