<?xml version="1.0" encoding="utf-8"?>
<svg width="24" height="24" viewBox="0 0 24 24" fill="none" xmlns="http://www.w3.org/2000/svg">
  <g>
    <path d="M10 0C4.47715 0 0 4.47715 0 10C0 15.5228 4.47715 20 10 20C15.5228 20 20 15.5228 20 10C20 4.47715 15.5228 0 10 0Z" fill="#443DA8" fill-opacity="0.4" transform="translate(2 2)" />
    <path d="M0.75 0C0.34 0 0 0.34 0 0.75C0 0.75 0 5.75 0 5.75C0 6.16 0.34 6.5 0.75 6.5C1.16 6.5 1.5 6.16 1.5 5.75C1.5 5.75 1.5 0.75 1.5 0.75C1.5 0.34 1.16 0 0.75 0Z" fill="#443DA8" transform="translate(11.25 10.25)" />
    <path d="M0.0799999 1.38C0.13 1.5 0.2 1.61 0.29 1.71C0.39 1.8 0.5 1.87 0.62 1.92C0.86 2.02 1.14 2.02 1.38 1.92C1.5 1.87 1.61 1.8 1.71 1.71C1.8 1.61 1.87 1.5 1.92 1.38C1.97 1.26 2 1.13 2 1C2 0.87 1.97 0.74 1.92 0.62C1.87 0.49 1.8 0.39 1.71 0.29C1.61 0.2 1.5 0.13 1.38 0.0799999C1.26 0.0299997 1.13 0 1 0C0.87 0 0.74 0.0299997 0.62 0.0799999C0.5 0.13 0.39 0.2 0.29 0.29C0.2 0.39 0.13 0.49 0.0799999 0.62C0.0299997 0.74 0 0.87 0 1C0 1.13 0.0299997 1.26 0.0799999 1.38Z" fill="#443DA8" transform="translate(11 7)" />
  </g>
</svg>