<?xml version="1.0" encoding="utf-8"?>
<svg width="24" height="24" viewBox="0 0 24 24" fill="none" xmlns="http://www.w3.org/2000/svg">
  <g>
    <path d="M17.5 6.7C16.45 2.08 12.42 0 8.88001 0C8.88001 0 8.88001 0 8.87001 0C5.33998 0 1.29998 2.07 0.249978 6.69C-0.920022 11.85 2.23998 16.22 5.09998 18.97C6.15998 19.99 7.52001 20.5 8.88001 20.5C10.24 20.5 11.6 19.99 12.65 18.97C15.51 16.22 18.67 11.86 17.5 6.7Z" fill="#9A93FA" fill-opacity="0.4" transform="translate(3.12 1.75)" />
    <path d="M3.15002 6.29999C4.88972 6.29999 6.30002 4.88969 6.30002 3.14999C6.30002 1.41031 4.88972 0 3.15002 0C1.41032 0 0 1.41031 0 3.14999C0 4.88969 1.41032 6.29999 3.15002 6.29999Z" fill="#9A93FA" transform="translate(8.85 7.16)" />
  </g>
</svg>