<?xml version="1.0" encoding="utf-8"?>
<svg width="17" height="17" viewBox="0 0 17 17" fill="none" xmlns="http://www.w3.org/2000/svg">
  <g>
    <path d="M2.6908 10.3333C0.350804 10.3333 -0.155856 8.99332 0.0374734 7.35332C0.0374734 7.35332 0.637474 2.35333 0.637474 2.35333C0.790804 1.06 1.01747 0 3.28414 0C3.28414 0 8.08412 0 8.08412 0C10.3508 0 10.5775 1.06 10.7308 2.35333C10.7308 2.35333 11.2308 6.52002 11.2308 6.52002C11.2308 6.52002 11.3308 7.35332 11.3308 7.35332C11.3375 7.40662 11.3441 7.46002 11.3508 7.51332C11.4908 9.08002 10.9441 10.3333 8.67752 10.3333C8.67752 10.3333 2.6908 10.3333 2.6908 10.3333Z" fill="#ABA5FA" fill-opacity="0.4" transform="translate(3.255 5.303)" />
    <path d="M5.83334 5C5.56004 5 5.33334 4.77333 5.33334 4.5C5.33334 4.5 5.33334 2.16667 5.33334 2.16667C5.33334 1.44667 4.88664 1 4.16667 1C4.16667 1 2.16667 1 2.16667 1C1.44667 1 1 1.44667 1 2.16667C1 2.16667 1 4.5 1 4.5C1 4.77333 0.77334 5 0.5 5C0.22667 5 0 4.77333 0 4.5C0 4.5 0 2.16667 0 2.16667C0 0.89333 0.89334 0 2.16667 0C2.16667 0 4.16667 0 4.16667 0C5.44004 0 6.33334 0.89333 6.33334 2.16667C6.33334 2.16667 6.33334 4.5 6.33334 4.5C6.33334 4.77333 6.10664 5 5.83334 5Z" fill="#ABA5FA" transform="translate(5.772 1.803)" />
    <path d="M8.83334 0.9933C8.81334 1 8.79334 1 8.77334 1C8.77334 1 0.5 1 0.5 1C0.22667 1 0 0.7733 0 0.5C0 0.22 0.22667 0 0.5 0C0.5 0 8.71334 0 8.71334 0C8.71334 0 8.81334 0.8333 8.81334 0.8333C8.82004 0.8867 8.82664 0.94 8.83334 0.9933Z" fill="#ABA5FA" transform="translate(5.772 11.823)" />
  </g>
</svg>