<?xml version="1.0" encoding="utf-8"?>
<svg width="66" height="68" viewBox="0 0 66 68" fill="none" xmlns="http://www.w3.org/2000/svg">
  <defs>
    <filter color-interpolation-filters="sRGB" x="-45.602" y="-52.977" width="47.602" height="54.977" id="filter_1">
      <feFlood flood-opacity="0" result="BackgroundImageFix_1" />
      <feColorMatrix type="matrix" values="0 0 0 0 0 0 0 0 0 0 0 0 0 0 0 0 0 0 1 0" in="SourceAlpha" />
      <feOffset dx="0" dy="4" />
      <feGaussianBlur stdDeviation="1.5" />
      <feColorMatrix type="matrix" values="0 0 0 0 0 0 0 0 0 0 0 0 0 0 0 0 0 0 0.298 0" />
      <feBlend mode="normal" in2="BackgroundImageFix_1" result="Shadow_2" />
      <feBlend mode="normal" in="SourceGraphic" in2="Shadow_2" result="Shape_3" />
    </filter>
  </defs>
  <g>
    <g transform="translate(0.818 0.818)">
      <path d="M46.9317 17.9682C44.1159 5.57823 33.3082 0 23.8145 0C23.8145 0 23.8145 0 23.7877 0C14.3209 0 3.48635 5.55133 0.670391 17.9413C-2.46733 31.7795 6.00725 43.4991 13.6773 50.8741C16.52 53.6095 20.1673 54.9772 23.8145 54.9772C27.4618 54.9772 31.1091 53.6095 33.9249 50.8741C41.5949 43.4991 50.0695 31.8063 46.9317 17.9682ZM23.8145 31.4041C19.1482 31.4041 15.3668 27.6227 15.3668 22.9563C15.3668 18.29 19.1482 14.5086 23.8145 14.5086C28.4808 14.5086 32.2623 18.29 32.2623 22.9563C32.2623 27.6227 28.4808 31.4041 23.8145 31.4041Z" fill="#9A93FA" filter="url(#filter_1)" transform="translate(8.367 4.693)" />
    </g>
  </g>
</svg>