<?xml version="1.0" encoding="utf-8"?>
<svg width="45" height="44" viewBox="0 0 45 44" fill="none" xmlns="http://www.w3.org/2000/svg">
  <g>
    <path d="M0 22C0 9.84974 9.84974 0 22 0C34.1503 0 44 9.84974 44 22C44 34.1503 34.1503 44 22 44C9.84974 44 0 34.1503 0 22Z" fill="#DCD9FA" fill-rule="evenodd" transform="translate(0.328 0)" />
    <path d="M5.81 0C2.17 0 0 2.17 0 5.81C0 5.81 0 14.18 0 14.18C0 17.83 2.17 20 5.81 20C5.81 20 14.18 20 14.18 20C17.82 20 19.99 17.83 19.99 14.19C19.99 14.19 19.99 5.81 19.99 5.81C20 2.17 17.83 0 14.19 0C14.19 0 5.81 0 5.81 0Z" fill="#9A93FA" fill-opacity="0.4" transform="translate(12.328 12)" />
    <path d="M0.75 1.5C0.34 1.5 0 1.16 0 0.75C0 0.34 0.34 0 0.75 0C0.75 0 10.75 0 10.75 0C11.16 0 11.5 0.34 11.5 0.75C11.5 1.16 11.16 1.5 10.75 1.5C10.75 1.5 0.75 1.5 0.75 1.5Z" fill="#9A93FA" transform="translate(16.578 16.75)" />
    <path d="M0.75 1.5C0.34 1.5 0 1.16 0 0.75C0 0.34 0.34 0 0.75 0C0.75 0 10.75 0 10.75 0C11.16 0 11.5 0.34 11.5 0.75C11.5 1.16 11.16 1.5 10.75 1.5C10.75 1.5 0.75 1.5 0.75 1.5Z" fill="#9A93FA" transform="translate(16.578 21.25)" />
    <path d="M0.75 1.5C0.34 1.5 0 1.16 0 0.75C0 0.34 0.34 0 0.75 0C0.75 0 10.75 0 10.75 0C11.16 0 11.5 0.34 11.5 0.75C11.5 1.16 11.16 1.5 10.75 1.5C10.75 1.5 0.75 1.5 0.75 1.5Z" fill="#9A93FA" transform="translate(16.578 25.75)" />
  </g>
</svg>