<?xml version="1.0" encoding="utf-8"?>
<svg width="24" height="25" viewBox="0 0 24 25" fill="none" xmlns="http://www.w3.org/2000/svg">
  <g>
    <path d="M17 9.34994C17 10.6199 16.58 11.69 15.83 12.43C15.09 13.18 14.02 13.5999 12.75 13.5999C12.75 13.5999 12.75 15.4099 12.75 15.4099C12.75 16.0899 11.99 16.5 11.43 16.12C11.43 16.12 10.46 15.4799 10.46 15.4799C10.55 15.1699 10.59 14.8299 10.59 14.4699C10.59 14.4699 10.59 10.4 10.59 10.4C10.59 8.36004 9.23 7 7.19 7C7.19 7 0.39999 7 0.39999 7C0.25999 7 0.13 7.01002 0 7.02002C0 7.02002 0 4.25 0 4.25C0 1.7 1.7 0 4.25 0C4.25 0 12.75 0 12.75 0C15.3 0 17 1.7 17 4.25C17 4.25 17 9.34994 17 9.34994Z" fill="#9A93FA" fill-opacity="0.4" transform="translate(5 2.46)" />
    <path d="M13.59 7.46994C13.59 7.82994 13.55 8.16994 13.46 8.47994C13.09 9.94994 11.87 10.87 10.19 10.87C10.19 10.87 7.47 10.87 7.47 10.87C7.47 10.87 4.45 12.88 4.45 12.88C4 13.19 3.39999 12.86 3.39999 12.32C3.39999 12.32 3.39999 10.87 3.39999 10.87C2.37999 10.87 1.53 10.53 0.94 9.94004C0.34 9.34004 0 8.48994 0 7.46994C0 7.46994 0 3.40004 0 3.40004C0 1.50004 1.18 0.19002 3 0.0200205C3.13 0.0100203 3.25999 0 3.39999 0C3.39999 0 10.19 0 10.19 0C12.23 0 13.59 1.36004 13.59 3.40004C13.59 3.40004 13.59 7.46994 13.59 7.46994Z" fill="#9A93FA" transform="translate(2 9.46)" />
  </g>
</svg>