<?xml version="1.0" encoding="utf-8"?>
<svg width="20" height="21" viewBox="0 0 20 21" fill="none" xmlns="http://www.w3.org/2000/svg">
  <g>
    <g transform="translate(0 0.896)">
      <g transform="translate(1.667 1.667)">
        <path d="M14.1667 7.7916C14.1667 8.85 13.8167 9.7417 13.1917 10.3583C12.575 10.9833 11.6833 11.3333 10.625 11.3333C10.625 11.3333 10.625 12.8416 10.625 12.8416C10.625 13.4083 9.99165 13.75 9.52495 13.4333C9.52495 13.4333 8.71665 12.9 8.71665 12.9C8.79165 12.6417 8.82495 12.3583 8.82495 12.0583C8.82495 12.0583 8.82495 8.6667 8.82495 8.6667C8.82495 6.96669 7.69165 5.83333 5.99165 5.83333C5.99165 5.83333 0.33333 5.83333 0.33333 5.83333C0.21666 5.83333 0.10833 5.84168 0 5.85002C0 5.85002 0 3.54167 0 3.54167C0 1.41667 1.41666 0 3.54167 0C3.54167 0 10.625 0 10.625 0C12.7499 0 14.1667 1.41667 14.1667 3.54167C14.1667 3.54167 14.1667 7.7916 14.1667 7.7916Z" fill="none" stroke-width="1.5" stroke="#9A93FA" stroke-linecap="round" stroke-linejoin="round" transform="translate(2.5 0)" />
        <path d="M11.325 6.22499C11.325 6.52499 11.2916 6.80829 11.2167 7.06669C10.9083 8.29169 9.89165 9.05829 8.49165 9.05829C8.49165 9.05829 6.225 9.05829 6.225 9.05829C6.225 9.05829 3.70833 10.7333 3.70833 10.7333C3.33333 10.9917 2.83333 10.7167 2.83333 10.2667C2.83333 10.2667 2.83333 9.05829 2.83333 9.05829C1.98333 9.05829 1.275 8.77499 0.78333 8.28329C0.28333 7.78329 0 7.07499 0 6.22499C0 6.22499 0 2.83339 0 2.83339C0 1.25002 0.98333 0.15835 2.5 0.0166807C2.60833 0.00835037 2.71666 0 2.83333 0C2.83333 0 8.49165 0 8.49165 0C10.1917 0 11.325 1.13335 11.325 2.83339C11.325 2.83339 11.325 6.22499 11.325 6.22499Z" fill="none" stroke-width="1.5" stroke="#9A93FA" stroke-linecap="round" stroke-linejoin="round" transform="translate(0 5.833)" />
      </g>
    </g>
  </g>
</svg>