<?xml version="1.0" encoding="utf-8"?>
<svg width="294" height="186" viewBox="0 0 294 186" fill="none" xmlns="http://www.w3.org/2000/svg">
  <defs>
    <linearGradient id="gradient_1" gradientUnits="userSpaceOnUse" x1="23.875" y1="45.724" x2="6.692" y2="46.306">
      <stop offset="0" stop-color="#3D32C9" />
      <stop offset="0.99" stop-color="#A8A2FC" />
    </linearGradient>
    <linearGradient id="gradient_2" gradientUnits="userSpaceOnUse" x1="-1.579" y1="-144.54" x2="37.882" y2="-143.871">
      <stop offset="0" stop-color="#C8C5E8" />
      <stop offset="1" stop-color="#4C45B0" />
    </linearGradient>
    <linearGradient id="gradient_3" gradientUnits="userSpaceOnUse" x1="-1.579" y1="-182.782" x2="37.887" y2="-182.253">
      <stop offset="0" stop-color="#C3C0EB" />
      <stop offset="1" stop-color="#554CC7" />
    </linearGradient>
    <linearGradient id="gradient_4" gradientUnits="userSpaceOnUse" x1="20.913" y1="35.066" x2="-4.128" y2="4.362">
      <stop offset="0" stop-color="#ABA5FA" />
      <stop offset="0.99" stop-color="#5A4FF0" />
    </linearGradient>
    <linearGradient id="gradient_5" gradientUnits="userSpaceOnUse" x1="18.767" y1="32.321" x2="-4.43" y2="4.629">
      <stop offset="0" stop-color="#134641" />
      <stop offset="0.986" stop-color="#07A999" />
    </linearGradient>
    <linearGradient id="gradient_6" gradientUnits="userSpaceOnUse" x1="18.767" y1="32.321" x2="-4.43" y2="4.629">
      <stop offset="0" stop-color="#B6B1FA" />
      <stop offset="0.99" stop-color="#5349DE" />
    </linearGradient>
    <linearGradient id="gradient_7" gradientUnits="userSpaceOnUse" x1="-1.601" y1="-150.639" x2="38.414" y2="-149.979">
      <stop offset="0" stop-color="#BAB7ED" />
      <stop offset="1" stop-color="#4A41BF" />
    </linearGradient>
    <linearGradient id="gradient_8" gradientUnits="userSpaceOnUse" x1="-1.601" y1="-73.004" x2="38.379" y2="-71.643">
      <stop offset="0" stop-color="#B8B6E0" />
      <stop offset="1" stop-color="#5851BD" />
    </linearGradient>
    <linearGradient id="gradient_9" gradientUnits="userSpaceOnUse" x1="-1.601" y1="-94.512" x2="38.397" y2="-93.46">
      <stop offset="0" stop-color="#D7D5F2" />
      <stop offset="1" stop-color="#4841A3" />
    </linearGradient>
  </defs>
  <g>
    <path d="M0 12.2416L0 6.1208C0 4.43059 0.59758 2.9879 1.79274 1.79274C2.9879 0.59758 4.43059 0 6.1208 0L17.7535 0C19.4437 0 20.8864 0.59758 22.0816 1.79274C23.2767 2.9879 23.8743 4.43059 23.8743 6.1208L23.8743 76.4956C23.8743 78.1858 23.2767 79.6285 22.0816 80.8237C20.8864 82.0188 19.4437 82.6164 17.7535 82.6164L11.9371 82.6164L6.1208 82.6164C4.43059 82.6164 2.9879 82.0188 1.79274 80.8237C0.59758 79.6285 0 78.1858 0 76.4956L0 12.2416Z" fill="url(#gradient_1)" fill-rule="evenodd" transform="translate(108.786 69.81)" />
    <path d="M0 12.2416L0 6.1208C0 4.43059 0.59758 2.9879 1.79274 1.79274C2.9879 0.59758 4.43059 0 6.1208 0L17.7535 0C19.4437 0 20.8864 0.59758 22.0816 1.79274C23.2767 2.9879 23.8743 4.43059 23.8743 6.1208L23.8743 88.9141C23.8743 90.6043 23.2767 92.047 22.0816 93.2422C20.8864 94.4373 19.4437 95.0349 17.7535 95.0349L6.1208 95.0349C4.43059 95.0349 2.9879 94.4373 1.79274 93.2422C0.59758 92.047 0 90.6043 0 88.9141L0 12.2416Z" fill="url(#gradient_2)" fill-rule="evenodd" transform="translate(153.747 57.392)" />
    <path d="M0 12.2416L0 6.1208C0 4.43059 0.59758 2.9879 1.79274 1.79274C2.9879 0.59758 4.43059 0 6.1208 0L17.7535 0C19.4437 0 20.8864 0.59758 22.0816 1.79274C23.2767 2.9879 23.8743 4.43059 23.8743 6.1208L23.8743 114.058C23.8743 115.748 23.2767 117.191 22.0816 118.386C20.8864 119.581 19.4437 120.179 17.7535 120.179L6.1208 120.179C4.43059 120.179 2.9879 119.581 1.79274 118.386C0.59758 117.191 0 115.748 0 114.058L0 12.2416Z" fill="url(#gradient_3)" fill-rule="evenodd" transform="translate(198.023 32.247)" />
    <path d="M18.501 13.1165C17.088 11.671 15.208 10.7279 13.162 10.4276C13.253 9.17028 13.31 6.00018 11.909 3.45868C11.187 2.14908 10.16 1.64938 9.42597 1.46118C8.71297 1.27828 8.14297 1.34608 7.99497 1.36917C7.87297 1.37958 7.42897 1.42648 6.98397 1.58508C6.90097 1.49998 6.81697 1.41768 6.73197 1.33838C5.70497 0.385975 4.50897 -0.0848236 3.36497 0.0125771C1.90298 0.137276 0.259972 1.29518 0.0289764 4.17198C-0.0800247 5.53668 0.118973 6.90288 0.617973 8.23328C1.01398 9.28808 1.59998 10.321 2.35797 11.3034C3.18797 12.3782 4.03697 13.152 4.54897 13.5758C3.25997 15.0952 2.55598 16.9765 2.55598 18.934C2.55598 21.2411 3.51598 23.408 5.25797 25.0356C6.98997 26.6528 9.28997 27.5436 11.734 27.5436C14.179 27.5436 16.479 26.6528 18.211 25.0356C19.953 23.408 20.913 21.2411 20.913 18.934C20.913 16.7733 20.056 14.7072 18.501 13.1165ZM11.734 26.4657C7.26498 26.4657 3.62897 23.087 3.62897 18.934C3.62897 17.0639 4.37297 15.2704 5.72097 13.8841C5.72097 13.8841 6.16397 13.4291 6.16397 13.4291C6.16397 13.4291 5.64497 13.0653 5.64497 13.0653C5.63297 13.0569 4.39198 12.1795 3.20597 10.6432C1.63297 8.60408 0.922974 6.45598 1.09898 4.25828C1.24897 2.38508 2.12997 1.19978 3.45497 1.08658C3.52197 1.08118 3.58797 1.07808 3.65598 1.07808C5.26797 1.07808 7.24397 2.68488 8.05498 5.88778C8.05498 5.88778 8.05997 5.90318 8.05997 5.90318C8.06898 5.93548 8.97997 9.16338 9.15097 12.0999C9.15097 12.0999 9.18298 12.638 9.18298 12.638L10.255 12.5745C10.255 12.5745 10.223 12.0367 10.223 12.0367C10.046 9.02248 9.15598 5.83618 9.09397 5.61448C8.79098 4.42298 8.32597 3.36818 7.72598 2.49708C7.93497 2.45468 8.09597 2.44198 8.09798 2.44198C8.09798 2.44198 8.12297 2.44088 8.12297 2.44088C8.12297 2.44088 8.15298 2.43548 8.15298 2.43548C8.22598 2.42278 9.96198 2.15218 10.97 3.98067C12.548 6.84208 12.051 10.7906 12.046 10.8299C12.046 10.8299 11.971 11.3873 11.971 11.3873C11.971 11.3873 12.529 11.4377 12.529 11.4377C16.697 11.8146 19.84 15.0371 19.84 18.934C19.84 23.087 16.204 26.4657 11.734 26.4657Z" fill="url(#gradient_4)" transform="translate(106.98 34.884)" />
    <path d="M10.898 10.3092C10.898 10.3092 10.973 9.7518 10.973 9.7518C10.978 9.7125 11.475 5.764 9.897 2.9026C8.889 1.074 7.153 1.3447 7.08 1.3574C7.08 1.3574 7.05 1.3628 7.05 1.3628C7.05 1.3628 7.025 1.3639 7.025 1.3639C7.02299 1.3639 6.863 1.3766 6.653 1.419C7.253 2.2901 7.718 3.3449 8.021 4.5364C8.083 4.7581 8.973 7.9444 9.15 10.9586C9.15 10.9586 9.182 11.4964 9.182 11.4964L8.11 11.5599C8.11 11.5599 8.078 11.0217 8.078 11.0217C7.907 8.0853 6.996 4.8574 6.987 4.8251C6.987 4.8251 6.982 4.8097 6.982 4.8097C6.171 1.6068 4.195 0 2.583 0C2.515 0 2.449 0.00310135 2.382 0.00850296C1.057 0.1217 0.175995 1.3069 0.026001 3.1802C-0.149002 5.3779 0.559998 7.5259 2.133 9.5651C3.319 11.1014 4.56 11.9788 4.572 11.9872C4.572 11.9872 5.091 12.351 5.091 12.351C5.091 12.351 4.64799 12.806 4.64799 12.806C3.3 14.1923 2.556 15.9858 2.556 17.8559C2.556 22.0088 6.192 25.3876 10.662 25.3876C15.131 25.3876 18.767 22.0088 18.767 17.8559C18.767 13.959 15.624 10.7365 11.457 10.3596C11.457 10.3596 10.898 10.3092 10.898 10.3092ZM10.485 20.3755C9.026 20.3755 7.838 19.1832 7.838 17.7177C7.838 16.2522 9.026 15.06 10.485 15.06C11.944 15.06 13.131 16.2522 13.131 17.7177C13.131 19.1832 11.944 20.3755 10.485 20.3755Z" fill="url(#gradient_5)" transform="translate(108.053 35.962)" />
    <path d="M10.898 10.3092C10.898 10.3092 10.973 9.7518 10.973 9.7518C10.978 9.7125 11.475 5.764 9.897 2.9026C8.889 1.074 7.153 1.3447 7.08 1.3574C7.08 1.3574 7.05 1.3628 7.05 1.3628C7.05 1.3628 7.025 1.3639 7.025 1.3639C7.02299 1.3639 6.863 1.3766 6.653 1.419C7.253 2.2901 7.718 3.3449 8.021 4.5364C8.083 4.7581 8.973 7.9444 9.15 10.9586C9.15 10.9586 9.182 11.4964 9.182 11.4964L8.11 11.5599C8.11 11.5599 8.078 11.0217 8.078 11.0217C7.907 8.0853 6.996 4.8574 6.987 4.8251C6.987 4.8251 6.982 4.8097 6.982 4.8097C6.171 1.6068 4.195 0 2.583 0C2.515 0 2.449 0.00310135 2.382 0.00850296C1.057 0.1217 0.175995 1.3069 0.026001 3.1802C-0.149002 5.3779 0.559998 7.5259 2.133 9.5651C3.319 11.1014 4.56 11.9788 4.572 11.9872C4.572 11.9872 5.091 12.351 5.091 12.351C5.091 12.351 4.64799 12.806 4.64799 12.806C3.3 14.1923 2.556 15.9858 2.556 17.8559C2.556 22.0088 6.192 25.3876 10.662 25.3876C15.131 25.3876 18.767 22.0088 18.767 17.8559C18.767 13.959 15.624 10.7365 11.457 10.3596C11.457 10.3596 10.898 10.3092 10.898 10.3092ZM10.485 21.4533C8.434 21.4533 6.765 19.7776 6.765 17.7177C6.765 15.6578 8.434 13.9821 10.485 13.9821C12.536 13.9821 14.205 15.6578 14.205 17.7177C14.205 19.7776 12.536 21.4533 10.485 21.4533Z" fill="url(#gradient_6)" transform="translate(108.053 35.962)" />
    <path d="M3.3154 7.53239C3.3154 7.53239 2.7424 4.05439 1.7554 1.63399C0.922401 -0.40691 0.0663986 -0.244812 0.00540161 0.551991C-0.122604 2.21989 2.0554 3.67229 3.3164 7.53239C3.3164 7.53239 3.3154 7.53239 3.3154 7.53239Z" fill="#9A93FA" transform="translate(111.906 38.482)" />
    <path d="M0 12.2416L0 6.1208C0 4.43059 0.59758 2.9879 1.79274 1.79274C2.9879 0.59758 4.43059 0 6.1208 0L18.0881 0C19.7783 0 21.221 0.59758 22.4162 1.79274C23.6113 2.9879 24.2089 4.43059 24.2089 6.1208L24.2089 92.9245C24.2089 94.6147 23.6113 96.0574 22.4162 97.2526C21.221 98.4477 19.7783 99.0453 18.0881 99.0453L6.1208 99.0453C4.43059 99.0453 2.9879 98.4477 1.79274 97.2525C0.59758 96.0574 0 94.6147 0 92.9245L0 12.2416Z" fill="url(#gradient_7)" fill-rule="evenodd" transform="translate(246.706 53.578)" />
    <path d="M0 12.2416L0 6.1208C0 4.43059 0.59758 2.9879 1.79274 1.79274C2.9879 0.59758 4.43059 0 6.1208 0L18.0881 0C19.7783 0 21.221 0.59758 22.4162 1.79274C23.6113 2.9879 24.2089 4.43059 24.2089 6.1208L24.2089 41.8794C24.2089 43.5696 23.6113 45.0123 22.4162 46.2074C21.221 47.4026 19.7783 48.0002 18.0881 48.0002L6.1208 48.0002C4.43059 48.0002 2.9879 47.4026 1.79274 46.2074C0.59758 45.0123 0 43.5696 0 41.8794L0 12.2416Z" fill="url(#gradient_8)" fill-rule="evenodd" transform="translate(63.583 104.623)" />
    <path d="M0 12.2416L0 6.1208C0 4.43059 0.59758 2.9879 1.79274 1.79274C2.9879 0.59758 4.43059 0 6.1208 0L18.0881 0C19.7783 0 21.221 0.59758 22.4162 1.79274C23.6113 2.9879 24.2089 4.43059 24.2089 6.1208L24.2089 56.021C24.2089 57.7112 23.6113 59.1539 22.4162 60.3491C21.221 61.5442 19.7783 62.1418 18.0881 62.1418L6.1208 62.1418C4.43059 62.1418 2.9879 61.5442 1.79274 60.3491C0.59758 59.1539 0 57.7112 0 56.021L0 12.2416Z" fill="url(#gradient_9)" fill-rule="evenodd" transform="translate(23.023 90.481)" />
    <path d="M0 8.256C0 8.256 0 0 0 0L0.876001 0L0.876001 8.256C0.876001 8.256 0 8.256 0 8.256ZM0.576 8.256C0.576 8.256 0.576 7.452 0.576 7.452L5.436 7.452L5.436 8.256C5.436 8.256 0.576 8.256 0.576 8.256ZM0.576 4.416C0.576 4.416 0.576 3.636 0.576 3.636L5.052 3.636L5.052 4.416C5.052 4.416 0.576 4.416 0.576 4.416ZM0.576 0.804001C0.576 0.804001 0.576 0 0.576 0L5.364 0L5.364 0.804001C5.364 0.804001 0.576 0.804001 0.576 0.804001ZM10.9664 8.256C10.9664 8.256 10.9664 4.944 10.9664 4.944C10.9664 4.448 10.8184 4.04799 10.5224 3.74399C10.2344 3.43199 9.8504 3.276 9.3704 3.276C9.0424 3.276 8.7544 3.34799 8.5064 3.49199C8.2584 3.636 8.0624 3.832 7.9184 4.08C7.7744 4.328 7.7024 4.612 7.7024 4.93199C7.7024 4.93199 7.3184 4.71599 7.3184 4.71599C7.3184 4.29199 7.4184 3.912 7.6184 3.57599C7.8184 3.23999 8.0864 2.976 8.4224 2.784C8.7664 2.592 9.1584 2.496 9.5984 2.496C10.0304 2.496 10.4144 2.59999 10.7504 2.808C11.0864 3.01599 11.3464 3.29599 11.5304 3.64799C11.7224 4 11.8184 4.384 11.8184 4.8C11.8184 4.8 11.8184 8.256 11.8184 8.256C11.8184 8.256 10.9664 8.256 10.9664 8.256ZM6.8624 8.256C6.8624 8.256 6.8624 2.616 6.8624 2.616L7.7024 2.616L7.7024 8.256C7.7024 8.256 6.8624 8.256 6.8624 8.256ZM15.9937 8.37599C15.4257 8.37599 14.9177 8.248 14.4697 7.99199C14.0217 7.73599 13.6657 7.384 13.4017 6.93599C13.1457 6.48799 13.0177 5.98399 13.0177 5.424C13.0177 4.87199 13.1457 4.37599 13.4017 3.93599C13.6577 3.48799 14.0057 3.136 14.4457 2.87999C14.8857 2.62399 15.3777 2.496 15.9217 2.496C16.4337 2.496 16.8857 2.612 17.2777 2.84399C17.6777 3.07599 17.9897 3.39999 18.2137 3.81599C18.4457 4.224 18.5617 4.696 18.5617 5.23199C18.5617 5.29599 18.5577 5.37199 18.5497 5.45999C18.5417 5.53999 18.5257 5.636 18.5017 5.748C18.5017 5.748 13.6177 5.748 13.6177 5.748L13.6177 5.028L18.0457 5.028C18.0457 5.028 17.7457 5.29199 17.7457 5.29199C17.7537 4.87599 17.6817 4.51999 17.5297 4.224C17.3857 3.92 17.1737 3.68799 16.8937 3.528C16.6217 3.36 16.2897 3.276 15.8977 3.276C15.4897 3.276 15.1337 3.364 14.8297 3.53999C14.5257 3.71599 14.2857 3.96399 14.1097 4.284C13.9417 4.59599 13.8577 4.968 13.8577 5.39999C13.8577 5.832 13.9457 6.21199 14.1217 6.53999C14.3057 6.868 14.5577 7.12399 14.8777 7.308C15.2057 7.49199 15.5817 7.584 16.0057 7.584C16.3497 7.584 16.6657 7.524 16.9537 7.40399C17.2417 7.276 17.4857 7.088 17.6857 6.84C17.6857 6.84 18.2257 7.392 18.2257 7.392C17.9617 7.70399 17.6337 7.948 17.2417 8.12399C16.8577 8.29199 16.4417 8.37599 15.9937 8.37599Z" fill="#8E8E8E" transform="translate(27.416 172.867)" />
    <path d="M0 8.496C0 8.496 0 0.240005 0 0.240005L0.875999 0.240005L0.875999 8.496C0.875999 8.496 0 8.496 0 8.496ZM0.575996 4.76401C0.575996 4.76401 0.575996 3.96001 0.575996 3.96001L5.004 3.96001L5.004 4.76401C5.004 4.76401 0.575996 4.76401 0.575996 4.76401ZM0.575996 1.04401C0.575996 1.04401 0.575996 0.240005 0.575996 0.240005L5.208 0.240005L5.208 1.04401C5.208 1.04401 0.575996 1.04401 0.575996 1.04401ZM8.9508 8.616C8.3828 8.616 7.87479 8.48801 7.4268 8.23199C6.9788 7.976 6.6228 7.62401 6.3588 7.17599C6.1028 6.728 5.9748 6.224 5.9748 5.664C5.9748 5.112 6.1028 4.616 6.3588 4.17599C6.6148 3.728 6.9628 3.37601 7.40279 3.12C7.8428 2.864 8.33479 2.73601 8.8788 2.73601C9.3908 2.73601 9.8428 2.85201 10.2348 3.084C10.6348 3.31599 10.9468 3.64 11.1708 4.056C11.4028 4.464 11.5188 4.936 11.5188 5.472C11.5188 5.536 11.5148 5.612 11.5068 5.7C11.4988 5.78 11.4828 5.87601 11.4588 5.98801C11.4588 5.98801 6.5748 5.98801 6.5748 5.98801L6.5748 5.26801L11.0028 5.26801C11.0028 5.26801 10.7028 5.532 10.7028 5.532C10.7108 5.116 10.6388 4.75999 10.4868 4.464C10.3428 4.16 10.1308 3.92799 9.8508 3.76801C9.5788 3.60001 9.2468 3.51601 8.8548 3.51601C8.4468 3.51601 8.0908 3.604 7.7868 3.78C7.4828 3.95599 7.2428 4.20399 7.0668 4.524C6.8988 4.836 6.8148 5.20801 6.8148 5.64C6.8148 6.07201 6.90279 6.452 7.0788 6.78C7.26279 7.108 7.51479 7.364 7.83479 7.548C8.1628 7.73199 8.5388 7.82401 8.9628 7.82401C9.30679 7.82401 9.6228 7.76401 9.9108 7.644C10.1988 7.51601 10.4428 7.328 10.6428 7.08C10.6428 7.08 11.1828 7.632 11.1828 7.632C10.9188 7.944 10.5908 8.188 10.1988 8.364C9.8148 8.532 9.3988 8.616 8.9508 8.616ZM15.7198 8.616C15.2878 8.616 14.8998 8.528 14.5558 8.35201C14.2118 8.17599 13.9278 7.936 13.7038 7.632C13.4878 7.32001 13.3558 6.96001 13.3078 6.552C13.3078 6.552 13.3078 4.78799 13.3078 4.78799C13.3558 4.37199 13.4918 4.01201 13.7158 3.70801C13.9398 3.396 14.2238 3.15601 14.5678 2.98801C14.9198 2.82001 15.3038 2.73601 15.7198 2.73601C16.2398 2.73601 16.7078 2.868 17.1238 3.132C17.5398 3.388 17.8678 3.74001 18.1078 4.188C18.3558 4.62801 18.4798 5.12801 18.4798 5.688C18.4798 6.24001 18.3598 6.73601 18.1198 7.17599C17.8798 7.616 17.5478 7.968 17.1238 8.23199C16.7078 8.48801 16.2398 8.616 15.7198 8.616ZM12.8038 8.496C12.8038 8.496 12.8038 0 12.8038 0L13.6438 0L13.6438 4.23601L13.4758 5.592L13.6438 6.98399L13.6438 8.496C13.6438 8.496 12.8038 8.496 12.8038 8.496ZM15.5758 7.812C15.9758 7.812 16.3278 7.724 16.6318 7.548C16.9358 7.364 17.1718 7.112 17.3398 6.79201C17.5158 6.464 17.6038 6.092 17.6038 5.67599C17.6038 5.252 17.5158 4.88 17.3398 4.56C17.1718 4.24001 16.9358 3.98801 16.6318 3.804C16.3278 3.62 15.9798 3.528 15.5878 3.528C15.1958 3.528 14.8478 3.62 14.5438 3.804C14.2478 3.98801 14.0158 4.24001 13.8478 4.56C13.6798 4.88 13.5958 5.252 13.5958 5.67599C13.5958 6.092 13.6798 6.464 13.8478 6.79201C14.0158 7.112 14.2478 7.364 14.5438 7.548C14.8398 7.724 15.1838 7.812 15.5758 7.812Z" fill="#8E8E8E" transform="translate(68.261 172.627)" />
    <path d="M0 9.842C0 9.842 0 0 0 0L1.344 0L5.334 6.38399L4.564 6.38399L8.54 0L9.884 0L9.884 9.842L7.994 9.842L7.994 3.26199L8.358 3.37399L5.586 7.82599L4.298 7.82599L1.526 3.37399L1.904 3.26199L1.904 9.842C1.904 9.842 0 9.842 0 9.842ZM14.527 9.98199C13.911 9.98199 13.356 9.82799 12.861 9.51999C12.366 9.21199 11.979 8.79199 11.699 8.25999C11.419 7.728 11.279 7.131 11.279 6.46799C11.279 5.79599 11.419 5.194 11.699 4.66199C11.979 4.12999 12.366 3.70999 12.861 3.40199C13.356 3.09399 13.911 2.93999 14.527 2.93999C15.012 2.93999 15.446 3.03799 15.829 3.23399C16.212 3.42999 16.515 3.70499 16.739 4.06C16.972 4.405 17.098 4.797 17.117 5.23599C17.117 5.23599 17.117 7.672 17.117 7.672C17.098 8.12 16.972 8.517 16.739 8.862C16.515 9.207 16.212 9.483 15.829 9.68799C15.446 9.88399 15.012 9.98199 14.527 9.98199ZM14.863 8.28799C15.376 8.28799 15.792 8.12 16.109 7.784C16.426 7.439 16.585 6.995 16.585 6.45399C16.585 6.099 16.51 5.78699 16.361 5.51599C16.221 5.23599 16.02 5.021 15.759 4.87199C15.507 4.713 15.208 4.63399 14.863 4.63399C14.527 4.63399 14.228 4.713 13.967 4.87199C13.715 5.021 13.514 5.23599 13.365 5.51599C13.225 5.78699 13.155 6.099 13.155 6.45399C13.155 6.81799 13.225 7.14 13.365 7.42C13.514 7.69099 13.715 7.905 13.967 8.064C14.228 8.213 14.527 8.28799 14.863 8.28799ZM16.487 9.842C16.487 9.842 16.487 8.02199 16.487 8.02199L16.781 6.37L16.487 4.74599L16.487 3.07999L18.307 3.07999L18.307 9.842C18.307 9.842 16.487 9.842 16.487 9.842ZM19.929 9.842C19.929 9.842 19.929 3.07999 19.929 3.07999L21.763 3.07999L21.763 9.842C21.763 9.842 19.929 9.842 19.929 9.842ZM21.049 5.62799C21.133 4.797 21.376 4.144 21.777 3.668C22.179 3.183 22.757 2.93999 23.513 2.93999C23.84 2.93999 24.134 2.99599 24.395 3.108C24.657 3.211 24.895 3.383 25.109 3.62599C25.109 3.62599 23.961 4.942 23.961 4.942C23.859 4.82999 23.733 4.74599 23.583 4.68999C23.443 4.63399 23.28 4.60599 23.093 4.60599C22.701 4.60599 22.379 4.73199 22.127 4.98399C21.885 5.22699 21.763 5.59999 21.763 6.10399C21.763 6.10399 21.049 5.62799 21.049 5.62799Z" fill="#9A93FA" transform="translate(109.962 171.781)" />
    <path d="M0 8.496C0 8.496 3.384 0.240005 3.384 0.240005L4.04401 0.240005L7.39201 8.496L6.444 8.496L3.528 1.2L3.87601 1.2L0.936005 8.496C0.936005 8.496 0 8.496 0 8.496ZM1.548 6.34801C1.548 6.34801 1.548 5.56801 1.548 5.56801L5.86801 5.56801L5.86801 6.34801C5.86801 6.34801 1.548 6.34801 1.548 6.34801ZM11.609 8.616C11.177 8.616 10.789 8.528 10.445 8.35201C10.101 8.17599 9.817 7.936 9.593 7.632C9.37701 7.32001 9.24501 6.96001 9.19701 6.552C9.19701 6.552 9.19701 4.78799 9.19701 4.78799C9.24501 4.37199 9.38101 4.01201 9.60501 3.70801C9.82901 3.396 10.113 3.15601 10.457 2.98801C10.809 2.82001 11.193 2.73601 11.609 2.73601C12.129 2.73601 12.597 2.868 13.013 3.132C13.429 3.388 13.757 3.74001 13.997 4.188C14.245 4.62801 14.369 5.12801 14.369 5.688C14.369 6.24001 14.249 6.73601 14.009 7.17599C13.769 7.616 13.437 7.968 13.013 8.23199C12.597 8.48801 12.129 8.616 11.609 8.616ZM8.69301 8.496C8.69301 8.496 8.69301 0 8.69301 0L9.533 0L9.533 4.23601L9.36501 5.592L9.533 6.98399L9.533 8.496C9.533 8.496 8.69301 8.496 8.69301 8.496ZM11.465 7.812C11.865 7.812 12.217 7.724 12.521 7.548C12.825 7.364 13.061 7.112 13.229 6.79201C13.405 6.464 13.493 6.092 13.493 5.67599C13.493 5.252 13.405 4.88 13.229 4.56C13.061 4.24001 12.825 3.98801 12.521 3.804C12.217 3.62 11.869 3.528 11.477 3.528C11.085 3.528 10.737 3.62 10.433 3.804C10.137 3.98801 9.90501 4.24001 9.737 4.56C9.569 4.88 9.485 5.252 9.485 5.67599C9.485 6.092 9.569 6.464 9.737 6.79201C9.90501 7.112 10.137 7.364 10.433 7.548C10.729 7.724 11.073 7.812 11.465 7.812ZM15.712 8.496C15.712 8.496 15.712 2.856 15.712 2.856L16.552 2.856L16.552 8.496C16.552 8.496 15.712 8.496 15.712 8.496ZM16.204 5.052C16.204 4.34 16.376 3.776 16.72 3.36C17.072 2.944 17.552 2.73601 18.16 2.73601C18.44 2.73601 18.696 2.78799 18.928 2.892C19.16 2.98801 19.376 3.144 19.576 3.36C19.576 3.36 19.024 3.948 19.024 3.948C18.888 3.79601 18.736 3.688 18.568 3.62401C18.408 3.56 18.224 3.528 18.016 3.528C17.584 3.528 17.232 3.672 16.96 3.96001C16.688 4.24001 16.552 4.65601 16.552 5.20801C16.552 5.20801 16.204 5.052 16.204 5.052Z" fill="#8E8E8E" transform="translate(156.193 172.627)" />
    <path d="M0 8.256C0 8.256 0 0 0 0L0.624008 0L4.188 5.84399L3.744 5.84399L7.308 0L7.93201 0L7.93201 8.256L7.04401 8.256L7.04401 1.536L7.248 1.584L4.272 6.468L3.64801 6.468L0.672012 1.584L0.876007 1.536L0.876007 8.256C0.876007 8.256 0 8.256 0 8.256ZM12.275 8.37599C11.739 8.37599 11.259 8.248 10.835 7.99199C10.411 7.728 10.075 7.37599 9.82701 6.93599C9.58701 6.496 9.46701 6 9.46701 5.448C9.46701 4.888 9.58701 4.388 9.82701 3.948C10.075 3.5 10.411 3.14799 10.835 2.892C11.259 2.62799 11.735 2.496 12.263 2.496C12.695 2.496 13.079 2.584 13.415 2.75999C13.759 2.92799 14.035 3.168 14.243 3.48C14.459 3.784 14.591 4.14 14.639 4.54799C14.639 4.54799 14.639 6.312 14.639 6.312C14.591 6.72 14.459 7.08 14.243 7.392C14.035 7.70399 13.759 7.948 13.415 8.12399C13.079 8.29199 12.699 8.37599 12.275 8.37599ZM12.407 7.57199C12.991 7.57199 13.459 7.37599 13.811 6.98399C14.171 6.592 14.351 6.07599 14.351 5.43599C14.351 5.01199 14.267 4.64 14.099 4.31999C13.939 3.99199 13.711 3.73999 13.415 3.564C13.127 3.37999 12.787 3.28799 12.395 3.28799C11.995 3.28799 11.639 3.37999 11.327 3.564C11.023 3.748 10.779 4.004 10.595 4.332C10.419 4.65199 10.331 5.01999 10.331 5.43599C10.331 5.85199 10.419 6.22 10.595 6.53999C10.779 6.86 11.027 7.112 11.339 7.29599C11.651 7.48 12.007 7.57199 12.407 7.57199ZM14.303 8.256C14.303 8.256 14.303 6.74399 14.303 6.74399L14.471 5.35199L14.303 3.996L14.303 2.616L15.143 2.616L15.143 8.256C15.143 8.256 14.303 8.256 14.303 8.256ZM18.73 8.28C18.73 8.28 16.258 2.616 16.258 2.616L17.182 2.616L19.174 7.34399L18.826 7.34399L20.926 2.616L21.862 2.616L19.21 8.28C19.21 8.28 18.73 8.28 18.73 8.28ZM17.194 10.632C17.194 10.632 18.742 7.42799 18.742 7.42799L19.21 8.28L18.118 10.632C18.118 10.632 17.194 10.632 17.194 10.632Z" fill="#8E8E8E" transform="translate(200.691 172.867)" />
    <path d="M2.112 8.37599C1.64799 8.37599 1.23999 8.28799 0.888 8.112C0.543991 7.92799 0.248001 7.67999 0 7.368C0 7.368 0.623993 6.79199 0.623993 6.79199C0.800003 7.032 1.008 7.21599 1.248 7.34399C1.48799 7.46399 1.76799 7.524 2.088 7.524C2.37599 7.524 2.64 7.46399 2.88 7.34399C3.12 7.21599 3.312 7.01999 3.45599 6.756C3.59999 6.49199 3.672 6.15999 3.672 5.75999C3.672 5.75999 3.672 0 3.672 0L4.56 0C4.56 0 4.56 5.748 4.56 5.748C4.56 6.3 4.448 6.772 4.224 7.164C4.008 7.556 3.71199 7.856 3.336 8.064C2.968 8.272 2.56 8.37599 2.112 8.37599ZM8.593 8.37599C8.13701 8.37599 7.72899 8.272 7.369 8.064C7.00899 7.84799 6.72499 7.556 6.51698 7.18799C6.317 6.81999 6.217 6.388 6.217 5.892C6.217 5.892 6.217 2.616 6.217 2.616L7.06898 2.616C7.06898 2.616 7.06898 5.856 7.06898 5.856C7.06898 6.2 7.12898 6.5 7.24901 6.756C7.377 7.01199 7.55699 7.21199 7.78899 7.356C8.02101 7.5 8.28899 7.57199 8.593 7.57199C9.06499 7.57199 9.437 7.416 9.709 7.10399C9.989 6.79199 10.129 6.37599 10.129 5.856C10.129 5.856 10.129 2.616 10.129 2.616L10.969 2.616C10.969 2.616 10.969 5.892 10.969 5.892C10.969 6.37999 10.869 6.812 10.669 7.18799C10.469 7.564 10.189 7.856 9.82899 8.064C9.46901 8.272 9.05699 8.37599 8.593 8.37599ZM16.641 8.256C16.641 8.256 16.641 4.944 16.641 4.944C16.641 4.448 16.493 4.04799 16.197 3.74399C15.909 3.43199 15.525 3.276 15.045 3.276C14.717 3.276 14.429 3.34799 14.181 3.49199C13.933 3.636 13.737 3.832 13.593 4.08C13.449 4.328 13.377 4.612 13.377 4.93199C13.377 4.93199 12.993 4.71599 12.993 4.71599C12.993 4.29199 13.093 3.912 13.293 3.57599C13.493 3.23999 13.761 2.976 14.097 2.784C14.441 2.592 14.833 2.496 15.273 2.496C15.705 2.496 16.089 2.59999 16.425 2.808C16.761 3.01599 17.021 3.29599 17.205 3.64799C17.397 4 17.493 4.384 17.493 4.8C17.493 4.8 17.493 8.256 17.493 8.256C17.493 8.256 16.641 8.256 16.641 8.256ZM12.537 8.256C12.537 8.256 12.537 2.616 12.537 2.616L13.377 2.616L13.377 8.256C13.377 8.256 12.537 8.256 12.537 8.256Z" fill="#8E8E8E" transform="translate(249.662 172.867)" />
  </g>
</svg>