<?xml version="1.0" encoding="utf-8"?>
<svg width="44" height="44" viewBox="0 0 44 44" fill="none" xmlns="http://www.w3.org/2000/svg">
  <g>
    <path d="M0 22C0 9.84974 9.84974 0 22 0C34.1503 0 44 9.84974 44 22C44 34.1503 34.1503 44 22 44C9.84974 44 0 34.1503 0 22Z" fill="#E3E1FA" fill-rule="evenodd" />
    <path d="M14.0294 9.93C13.8194 9.56 13.6294 8.86 13.6294 8.45C13.6294 8.45 13.6294 5.92 13.6294 5.92C13.6294 2.66 10.9794 0 7.7094 0C4.4394 0 1.7894 2.66 1.7894 5.92C1.7894 5.92 1.7894 8.45 1.7894 8.45C1.7894 8.86 1.5994 9.56 1.3894 9.92C1.3894 9.92 0.379396 11.59 0.379396 11.59C-0.0206041 12.26 -0.110604 13 0.139396 13.68C0.379396 14.35 0.949396 14.87 1.6894 15.12C3.6294 15.78 5.6694 16.1 7.7094 16.1C9.7494 16.1 11.7894 15.78 13.7294 15.13C14.4294 14.9 14.9694 14.37 15.2294 13.68C15.4894 12.99 15.4194 12.23 15.0294 11.59C15.0294 11.59 14.0294 9.93 14.0294 9.93Z" fill="#9A93FA" fill-opacity="0.4" transform="translate(14.311 12.9)" />
    <path d="M4.45 1.32C3.76 1.05 3.01 0.9 2.22 0.9C1.44 0.9 0.690001 1.04 0 1.32C0.43 0.51 1.28 0 2.22 0C3.17 0 4.01 0.51 4.45 1.32Z" fill="#9A93FA" transform="translate(19.8 12)" />
    <path d="M5.65 0.0100002C5.23 1.17 4.12 2 2.82 2C2.03 2 1.25 1.68 0.700001 1.11C0.380001 0.809999 0.140001 0.41 0 0C0.130001 0.0200005 0.26 0.0300007 0.400002 0.0499992C0.630001 0.0799999 0.870001 0.110001 1.11 0.129999C1.68 0.18 2.26 0.209999 2.84 0.209999C3.41 0.209999 3.98 0.18 4.54 0.129999C4.75 0.110001 4.96 0.1 5.16 0.0699997C5.32 0.0499992 5.48 0.0300007 5.65 0.0100002Z" fill="#9A93FA" transform="translate(19.18 30)" />
  </g>
</svg>