<?xml version="1.0" encoding="utf-8"?>
<svg width="224" height="228" viewBox="0 0 224 228" fill="none" xmlns="http://www.w3.org/2000/svg">
  <defs>
    <clipPath id="clip_path_1">
      <rect width="77.338" height="38.238" />
    </clipPath>
  </defs>
  <g>
    <path d="M0 110.447C0 49.4488 49.4488 0 110.447 0C171.445 0 220.894 49.4488 220.894 110.447C220.894 171.445 171.445 220.894 110.447 220.894C49.4488 220.894 0 171.445 0 110.447Z" fill="none" stroke-width="3" stroke="#9A93FA" stroke-dasharray="3 6" transform="translate(1.553 2.632)" />
    <path d="M9.757 0C9.757 0 11.732 4.56799 11.732 4.56799C12.401 6.116 13.655 7.338 15.221 7.968C15.221 7.968 20 9.89101 20 9.89101C20 9.89101 15.259 11.799 15.259 11.799C13.671 12.438 12.405 13.686 11.743 15.265C11.743 15.265 9.757 20 9.757 20C9.757 20 7.73601 15.18 7.73601 15.18C7.09601 13.651 5.888 12.431 4.36601 11.775C4.36601 11.775 0 9.89101 0 9.89101C0 9.89101 4.40401 7.992 4.40401 7.992C5.903 7.345 7.099 6.151 7.746 4.65201C7.746 4.65201 9.757 0 9.757 0Z" fill="#9A93FA" transform="translate(179.025 147.015)" />
    <path d="M9.757 0C9.757 0 11.7315 4.567 11.7315 4.567C12.4011 6.116 13.6548 7.33801 15.2202 7.96801C15.2202 7.96801 20 9.891 20 9.891C20 9.891 15.2587 11.799 15.2587 11.799C13.6705 12.438 12.4041 13.686 11.7422 15.265C11.7422 15.265 9.757 20 9.757 20C9.757 20 7.736 15.18 7.736 15.18C7.0953 13.651 5.8873 12.431 4.3658 11.775C4.3658 11.775 0 9.891 0 9.891C0 9.891 4.4034 7.992 4.4034 7.992C5.9025 7.345 7.0982 6.151 7.746 4.652C7.746 4.652 9.757 0 9.757 0Z" fill="#9A93FA" transform="translate(12.81 120.479)" />
    <path d="M9.757 0C9.757 0 11.77 4.6561 11.77 4.6561C12.415 6.1481 13.623 7.3254 15.131 7.9321C15.131 7.9321 20 9.8913 20 9.8913C20 9.8913 15.168 11.8355 15.168 11.8355C13.638 12.4511 12.418 13.6534 11.78 15.1743C11.78 15.1743 9.757 20 9.757 20C9.757 20 7.69901 15.0921 7.69901 15.0921C7.082 13.62 5.91901 12.4443 4.453 11.812C4.453 11.812 0 9.8913 0 9.8913C0 9.8913 4.489 7.9549 4.489 7.9549C5.933 7.3319 7.08501 6.1811 7.709 4.7375C7.709 4.7375 9.757 0 9.757 0Z" fill="#9A93FA" transform="translate(130.021 13.703)" />
    <path d="M0 26.1476C0 11.7067 11.7067 0 26.1476 0C40.5885 0 52.2952 11.7067 52.2952 26.1476C52.2952 40.5885 40.5885 52.2952 26.1476 52.2952C11.7067 52.2952 0 40.5885 0 26.1476Z" fill="#9A93FA" fill-rule="evenodd" transform="translate(2.493 0.5)" />
    <path d="M6.1738 0C2.75 0 1.9938 1.705 1.5538 3.795C1.5538 3.795 0 11.2338 0 11.2338L22 11.2338C22 11.2338 20.4463 3.795 20.4463 3.795C20.0063 1.705 19.25 0 15.8263 0C15.8263 0 6.1738 0 6.1738 0Z" fill="none" stroke-width="2" stroke="#FCFCFC" stroke-linecap="round" stroke-linejoin="round" transform="translate(17.641 14.039)" />
    <path d="M27.4845 12.1275C27.6358 13.7362 26.3433 15.125 24.6933 15.125C24.6933 15.125 22.1083 15.125 22.1083 15.125C20.6233 15.125 20.417 14.4925 20.1558 13.7087C20.1558 13.7087 19.8808 12.8837 19.8808 12.8837C19.4958 11.7562 19.2483 11 17.2683 11C17.2683 11 10.2283 11 10.2283 11C8.24834 11 7.95954 11.8525 7.61584 12.8837C7.61584 12.8837 7.34084 13.7087 7.34084 13.7087C7.07954 14.4925 6.87334 15.125 5.38834 15.125C5.38834 15.125 2.80334 15.125 2.80334 15.125C1.15334 15.125 -0.139159 13.7362 0.0120411 12.1275C0.0120411 12.1275 0.782041 3.7537 0.782041 3.7537C0.974541 1.6912 1.37334 0 4.97584 0C4.97584 0 22.5208 0 22.5208 0C26.1233 0 26.522 1.6912 26.7145 3.7537C26.7145 3.7537 27.4845 12.1275 27.4845 12.1275Z" fill="none" stroke-width="2" stroke="#FCFCFC" stroke-linecap="round" stroke-linejoin="round" transform="translate(14.892 25.273)" />
    <path d="M1.375 0L0 0" fill="none" stroke-width="2" stroke="#FCFCFC" stroke-linecap="round" stroke-linejoin="round" transform="translate(16.266 21.148)" />
    <path d="M1.375 0L0 0" fill="none" stroke-width="2" stroke="#FCFCFC" stroke-linecap="round" stroke-linejoin="round" transform="translate(39.641 21.148)" />
    <path d="M0 0L0 2.75" fill="none" stroke-width="2" stroke="#FCFCFC" stroke-linecap="round" stroke-linejoin="round" transform="translate(28.641 14.273)" />
    <path d="M0 0L4.125 0" fill="none" stroke-width="2" stroke="#FCFCFC" stroke-linecap="round" stroke-linejoin="round" transform="translate(26.578 17.023)" />
    <path d="M0 0L4.125 0" fill="none" stroke-width="2" stroke="#FCFCFC" stroke-linecap="round" stroke-linejoin="round" transform="translate(20.391 30.773)" />
    <path d="M0 0L4.125 0" fill="none" stroke-width="2" stroke="#FCFCFC" stroke-linecap="round" stroke-linejoin="round" transform="translate(32.766 30.773)" />
    <rect width="118.191" height="21.587" fill="#FBFBFB" fill-rule="evenodd" transform="translate(52.862 203.438)" />
    <path d="M0.309044 45.2791C-2.10226 34.8301 9.15034 0.269104 49.8736 0.00111389C82.4526 -0.213882 95.9556 30.6331 97.0276 45.2791C91.4906 45.8151 81.4346 46.5651 85.5076 45.2791C90.5976 43.6721 78.0056 10.7171 49.8736 10.4491C27.3686 10.2351 12.0081 33.2231 9.15034 45.2791C9.15034 45.2791 0.309044 45.2791 0.309044 45.2791Z" fill="#9A93FA" transform="translate(64.694 176.868)" />
    <path d="M58.5266 0.106129C58.2286 0.180729 56.4756 0.441929 54.6096 0.66573C42.8591 2.26983 32.1527 8.23853 25.6617 16.8186C19.8421 24.4661 16.7085 35.3217 17.7158 44.163C18.2007 48.1172 19.1333 49.796 22.1923 52.1835C22.1923 52.1835 24.2068 53.713 24.2068 53.713L24.2068 57.7419L24.2068 61.7708C24.2068 61.7708 22.4908 62.3676 22.4908 62.3676C18.8722 63.5986 15.3283 66.5826 13.2765 70.0896C10.7025 74.4916 10.404 80.9076 12.5677 85.4966C14.5449 89.7496 18.4619 93.2186 22.8638 94.7106C22.8638 94.7106 24.6917 95.3446 24.6917 95.3446C24.6917 95.3446 25.5124 98.6276 25.5124 98.6276C27.9745 108.29 33.8687 116.609 42.2249 122.167C42.2249 122.167 44.8363 123.921 44.8363 123.921C44.8363 123.921 42.2622 124.443 42.2622 124.443C38.4199 125.189 33.6449 126.868 29.7279 128.845C12.2693 137.612 1.00328 154.697 0.0705872 173.797C-0.190514 179.43 0.219887 181.445 2.19699 184.578C3.98759 187.301 6.48708 189.204 9.62059 190.174C11.9335 190.92 12.9781 190.92 64.1226 190.92C115.081 190.92 116.312 190.92 118.625 190.174C122.99 188.831 126.534 185.25 127.765 180.885C128.287 179.206 128.362 177.826 128.175 173.946C127.28 154.772 115.678 137.276 98.2566 128.77C93.7056 126.569 89.8626 125.189 85.9836 124.443C85.9836 124.443 83.4096 123.921 83.4096 123.921C83.4096 123.921 86.0206 122.167 86.0206 122.167C94.3766 116.609 100.271 108.29 102.734 98.6276C102.734 98.6276 103.554 95.3446 103.554 95.3446C103.554 95.3446 105.382 94.7106 105.382 94.7106C109.411 93.3676 113.44 89.9736 115.231 86.4296C117.954 81.1316 117.655 74.2676 114.522 69.3436C112.47 66.1356 108.852 63.3003 105.457 62.2184C105.457 62.2184 104.039 61.7708 104.039 61.7708L104.039 57.6299L104.039 53.4518C104.039 53.4518 105.755 52.3327 105.755 52.3327C107.658 51.0643 109.001 49.4602 109.933 47.3712C110.754 45.4686 110.754 36.6274 109.896 32.8596C108.478 26.7044 105.979 21.2579 102.286 16.4456C95.9806 8.12663 86.9156 3.05323 74.3816 0.81493C71.3596 0.292629 59.9076 -0.229572 58.5266 0.106129ZM74.8666 6.59713C83.3716 8.35053 89.7136 11.4841 94.7126 16.371C100.943 22.4516 104.673 30.6587 104.897 38.8284C104.897 38.8284 104.972 41.8874 104.972 41.8874C104.972 41.8874 78.7466 42.0739 78.7466 42.0739C53.3046 42.2604 52.4836 42.2977 51.9615 42.9692C51.2154 44.0137 51.3273 45.5432 52.1476 46.5878C52.1476 46.5878 52.8566 47.4831 52.8566 47.4831L77.8136 47.6696L102.734 47.8561C102.734 47.8561 99.0396 49.6841 99.0396 49.6841C96.3166 51.027 93.9296 51.8477 89.9006 52.7803C86.9156 53.5264 84.0806 54.2352 83.5956 54.4218C81.8056 55.0932 81.6936 58.003 83.4096 59.1221C84.2676 59.6817 84.6026 59.6817 87.6616 59.0848C90.6466 58.5253 96.0556 57.1077 97.8086 56.3989C98.4806 56.1751 98.4806 56.9212 98.3316 75.3126C98.1816 93.8526 98.1816 94.5986 97.3616 97.4716C93.1456 112.431 80.9096 122.242 65.6146 122.914C58.1166 123.249 51.8869 121.608 45.9554 117.728C38.5318 112.879 33.3464 105.791 30.8843 97.0986C30.0636 94.2256 30.0263 93.5166 29.8771 75.1636C29.8025 64.7556 29.8398 56.2497 29.9144 56.2497C30.0263 56.2497 30.8097 56.5108 31.705 56.8092C34.8013 57.9284 40.4343 59.1967 45.8435 60.0175C50.5439 60.7635 52.7826 60.8755 63.0406 60.8755C74.1576 60.9128 74.9036 60.8755 75.6496 60.204C76.1726 59.719 76.4336 59.0475 76.4336 58.1149C76.4336 55.5782 76.5076 55.6155 63.3766 55.3917C54.1626 55.2424 50.5066 55.0186 46.4777 54.4218C38.0095 53.1534 31.1828 51.2135 27.3031 48.9006C27.3031 48.9006 25.5124 47.8561 25.5124 47.8561C25.5124 47.8561 34.6521 47.6696 34.6521 47.6696C39.6882 47.5577 44.0902 47.3339 44.4632 47.1473C46.03 46.4012 46.2912 44.1257 44.9855 42.8946C44.1648 42.1112 43.7917 42.0739 33.7195 41.9993C33.7195 41.9993 23.2742 41.8874 23.2742 41.8874C23.2742 41.8874 23.3488 38.8284 23.3488 38.8284C23.5726 30.8452 27.3031 22.4143 33.1599 16.6694C39.5017 10.4395 46.1792 7.56713 58.7136 5.73913C61.5116 5.32883 71.1736 5.85103 74.8666 6.59713ZM24.2068 89.4886C24.2068 89.4886 22.6773 88.6306 22.6773 88.6306C21.8193 88.1456 20.4017 86.9886 19.5437 85.9816C14.9552 80.9076 16.1117 72.5896 21.8939 68.8956C22.8265 68.2986 23.7591 67.8146 23.9083 67.8146C24.0576 67.8146 24.2068 72.7006 24.2068 78.6696C24.2068 78.6696 24.2068 89.4886 24.2068 89.4886ZM105.83 68.5226C110.306 70.8356 112.657 77.1776 110.978 82.2886C110.232 84.5266 107.77 87.3986 105.569 88.6306C105.569 88.6306 104.039 89.4886 104.039 89.4886C104.039 89.4886 104.039 78.6696 104.039 78.6696C104.039 72.7006 104.114 67.8146 104.226 67.8146C104.338 67.8146 105.046 68.1496 105.83 68.5226ZM55.5426 133.695C57.2216 136.455 58.5266 138.768 58.4896 138.843C58.4156 138.88 56.9226 139.216 55.2066 139.589C53.4906 139.962 50.9169 140.633 49.5367 141.118C49.5367 141.118 46.9626 141.976 46.9626 141.976C46.9626 141.976 46.9626 135.672 46.9626 135.672C46.9626 128.509 46.6269 129.143 50.5066 128.882C51.5511 128.808 52.4096 128.733 52.4466 128.696C52.4836 128.658 53.9016 130.897 55.5426 133.695ZM68.8976 128.92C68.4876 129.927 64.3096 136.828 64.1226 136.828C63.9366 136.828 59.7586 129.927 59.3476 128.92C59.2736 128.77 61.4366 128.621 64.1226 128.621C66.8086 128.621 68.9726 128.77 68.8976 128.92ZM81.2086 134.926C81.2086 134.926 81.3206 140.633 81.3206 140.633C81.3206 140.633 80.2756 140.372 80.2756 140.372C77.5156 139.663 72.4046 138.693 71.3226 138.693C70.6516 138.693 70.0916 138.544 70.0916 138.358C70.0916 138.134 71.3226 135.933 72.8516 133.396C72.8516 133.396 75.6126 128.808 75.6126 128.808L78.3736 128.994L81.0966 129.181C81.0966 129.181 81.2086 134.926 81.2086 134.926ZM41.3669 136.269C41.3669 139.44 41.3296 142.051 41.255 142.051C41.2177 142.051 39.2406 140.111 36.8904 137.761C36.8904 137.761 32.6376 133.508 32.6376 133.508C32.6376 133.508 33.7568 133.06 33.7568 133.06C36.3308 132.016 40.4716 130.524 40.9193 130.524C41.255 130.486 41.3669 131.867 41.3669 136.269ZM90.3106 131.456C108.329 137.425 121.61 154.958 122.58 174.021C122.803 178.423 122.766 178.647 121.796 180.587C120.64 182.974 118.028 185.1 117.432 184.168C117.245 183.869 117.096 183.235 117.096 182.713C117.096 181.034 115.305 174.394 113.962 170.962C111.276 164.21 107.322 158.465 101.54 152.869C97.8086 149.213 93.4066 146.042 89.2286 143.953C89.2286 143.953 86.8786 142.797 86.8786 142.797C86.8786 142.797 86.8786 136.642 86.8786 136.642C86.8786 133.247 86.9906 130.486 87.1396 130.486C87.3266 130.486 88.7066 130.934 90.3106 131.456ZM36.8158 147.274C36.3681 147.572 35.0997 148.542 34.0179 149.4C32.9361 150.295 31.9288 151.004 31.7796 151.004C31.5931 151.004 29.2429 148.766 26.5197 146.042C26.5197 146.042 21.5208 141.044 21.5208 141.044C21.5208 141.044 23.3488 139.589 23.3488 139.589C24.3187 138.768 25.6617 137.724 26.2585 137.276C26.2585 137.276 27.3777 136.492 27.3777 136.492C27.3777 136.492 32.5257 141.603 32.5257 141.603C37.5992 146.677 37.6365 146.714 36.8158 147.274ZM72.6286 144.513C92.7356 147.497 108.702 163.576 111.649 183.757C111.649 183.757 111.873 185.324 111.873 185.324C111.873 185.324 109.113 185.324 109.113 185.324C106.016 185.324 106.166 185.436 105.718 182.34C105.009 177.901 102.435 171.671 99.4506 167.269C95.7576 161.785 88.8186 156.04 82.5886 153.242C74.0086 149.4 64.0856 148.579 55.1326 151.004C51.4019 152.049 44.7244 155.331 41.5535 157.756C35.9951 161.972 31.1081 168.127 28.6833 174.058C27.4896 176.856 25.699 183.273 25.699 184.616C25.699 185.25 25.4005 185.324 22.8638 185.324C22.8638 185.324 20.0287 185.324 20.0287 185.324C20.0287 185.324 20.2898 183.273 20.2898 183.273C20.9986 177.602 24.0949 169.544 27.5642 164.434C33.8687 155.182 43.3068 148.467 54.1626 145.595C60.5786 143.879 66.2116 143.543 72.6286 144.513ZM27.5642 155.294C27.5642 155.294 25.9974 157.159 25.9974 157.159C20.2898 163.986 16.0744 173.461 14.806 182.153C14.2837 185.735 14.1718 185.809 11.2247 184.802C8.87458 183.944 7.49429 182.75 6.41238 180.549C5.47979 178.647 5.44249 178.386 5.66629 174.021C5.96479 167.716 7.45699 162.009 10.3294 156.077C12.3066 152.011 16.6712 145.408 17.4173 145.408C17.5665 145.408 19.9167 147.647 22.64 150.37C22.64 150.37 27.5642 155.294 27.5642 155.294ZM74.1946 156.264C78.4106 157.234 84.7896 160.405 88.2586 163.315C94.3026 168.313 98.5926 175.327 100.048 182.564C100.048 182.564 100.57 185.138 100.57 185.138L92.5116 185.25L84.4916 185.324L75.7996 176.67L67.1076 167.978L67.1076 161.524L67.1076 155.07C67.1076 155.07 69.0846 155.331 69.0846 155.331C70.1286 155.443 72.4416 155.891 74.1946 156.264ZM61.1386 161.972C61.1386 161.972 58.5266 159.398 58.5266 159.398C57.1096 157.98 55.9906 156.749 56.0646 156.674C56.2886 156.45 59.7206 155.555 60.5046 155.518C61.0636 155.481 61.1386 155.854 61.1386 158.726C61.1386 158.726 61.1386 161.972 61.1386 161.972ZM76.2466 185.324L71.0246 185.324L65.8016 185.324L54.7216 174.245L43.6798 163.203C43.6798 163.203 44.5378 162.531 44.5378 162.531C46.1046 161.263 49.3501 159.211 49.7605 159.211C49.947 159.211 56.0276 165.068 63.1906 172.268C63.1906 172.268 76.2466 185.324 76.2466 185.324ZM57.5946 185.324C57.5946 185.324 44.4259 185.324 44.4259 185.324C37.2261 185.324 31.2947 185.212 31.2947 185.026C31.2947 183.534 33.1599 177.751 34.4656 175.066C35.9578 172.007 38.9794 167.418 39.5017 167.418C39.6136 167.418 43.7171 171.447 48.6413 176.371C48.6413 176.371 57.5946 185.324 57.5946 185.324Z" fill="#8E8E8E" transform="translate(47.877 36.58)" />
    <path d="M0.994583 0.784004C-0.273819 1.791 -0.348419 3.656 0.882584 4.775C1.74058 5.559 2.03908 5.596 10.2461 5.596C10.2461 5.596 18.7138 5.596 18.7138 5.596C18.7138 5.596 19.6098 4.663 19.6098 4.663C20.1318 4.178 20.5418 3.32 20.5418 2.798C20.5418 2.276 20.1318 1.418 19.6098 0.932999C19.6098 0.932999 18.7138 0 18.7138 0C18.7138 0 10.358 0 10.358 0C2.44938 0 1.92719 0.038002 0.994583 0.784004Z" fill="#8E8E8E" transform="translate(85.116 102.156)" />
    <path d="M0.931999 0.932999C0.409996 1.418 0 2.276 0 2.798C0 3.32 0.409996 4.178 0.931999 4.663C0.931999 4.663 1.828 5.596 1.828 5.596C1.828 5.596 10.37 5.596 10.37 5.596C18.801 5.596 18.913 5.596 19.697 4.738C20.853 3.507 20.779 1.75401 19.547 0.784004C18.615 0.038002 18.093 0 10.184 0C10.184 0 1.828 0 1.828 0C1.828 0 0.931999 0.932999 0.931999 0.932999Z" fill="#8E8E8E" transform="translate(118.342 102.156)" />
    <path d="M2.7232 0.413193C1.38029 1.04719 0 2.98719 0 4.29319C0 5.67319 1.04449 7.50119 2.201 8.21019C4.3273 9.47819 7.3117 8.69519 8.39349 6.60619C9.32619 4.77819 9.10229 3.02419 7.7594 1.57019C6.3045 0.00318909 4.5139 -0.407806 2.7232 0.413193Z" fill="#8E8E8E" transform="translate(89.617 116.068)" />
    <path d="M2.76 0.269112C1.417 0.791107 0 2.80611 0 4.22311C0 7.80511 3.544 9.93111 6.67699 8.29011C7.83401 7.73011 8.953 5.71611 8.953 4.29811C8.953 1.53711 5.372 -0.812889 2.76 0.269112Z" fill="#8E8E8E" transform="translate(125.43 116.063)" />
    <path d="M1.45418 0.373001C0.969185 0.597 0.484184 1.269 0.18618 2.164C-0.783821 5.409 2.16318 10.446 6.08018 12.311C8.46718 13.43 12.1232 13.43 14.5112 12.311C20.6292 9.43799 22.9422 0 17.5322 0C16.5252 0 15.2572 1.679 14.9962 3.31999C14.8092 4.439 14.3622 5.33499 13.5042 6.19299C12.3842 7.312 12.0112 7.461 10.2952 7.461C8.57918 7.461 8.20618 7.312 7.08718 6.19299C6.22918 5.33499 5.78118 4.439 5.59518 3.31999C5.14718 0.671997 3.54318 -0.485001 1.45418 0.373001Z" fill="#8E8E8E" transform="translate(101.705 133.865)" />
    <g clip-path="url(#clip_path_1)" transform="translate(74.539 189.262)">
      <g transform="translate(0 0)">
        <path d="M8.9174 11.087C8.9174 11.087 31.5728 0 31.5728 0L46.9968 2.17L62.5418 10.243L74.5148 33.983L0 33.983C0 33.983 8.9174 11.087 8.9174 11.087Z" fill="#FCFCFC" transform="translate(2.598 1.545)" />
        <path d="M31.0499 0.918594C17.2502 3.79359 6.1334 13.9136 1.0733 28.2506C0.0382996 31.1256 0 31.5086 0 38.7156C0 44.5806 0.153297 46.8426 0.728302 49.2576C1.9933 54.7776 5.3284 60.7186 9.7367 65.2806C15.4868 71.2996 20.8919 74.6346 28.3669 76.8576C33.3119 78.3526 40.6719 78.6206 45.8089 77.5096C57.3469 75.0556 69.4989 65.2036 73.7539 54.8926C75.0959 51.6336 76.3609 46.5736 76.9359 42.2806C77.3959 38.7536 76.9359 32.9266 75.8629 28.9016C74.3679 23.0756 70.6879 16.5966 66.2409 11.8816C62.7519 8.16359 59.8769 6.0546 55.2009 3.7166C47.7639 -0.00140381 39.8669 -0.921402 31.0499 0.918594ZM31.4339 7.3586C31.1649 10.5396 30.7049 14.2206 29.5169 22.0406C28.9419 25.9886 28.7889 26.3336 27.5999 27.4066C26.9099 28.0206 26.1439 28.9016 25.9519 29.3236C25.5689 30.0516 24.8786 30.1666 16.9818 30.7806C12.2668 31.1636 7.4367 31.4316 6.21 31.4316C6.21 31.4316 3.9483 31.4316 3.9483 31.4316C3.9483 31.4316 4.2167 30.1666 4.2167 30.1666C5.06 26.2186 9.5451 18.2456 12.9951 14.6036C14.9885 12.4956 20.0485 8.66159 22.6169 7.3586C24.6102 6.32359 30.2839 4.2536 31.2039 4.2146C31.5869 4.2146 31.6639 4.8286 31.4339 7.3586ZM49.1059 5.01959C53.9359 6.2466 57.9989 8.7766 62.5219 13.2236C64.6689 15.3316 67.1219 18.1306 67.9279 19.4336C69.8059 22.3466 72.1439 27.6756 72.4889 29.8606C72.4889 29.8606 72.7579 31.5086 72.7579 31.5086C72.7579 31.5086 70.4959 31.3166 70.4959 31.3166C69.2689 31.1636 64.5159 30.8566 59.9919 30.6266C59.9919 30.6266 51.7509 30.1666 51.7509 30.1666L49.9869 28.3266L48.1859 26.4866C48.1859 26.4866 46.9969 16.7886 46.9969 16.7886C46.3069 11.4606 45.6939 6.4386 45.5789 5.63359C45.4639 4.86659 45.5019 4.2146 45.6939 4.2146C45.8859 4.2146 47.4189 4.5596 49.1059 5.01959ZM43.1639 28.3266C49.3359 30.6656 52.3639 37.5266 49.9489 43.5836C47.9559 48.4906 44.8889 50.7526 39.6369 51.2506C35.3819 51.6726 30.2839 49.3336 28.2519 46.0756C26.6039 43.3926 26.1049 41.9356 26.1049 39.3286C26.0669 35.5336 26.8719 33.4636 29.3249 31.0106C33.0819 27.2156 37.8739 26.2956 43.1639 28.3266ZM25.5689 48.6826L27.3319 50.4836L29.0949 52.2856C29.0949 52.2856 29.4019 56.5406 29.4019 56.5406C29.7089 60.5276 30.5139 68.1176 31.0889 72.1426C31.3189 73.8296 31.2799 73.9826 30.5519 73.9826C28.5199 73.9826 23.5752 71.9506 20.2402 69.7656C11.9984 64.3226 5.635 55.8126 4.2167 48.2226C4.2167 48.2226 3.9867 46.9186 3.9867 46.9186C3.9867 46.9186 7.7434 47.2256 7.7434 47.2256C9.8134 47.3786 14.6435 47.8006 18.5152 48.1076C18.5152 48.1076 25.5689 48.6826 25.5689 48.6826ZM72.6429 47.3026C72.6429 48.7206 70.5729 54.1256 69.0389 56.8476C65.6269 62.8276 61.5259 66.8526 54.7409 70.8396C52.5939 72.1046 47.7259 73.9826 46.5369 73.9826C45.5789 73.9826 45.5789 73.0246 46.5759 64.8976C48.1089 51.9406 47.9939 52.5156 49.9869 50.3686C49.9869 50.3686 51.7889 48.4526 51.7889 48.4526C51.7889 48.4526 60.7589 47.7626 60.7589 47.7626C68.8089 47.1486 70.4189 47.0336 72.1829 46.8036C72.4129 46.8036 72.6429 47.0336 72.6429 47.3026Z" fill="#8E8E8E" />
      </g>
    </g>
    <path d="M45.6917 15.787C39.7347 15.787 34.1547 13.996 31.2827 11.075C27.9797 13.996 18.4536 15.787 15.4683 15.787C12.483 15.787 -1.2817 14.965 0.0967026 2.241C6.3731 10.113 19.1147 -0.000999451 24.2517 0C28.7967 0 28.9187 2.241 31.2827 2.241C33.4647 2.241 34.1547 0 38.3567 0C43.9037 0 52.8847 7.94501 62.6057 2.241C60.9087 13.996 48.8727 15.787 45.6917 15.787Z" fill="#9A93FA" transform="translate(80.903 125.67)" />
  </g>
</svg>