<?xml version="1.0" encoding="utf-8"?>
<svg width="180.22" height="180.22" viewBox="0 0 180.22 180.22" fill="none" xmlns="http://www.w3.org/2000/svg">
  <defs>
    <linearGradient id="gradient_1" gradientUnits="userSpaceOnUse" x1="15.497" y1="4.109" x2="160.854" y2="175.988">
      <stop offset="0" stop-color="#2A10A1" stop-opacity="0.529" />
      <stop offset="0.8" stop-color="#3017BD" />
    </linearGradient>
    <filter color-interpolation-filters="sRGB" x="-175" y="-174" width="177" height="176" id="filter_2">
      <feFlood flood-opacity="0" result="BackgroundImageFix_1" />
      <feColorMatrix type="matrix" values="0 0 0 0 0 0 0 0 0 0 0 0 0 0 0 0 0 0 1 0" in="SourceAlpha" />
      <feOffset dx="1" dy="1" />
      <feGaussianBlur stdDeviation="1" />
      <feColorMatrix type="matrix" values="0 0 0 0 0 0 0 0 0 0 0 0 0 0 0 0 0 0 0.486 0" />
      <feBlend mode="normal" in2="BackgroundImageFix_1" result="Shadow_2" />
      <feBlend mode="normal" in="SourceGraphic" in2="Shadow_2" result="Shape_3" />
    </filter>
  </defs>
  <g>
    <g transform="translate(0 0.31)">
      <g>
        <g>
          <g>
            <path d="M0 30.8001C0 22.2948 3.02413 15.0352 9.07239 9.02112C15.1207 3.00704 22.4215 0 30.975 0C30.975 0 146.025 0 146.025 0C154.58 0 161.88 3.00704 167.928 9.02112C173.977 15.0352 177 22.2948 177 30.8001C177 30.8001 177 145.2 177 145.2C177 153.706 173.977 160.964 167.928 166.979C161.88 172.994 154.58 176 146.025 176C146.025 176 30.975 176 30.975 176C22.4215 176 15.1207 172.994 9.07239 166.979C3.02413 160.964 0 153.706 0 145.2C0 145.2 0 61.6001 0 61.6001C0 61.6001 0 30.8001 0 30.8001Z" fill="url(#gradient_1)" fill-rule="evenodd" filter="url(#filter_2)" />
            <g transform="translate(25.11 39.467)">
              <g>
                <g>
                  <path d="M0 74.778L0 0L53.5527 0L53.5527 56.8312" fill="none" stroke-width="6.2" stroke="#F7F4FF" stroke-linecap="round" stroke-linejoin="round" transform="translate(0 11.555)" />
                  <path d="M0 0C0 0 34.0399 0 34.0399 0C34.0399 0 34.0399 11.5554 34.0399 11.5554C34.0399 11.5554 0 11.5554 0 11.5554C0 11.5554 0 0 0 0Z" fill="none" stroke-width="6.2" stroke="#F7F4FF" stroke-linecap="round" stroke-linejoin="round" transform="translate(9.04 0)" />
                  <path d="M0 0L7.85538 0" fill="none" stroke-width="6.2" stroke="#F7F4FF" stroke-linecap="round" stroke-linejoin="round" transform="translate(16.894 27.641)" />
                  <path d="M0 0L7.85539 0" fill="none" stroke-width="6.2" stroke="#F7F4FF" stroke-linecap="round" stroke-linejoin="round" transform="translate(35.224 27.641)" />
                  <path d="M0 0L7.85538 0" fill="none" stroke-width="6.2" stroke="#F7F4FF" stroke-linecap="round" stroke-linejoin="round" transform="translate(16.894 41.993)" />
                  <path d="M0 0L7.85539 0" fill="none" stroke-width="6.2" stroke="#F7F4FF" stroke-linecap="round" stroke-linejoin="round" transform="translate(35.224 41.993)" />
                  <path d="M0 17.3331L0 0L17.0199 0L17.0199 17.3331" fill="none" stroke-width="6.2" stroke="#F7F4FF" stroke-linecap="round" stroke-linejoin="round" transform="translate(12.966 64)" />
                  <path d="M0 0L31.4213 0" fill="none" stroke-width="6.2" stroke="#F7F4FF" stroke-linecap="round" stroke-linejoin="round" transform="translate(71.845 27.437)" />
                  <path d="M0 0L14.4014 10.3999L0 20.7998" fill="none" stroke-width="6.2" stroke="#F7F4FF" stroke-linecap="round" stroke-linejoin="round" transform="translate(88.756 17.067)" />
                </g>
              </g>
            </g>
            <g transform="translate(79 92)">
              <path d="M25.4536 0.0432696C19.0729 -0.167414 13.9611 0.394491 11.3172 1.65872C6.91063 3.76567 2.68027 9.06843 1.37591 14.1956C0.847044 16.3026 -0.0341757 30.1389 0.00102313 36.144C0.00102313 40.3229 0.282989 40.7092 3.24433 40.7092C3.24433 40.7092 5.60628 40.7092 5.60628 40.7092C5.60628 40.7092 6.69907 42.3948 6.69907 42.3948C7.43937 43.5186 8.42644 44.3966 9.69559 45.0989C13.6792 47.2761 18.4383 46.1173 21.3995 42.1841C21.3995 42.1841 22.7392 40.4283 22.7392 40.4283C22.7392 40.4283 36.0647 40.358 36.0647 40.358C36.0647 40.358 49.3903 40.3229 49.3903 40.3229C49.3903 40.3229 50.4832 42.0085 50.4832 42.0085C51.6112 43.7293 52.2106 44.2209 54.4315 45.3096C56.3704 46.2227 57.992 46.3982 59.8957 45.8012C62.3633 45.0989 64.3375 43.7293 65.5714 41.9032C66.5937 40.3932 66.629 40.358 68.6032 40.358C73.045 40.358 73.609 39.3397 73.3975 32.1054C73.2565 27.8562 73.1507 26.9432 72.4457 25.5034C70.5068 21.5703 66.5585 18.6555 61.9051 17.7776C59.7899 17.3913 59.7194 17.3561 59.0143 15.7056C58.133 13.6688 54.8193 9.24405 52.2106 6.64534C50.1659 4.60853 46.8521 2.46638 44.2082 1.48311C42.3397 0.780783 40.3227 0.183681 38.5792 0.183681C35.0731 0.183681 34.7045 0.183681 31.8438 0.183681C31.8438 0.183681 29.4019 0.183681 29.4019 0.183681C29.4019 0.183681 25.4536 0.0432696 25.4536 0.0432696ZM24.0435 5.5918C15.3007 5.5918 12.8684 6.25904 10.0481 9.27913C8.17967 11.2809 6.98116 13.9147 6.66387 16.5835C6.66387 16.5835 6.4171 18.6203 6.4171 18.6203C6.4171 18.6203 5.00689 18.515 5.00689 18.515C5.00689 18.515 3.59681 18.4449 3.59681 18.4449C3.59681 18.4449 3.77306 16.7591 3.77306 16.7591C4.01983 14.6873 6.38177 10.0517 8.32071 7.90956C9.20205 6.89122 10.6473 5.83768 12.269 5.02989C15.1245 3.62526 17.6627 3.27404 25.4536 3.16869C25.4536 3.16869 29.4019 3.13362 29.4019 3.13362C29.4019 3.13362 29.4019 4.36277 29.4019 4.36277C29.4019 4.36277 29.4019 5.5918 29.4019 5.5918C29.4019 5.5918 24.0435 5.5918 24.0435 5.5918ZM41.9167 3.871C44.7722 4.36264 47.1342 5.69714 49.637 8.22559C52.8803 11.4915 56.5466 16.6187 56.5466 17.883C56.5466 18.1287 55.9826 18.2341 55.066 18.1639C53.6559 18.0586 53.5149 17.9531 53.0214 16.6187C51.6817 12.9665 47.945 8.64708 44.5606 6.82095C42.6922 5.80248 42.4103 5.76741 37.4396 5.66207C32.3279 5.52153 32.2222 5.52153 32.2222 4.74894C32.2222 4.32758 32.3984 3.80087 32.61 3.59019C33.033 3.1687 38.7791 3.34431 41.9167 3.871ZM21.7521 17.286C18.121 17.4264 13.8201 17.5317 12.2338 17.5317C8.81425 17.5317 8.77905 17.4615 10.2243 14.3712C11.423 11.8076 12.5158 10.4029 14.1374 9.41966C15.9001 8.33091 17.4159 8.12024 23.2327 8.19051C23.2327 8.19051 28.1681 8.22558 28.1681 8.22558C28.1681 8.22558 28.2738 12.6504 28.2738 12.6504C28.2738 12.6504 28.3796 17.0752 28.3796 17.0752C28.3796 17.0752 21.7521 17.286 21.7521 17.286ZM42.1282 8.75243C45.019 10.2273 49.8486 15.1086 49.8486 16.5134C49.8486 17.1454 49.4256 17.1805 41.1764 17.1805C41.1764 17.1805 32.5041 17.1805 32.5041 17.1805C32.5041 17.1805 32.7157 16.0919 32.7157 16.0919C32.8214 15.4949 32.9271 13.5635 32.9271 11.8428C32.9271 8.96311 32.9977 8.71723 33.738 8.40119C34.7604 7.94463 41.0706 8.22559 42.1282 8.75243ZM27.1458 37.5486C24.0787 37.5486 23.7614 37.373 23.7614 35.8279C23.7262 33.1239 20.7649 28.9449 17.9447 27.6807C16.182 26.8729 12.692 26.8028 10.8941 27.5754C9.0962 28.3128 5.53575 31.7191 5.11274 33.1239C4.93637 33.7209 4.6896 34.95 4.54868 35.863C4.40764 37.057 4.16087 37.5486 3.77306 37.5486C3.27952 37.5486 3.24433 37.1272 3.45577 34.2828C3.56162 32.5269 3.77306 28.664 3.87878 25.7843C3.87878 25.7843 4.12567 20.4815 4.12567 20.4815C4.12567 20.4815 16.7461 20.4114 16.7461 20.4114C16.7461 20.4114 29.4019 20.3061 29.4019 20.3061C29.4019 20.3061 29.4019 28.9097 29.4019 28.9097C29.4019 28.9097 29.4019 37.5486 29.4019 37.5486C29.4019 37.5486 27.1458 37.5486 27.1458 37.5486ZM60.3892 20.6923C61.8346 20.8678 63.8793 21.4297 64.9369 21.9214C64.9369 21.9214 66.911 22.8345 66.911 22.8345C66.911 22.8345 65.7124 23.7826 65.7124 23.7826C64.7958 24.5552 64.5491 25.0117 64.5843 25.9599C64.6196 27.5402 66.911 30.7709 68.8146 31.8947C68.8146 31.8947 70.2952 32.8077 70.2952 32.8077C70.2952 32.8077 70.2248 34.9148 70.2248 34.9148C70.2248 34.9148 70.119 37.0219 70.119 37.0219C70.119 37.0219 68.8146 37.1272 68.8146 37.1272C67.5103 37.2326 67.4751 37.1975 67.4751 36.0737C67.4045 32.1054 63.985 28.3479 59.2964 27.1188C57.2164 26.592 56.9345 26.592 55.0307 27.1539C53.3739 27.6455 52.5279 28.1723 50.9062 29.7526C48.9321 31.6841 48.3327 32.878 47.5924 36.2142C47.381 37.1272 47.3456 37.1272 43.4326 37.373C41.2468 37.4785 37.8626 37.5486 35.9237 37.4785C35.9237 37.4785 32.3984 37.373 32.3984 37.373C32.3984 37.373 32.2927 29.1556 32.2927 29.1556C32.2222 22.7993 32.3279 20.8678 32.6452 20.6221C33.2798 20.2358 57.2164 20.3061 60.3892 20.6923ZM69.9428 27.0135C70.1544 27.5402 70.2953 28.383 70.2249 28.8396C70.2249 28.8396 70.1191 29.6473 70.1191 29.6473C70.1191 29.6473 69.1673 28.6991 69.1673 28.6991C67.863 27.4348 67.8276 25.363 69.0615 25.8194C69.3082 25.9249 69.6961 26.4516 69.9428 27.0135ZM61.341 31.2978C63.2446 32.5971 64.3022 34.5637 64.3022 36.8814C64.3022 38.6022 64.126 39.129 63.1389 40.4283C61.0589 43.1674 58.0625 43.9049 55.1365 42.3598C53.9731 41.7628 53.3033 41.0253 52.422 39.4801C50.6241 36.2143 50.9062 34.3179 53.6911 31.8245C54.9955 30.6305 55.489 30.4198 57.4279 30.0686C58.4502 29.893 60.0013 30.3846 61.341 31.2978ZM15.6885 30.5252C17.3102 30.9817 19.7073 33.475 20.2362 35.3362C21.329 38.9884 17.9799 43.1674 13.9611 43.1674C10.2597 43.1674 7.8977 40.5687 7.8977 36.6005C7.8977 34.6339 8.70853 33.1239 10.4711 31.7543C12.41 30.3145 13.7496 29.9983 15.6885 30.5252Z" fill="#FDFCFF" />
              <path d="M0.452587 0.226484C-0.21719 0.472363 -0.111469 2.33356 0.558311 2.57932C1.40433 2.89534 4.43619 2.8252 5.42326 2.43891C6.41032 2.08768 6.62177 1.10441 5.91679 0.402092C5.49378 -0.0193939 1.33393 -0.159809 0.452587 0.226484Z" fill="#FDFCFF" transform="translate(33.99 22.115)" />
              <path d="M2.29143 0.470564C0.846024 1.10274 0 2.4723 0 4.19296C0 7.03755 1.58645 9.07436 4.30089 9.63627C5.60525 9.95229 7.57938 8.93382 8.46073 7.52919C9.83561 5.31677 8.95427 1.34849 6.87428 0.400293C5.67577 -0.161482 3.63111 -0.126411 2.29143 0.470564ZM5.92256 3.91215C6.83911 5.84348 5.07641 7.59947 3.49009 6.33525C1.97416 5.14117 2.92603 2.61273 4.75912 2.85861C5.14693 2.92875 5.67579 3.38531 5.92256 3.91215Z" fill="#FDFCFF" transform="translate(53.375 31.951)" />
              <path d="M3.18046 0.289371C-0.274286 1.48333 -1.08511 5.66229 1.59414 8.33128C4.30857 11.0704 9.17352 8.50676 9.17352 4.3278C9.17352 1.1673 6.28271 -0.76417 3.18046 0.289371ZM5.8597 3.69576C6.42375 4.74929 5.93022 6.04859 4.8373 6.46996C4.02648 6.78611 3.81504 6.71584 3.28618 6.08366C2.47535 5.06532 2.47535 4.15232 3.3215 3.30946C4.13233 2.5018 5.33084 2.67729 5.8597 3.69576Z" fill="#FDFCFF" transform="translate(9.477 32.167)" />
            </g>
          </g>
        </g>
      </g>
    </g>
  </g>
</svg>