<?xml version="1.0" encoding="utf-8"?>
<svg width="309" height="343" viewBox="0 0 309 343" fill="none" xmlns="http://www.w3.org/2000/svg">
  <defs>
    <linearGradient id="gradient_1" gradientUnits="userSpaceOnUse" x1="117.293" y1="-47.392" x2="293.7" y2="23.683">
      <stop offset="0" stop-color="#BEB9FA" />
      <stop offset="1" stop-color="#8D84FA" />
    </linearGradient>
  </defs>
  <g>
    <path d="M45.2759 37.7556C45.6386 36.7666 44.4259 34.1708 41.4749 33.7193C38.5238 33.2678 32.6598 34.9654 30.4833 36.3264C29.9906 35.8767 30.0246 34.5786 30.0671 32.9535C30.1382 30.234 30.2333 26.5988 27.9244 24.4913C23.7199 20.6538 20.9141 22.1926 20.9141 22.1926C20.9141 22.1926 25.4701 16.0117 34.1323 27.5485C36.0365 30.0847 34.2853 17.9079 25.9789 13.2206C25.3042 12.8399 26.2073 12.5265 27.603 12.0421C29.9559 11.2256 33.7088 9.92323 33.6639 6.99354C33.6527 6.26414 31.021 2.45144 27.3213 0.843966C25.3048 -0.0321245 21.5216 -1.47172 16.9123 4.05994C16.7016 4.31284 16.4715 4.54284 16.4715 4.54284C11.6874 3.37684 0.960901 8.39004 0.097702 13.0204C-0.765598 17.6508 4.3352 18.7308 5.844 16.1864C7.865 13.2044 12.4077 7.56223 15.2568 7.92064C16.4516 8.07094 17.2515 11.8508 16.4634 13.3113C15.8585 14.2881 13.6158 16.0114 11.2578 17.8234C8.9529 19.5944 6.5377 21.4503 5.4338 22.7767C-2.1772 31.922 7.1977 38.1638 7.1977 38.1638C7.1977 38.1638 6.8477 38.5473 6.8477 38.5473C4.6913 38.1441 2.2088 40.8862 1.8281 43.3738C1.4872 45.6019 4.419 48.8409 7.39 48.1508C10.4003 46.9281 11.3027 45.3211 11.3467 42.6538C11.3567 42.0495 11.9956 42.0082 13.0187 41.9421C14.7228 41.8319 17.4927 41.6528 20.1978 38.6892C22.6096 36.0468 22.9963 37.6627 23.5283 39.8857C23.8719 41.3217 24.2762 43.0112 25.3263 43.9697C27.2529 45.7281 28.837 44.3669 30.6006 42.8514C31.2863 42.2622 31.9991 41.6496 32.7698 41.1881C35.2234 39.7185 37.6247 39.9685 39.6976 40.1842C42.1931 40.444 44.2129 40.6542 45.2759 37.7556ZM25.4554 5.23264C25.8504 4.79984 25.8125 4.12214 25.3708 3.71894C24.929 3.31574 24.2507 3.33974 23.8557 3.77254C23.4607 4.20534 23.4986 4.88294 23.9403 5.28614C24.3821 5.68934 25.0604 5.66544 25.4554 5.23264Z" fill="#ABA5FA" fill-rule="evenodd" transform="translate(23.637 8.119)" />
    <path d="M0.517299 9.02322C0.193666 8.72783 0.0218639 8.36127 0.00189686 7.92355C-0.0180712 7.48583 0.119642 7.10515 0.415037 6.78152L6.13267 0.517296C6.42807 0.193665 6.79462 0.021862 7.23234 0.0018959C7.67006 -0.018074 8.05074 0.11964 8.37437 0.415035C8.69801 0.71043 8.8698 1.07699 8.88977 1.51471C8.90974 1.95243 8.77203 2.3331 8.47663 2.65674L2.759 8.92096C2.4636 9.24459 2.09705 9.41639 1.65933 9.43636C1.22161 9.45633 0.840933 9.31861 0.517299 9.02322L0.517299 9.02322Z" fill="#ABA5FA" fill-rule="evenodd" transform="translate(12.623 49.08)" />
    <path d="M0.517299 9.02322C0.193666 8.72783 0.0218639 8.36127 0.00189686 7.92355C-0.0180712 7.48583 0.119642 7.10515 0.415037 6.78152L6.13267 0.5173C6.42807 0.193665 6.79462 0.021862 7.23234 0.0018959C7.67006 -0.018074 8.05074 0.11964 8.37437 0.415035C8.69801 0.71043 8.8698 1.07699 8.88977 1.51471C8.90974 1.95243 8.77203 2.3331 8.47663 2.65673L2.759 8.92096C2.4636 9.24459 2.09705 9.41639 1.65933 9.43636C1.22161 9.45633 0.840933 9.31861 0.517299 9.02322L0.517299 9.02322Z" fill="#ABA5FA" fill-rule="evenodd" transform="translate(12.082 41.957)" />
    <path d="M0 147.113C0 65.8647 65.8647 0 147.113 0C228.361 0 294.226 65.8647 294.226 147.113C294.226 228.361 228.361 294.226 147.113 294.226C65.8647 294.226 0 228.361 0 147.113Z" fill="none" stroke-width="3.996" stroke="url(#gradient_1)" stroke-dasharray="4 7,99" transform="translate(7.337 24.178)" />
    <path d="M61.5989 49.2119C63.1589 47.8369 62.7589 47.9869 64.8889 46.1109C67.3359 43.9539 69.5869 41.1649 70.5029 39.1899C71.7659 36.4669 71.6889 30.8999 70.2709 23.5359C70.0099 22.2359 70.1159 21.5789 70.8349 20.0199C71.8799 17.6899 72.3999 12.8449 71.8419 10.8409C71.4439 9.33987 70.0569 7.58289 68.5769 6.63388C67.7539 6.11188 67.6569 5.95587 67.7959 5.10889C67.9789 3.90088 67.5469 2.26889 66.8079 1.43088C66.1489 0.682892 63.3599 -0.199127 62.4029 0.0398865C62.0339 0.123871 60.4839 1.28888 58.9209 2.66589C58.9209 2.66589 56.1119 5.14188 56.1119 5.14188C56.1119 5.14188 54.3889 4.64789 54.3889 4.64789C50.9619 3.68289 48.3769 4.31189 45.5679 6.78787C43.3019 8.78387 42.5239 10.2759 42.3459 13.0889C42.2629 14.4099 42.2869 15.7159 42.4389 16.0249C42.6629 16.5529 42.4109 16.8149 38.3329 20.4089C35.9319 22.5259 30.4639 27.4649 26.1709 31.4089C26.1709 31.4089 18.3619 38.5329 18.3619 38.5329C18.3619 38.5329 16.8519 38.0529 16.8519 38.0529C13.4989 36.9429 10.5669 37.6349 7.5769 40.2709C5.46989 42.1269 4.8589 43.6719 4.77791 47.3259C4.77791 47.3259 4.7009 50.2519 4.7009 50.2519C4.7009 50.2519 2.48691 52.4439 2.48691 52.4439C0.570908 54.3339 0.242905 54.7839 0.0729065 55.7789C-0.163101 57.1549 0.198898 59.2099 0.797897 59.8899C1.51691 60.7059 3.02991 61.1429 4.43491 60.9109C4.43491 60.9109 5.7749 60.6959 5.7749 60.6959C5.7749 60.6959 7.35091 62.8489 7.35091 62.8489C9.7919 66.2129 11.2889 67.2269 14.0769 67.4669C17.4789 67.8099 21.5869 65.7579 26.8879 61.0859C26.8879 61.0859 29.1089 59.1299 29.1089 59.1299C29.1089 59.1299 30.9239 59.8649 30.9239 59.8649C33.7829 61.0079 38.8149 62.2879 40.9889 62.4249C43.6969 62.5739 45.8989 61.9219 48.6869 60.1079C48.6869 60.1079 50.9659 58.5829 50.9659 58.5829C50.9659 58.5829 56.4479 53.7509 56.4479 53.7509C57.3289 52.9739 58.5909 51.8619 61.5989 49.2119ZM51.9729 46.3439C50.1909 44.4129 48.7129 42.7369 48.6789 42.6059C48.6239 42.4529 51.8039 39.5299 55.7229 36.0759C55.7229 36.0759 62.8589 29.7869 62.8589 29.7869C62.8589 29.7869 63.1599 30.4469 63.1599 30.4469C64.5309 33.4649 64.8499 37.5719 63.8789 40.0779C62.9479 42.6289 62.2039 43.5659 58.3729 46.9829C58.3729 46.9829 55.1979 49.8209 55.1979 49.8209C55.1979 49.8209 51.9729 46.3439 51.9729 46.3439ZM43.9489 58.5679C43.1459 58.7529 41.6379 58.9139 40.5929 58.8699C38.6489 58.8109 32.8919 57.4859 32.4729 57.0099C32.3129 56.8289 34.1789 55.0639 39.2759 50.5709C39.2759 50.5709 46.2989 44.3819 46.2989 44.3819L49.6129 48.1419L52.9469 51.9259C52.9469 51.9259 49.1549 55.0669 49.1549 55.0669C45.8359 57.8309 45.2319 58.2429 43.9489 58.5679ZM43.8229 40.8879C43.4929 40.6959 42.8139 39.9259 42.2859 39.1439C41.7579 38.3619 39.7009 36.0279 37.7339 33.9789C34.2809 30.3799 34.0979 30.2189 33.5229 30.5249C33.2139 30.6769 31.1599 32.3659 28.9859 34.2829C28.9859 34.2829 24.9809 37.7309 24.9809 37.7309C23.9639 38.3059 25.3209 37.4309 23.0319 39.4489C23.6209 38.9299 22.3729 40.0699 22.5929 40.3189C23.7709 41.6559 25.1579 48.1619 24.6759 50.0349C24.0109 52.4329 19.9399 56.2619 16.8809 57.2669C14.9569 57.9159 11.7239 57.6269 9.19991 56.5899C9.19991 56.5899 6.8869 55.6099 6.8869 55.6099L5.29291 57.1359L3.7019 58.6179C3.7019 58.6179 3.04291 57.8709 3.04291 57.8709C1.82491 56.4889 1.98289 56.0279 4.2179 54.1789C4.2179 54.1789 6.2029 52.5499 6.2029 52.5499C6.2029 52.5499 7.49991 53.7019 7.49991 53.7019C11.1469 56.9269 16.0899 56.9179 19.7599 53.6829C21.6859 51.9859 22.4959 50.6679 22.7449 48.7579C23.7929 44.6949 20.8709 41.3789 20.2719 40.6999C20.0119 40.4049 21.5039 39.2659 21.6029 39.0589C21.7949 38.7279 37.5349 24.5739 41.6729 21.0479C41.6729 21.0479 43.3009 19.6529 43.3009 19.6529C43.3009 19.6529 44.4759 20.7109 44.4759 20.7109C46.1169 22.1619 49.1859 23.3619 51.1979 23.3599C54.9899 23.2779 58.5349 20.9989 60.0059 17.6899C61.4569 14.3579 61.2299 11.1769 59.3009 7.84589C59.3009 7.84589 58.3569 6.18188 58.3569 6.18188C58.3569 6.18188 59.1809 5.33588 59.1809 5.33588C59.6589 4.87387 60.7189 4.02087 61.5229 3.47189C62.8639 2.57288 63.1679 2.50589 64.1319 2.82388C65.0329 3.11588 65.2159 3.27689 65.2259 3.79089C65.2589 4.28589 64.8689 4.70987 63.3359 5.93988C63.3359 5.93988 61.4639 7.46887 61.4639 7.46887C61.4639 7.46887 61.9969 9.53488 61.9969 9.53488C63.0679 13.5819 62.6759 16.7459 60.7069 19.8089C58.9249 22.6279 54.9869 25.0109 51.9169 25.1809C49.9209 25.2909 46.8869 24.5429 45.0049 23.5039C42.2359 21.9599 42.9789 21.7079 38.9079 25.5369C38.9079 25.5369 35.2929 28.9249 35.2929 28.9249C35.2929 28.9249 39.9709 34.4619 39.9709 34.4619C42.5389 37.5119 44.6789 40.2149 44.7279 40.4529C44.8159 41.0999 44.4609 41.2919 43.8229 40.8879ZM68.3439 13.0379C67.8319 11.3159 67.2149 9.56488 66.9839 9.16489C66.7949 8.76788 66.6469 8.05289 66.6969 7.60687C66.6969 7.60687 66.8129 6.77988 66.8129 6.77988C66.8129 6.77988 67.9529 8.39188 67.9529 8.39188C68.7179 9.48889 69.2249 10.6119 69.4879 11.8689C69.9209 13.8219 69.9619 16.5629 69.5489 16.3229C69.4259 16.2299 68.8759 14.7829 68.3439 13.0379ZM53.4199 18.9859C51.8029 19.5259 50.9509 19.4719 49.1809 18.6969C47.3689 17.9199 46.9069 17.4409 46.3039 15.7989C45.6529 13.9179 46.3089 11.6479 48.0219 9.9379C49.1429 8.78888 49.5649 8.5369 50.8849 8.2999C52.8779 7.9119 54.4309 8.3949 55.6289 9.75388C58.3439 12.8349 57.1599 17.7029 53.4199 18.9859ZM15.8959 51.8569C13.1389 53.1589 8.9969 51.3359 8.2769 48.5089C7.55591 45.6819 9.8049 42.2509 12.8479 41.5019C15.2829 40.8849 18.2089 42.6529 18.8259 45.0879C19.4229 47.4999 18.9259 49.2659 17.1859 51.0819C17.0039 51.2419 16.4239 51.6329 15.8959 51.8569Z" fill="#ABA5FA" transform="translate(225.71 260.857)" />
    <path d="M7.00018 4.33392C7.60217 1.91193 5.58618 -0.376068 3.22717 0.0519104C1.03818 0.491913 -0.414825 2.49692 0.106171 4.41293C0.618164 6.13492 1.33316 6.67194 3.16617 6.78793C4.57217 6.87692 4.96417 6.77292 5.82516 6.01392C6.36816 5.53491 6.90817 4.77792 7.00018 4.33392ZM3.70718 4.98193C2.38617 4.89893 1.85718 2.42593 3.11218 2.20593C3.84818 2.08093 4.94516 3.00592 4.95917 3.79892C4.98117 4.46292 4.38916 5.02493 3.70718 4.98193Z" fill="#ABA5FA" transform="translate(274.109 271.054)" />
    <path d="M6.6138 4.00513C6.97081 3.08612 6.2258 1.64914 5.5278 0.857147C4.88881 0.132141 2.65181 -0.352875 1.83881 0.32312C-0.055191 1.87314 -0.406189 3.02713 0.420807 4.83414C1.6058 7.41214 5.5558 6.86914 6.6138 4.00513ZM3.14781 4.68512C2.70381 4.59314 2.0058 4.32312 1.81581 3.60513C1.5368 2.60315 2.46681 1.90414 3.3018 1.89212C3.90181 1.88715 4.97281 2.87512 4.94081 3.38614C4.9088 3.89713 3.7218 4.74313 3.14781 4.68512Z" fill="#ABA5FA" transform="translate(236.325 304.662)" />
    <path d="M14.71 0C14.71 0 17.568 6.8693 17.568 6.8693C18.654 9.4786 20.726 11.5538 23.333 12.6438C23.333 12.6438 30.154 15.495 30.154 15.495C30.154 15.495 23.396 18.3202 23.396 18.3202C20.751 19.4256 18.66 21.5435 17.587 24.2013C17.587 24.2013 14.71 31.3306 14.71 31.3306C14.71 31.3306 11.774 24.0538 11.774 24.0538C10.737 21.4835 8.745 19.4145 6.216 18.2809C6.216 18.2809 0 15.495 0 15.495C0 15.495 6.277 12.6818 6.277 12.6818C8.77 11.5645 10.742 9.5378 11.791 7.0155C11.791 7.0155 14.71 0 14.71 0Z" fill="#ABA5FA" transform="translate(119.263 58.934)" />
    <path d="M13.706 0C13.706 0 16.253 6.12201 16.253 6.12201C17.339 8.731 19.41 10.806 22.018 11.896C22.018 11.896 28.094 14.436 28.094 14.436C28.094 14.436 22.08 16.95 22.08 16.95C19.436 18.056 17.344 20.174 16.272 22.832C16.272 22.832 13.706 29.19 13.706 29.19C13.706 29.19 11.081 22.684 11.081 22.684C10.044 20.114 8.05099 18.045 5.522 16.911C5.522 16.911 0 14.436 0 14.436C0 14.436 5.58299 11.934 5.58299 11.934C8.076 10.817 10.049 8.79001 11.098 6.26801C11.098 6.26801 13.706 0 13.706 0Z" fill="#ABA5FA" transform="translate(218.72 232.594)" />
    <path d="M13.7434 0C13.7434 0 16.3014 6.14899 16.3014 6.14899C17.3874 8.759 19.4594 10.834 22.0664 11.924C22.0664 11.924 28.1704 14.476 28.1704 14.476C28.1704 14.476 22.1294 17.002 22.1294 17.002C19.4844 18.107 17.3934 20.225 16.3204 22.883C16.3204 22.883 13.7434 29.27 13.7434 29.27C13.7434 29.27 11.1064 22.735 11.1064 22.735C10.0694 20.165 8.0774 18.096 5.5478 16.962C5.5478 16.962 0 14.476 0 14.476C0 14.476 5.6088 11.962 5.6088 11.962C8.10139 10.845 10.0744 8.81799 11.1234 6.29599C11.1234 6.29599 13.7434 0 13.7434 0Z" fill="#ABA5FA" transform="translate(94.141 260.174)" />
  </g>
</svg>