<?xml version="1.0" encoding="utf-8"?>
<svg width="24" height="25" viewBox="0 0 24 25" fill="none" xmlns="http://www.w3.org/2000/svg">
  <g>
    <path d="M6.90933 2.59875C6.10933 -0.861248 0.899321 -0.871248 0.0993212 2.59875C-0.370679 4.62875 0.919331 6.34875 2.03933 7.41875C2.85933 8.18878 4.14933 8.18878 4.96933 7.41875C6.08933 6.34875 7.36933 4.62875 6.90933 2.59875ZM3.53933 4.19875C2.98933 4.19875 2.53933 3.74875 2.53933 3.19875C2.53933 2.64875 2.97933 2.19875 3.52933 2.19875C3.52933 2.19875 3.53933 2.19875 3.53933 2.19875C4.09933 2.19875 4.53933 2.64875 4.53933 3.19875C4.53933 3.74875 4.09933 4.19875 3.53933 4.19875Z" fill="#9A93FA" fill-opacity="0.4" transform="translate(1.971 2.014)" />
    <path d="M2 1C2 1.55 1.56 2 1 2C0.45 2 0 1.55 0 1C0 0.45 0.44 0 0.99 0C0.99 0 1 0 1 0C1.56 0 2 0.45 2 1Z" fill="#9A93FA" transform="translate(4.51 4.213)" />
    <path d="M6.93929 2.59875C6.13929 -0.861248 0.909291 -0.871248 0.0992908 2.59875C-0.370708 4.62875 0.919291 6.34875 2.04929 7.41875C2.86929 8.18875 4.16929 8.18875 4.98929 7.41875C6.11929 6.34875 7.40929 4.62875 6.93929 2.59875ZM3.55929 4.19875C3.00929 4.19875 2.55929 3.74875 2.55929 3.19875C2.55929 2.64875 2.99929 2.19875 3.54929 2.19875C3.54929 2.19875 3.55929 2.19875 3.55929 2.19875C4.10929 2.19875 4.55929 2.64875 4.55929 3.19875C4.55929 3.74875 4.10929 4.19875 3.55929 4.19875Z" fill="#9A93FA" fill-opacity="0.4" transform="translate(14.971 14.014)" />
    <path d="M2 1C2 1.55 1.55 2 1 2C0.449999 2 0 1.55 0 1C0 0.449999 0.439999 0 0.99 0C0.99 0 1 0 1 0C1.55 0 2 0.449999 2 1Z" fill="#9A93FA" transform="translate(17.53 16.213)" />
    <path d="M2.75109 15.5C1.59109 15.5 0.581093 14.8 0.181093 13.72C-0.228907 12.64 0.0710926 11.45 0.941093 10.68C0.941093 10.68 8.93105 3.69 8.93105 3.69C9.41105 3.27 9.42105 2.7 9.28105 2.31C9.13105 1.92 8.75105 1.5 8.11105 1.5C8.11105 1.5 5.43105 1.5 5.43105 1.5C5.02105 1.5 4.68105 1.16 4.68105 0.75C4.68105 0.34 5.02105 0 5.43105 0C5.43105 0 8.11105 0 8.11105 0C9.27105 0 10.2811 0.7 10.6811 1.78C11.0911 2.86 10.7911 4.05 9.92105 4.82C9.92105 4.82 1.93109 11.81 1.93109 11.81C1.45109 12.23 1.44109 12.8 1.58109 13.19C1.73109 13.58 2.11109 14 2.75109 14C2.75109 14 5.43105 14 5.43105 14C5.84105 14 6.18105 14.34 6.18105 14.75C6.18105 15.16 5.84105 15.5 5.43105 15.5C5.43105 15.5 2.75109 15.5 2.75109 15.5Z" fill="#9A93FA" transform="translate(6.569 4.263)" />
  </g>
</svg>