<?xml version="1.0" encoding="utf-8"?>
<svg width="86" height="86" viewBox="0 0 86 86" fill="none" xmlns="http://www.w3.org/2000/svg">
  <defs>
    <clipPath id="clip_path_1">
      <rect width="86" height="86" />
    </clipPath>
  </defs>
  <g>
    <g clip-path="url(#clip_path_1)">
      <g transform="translate(-0.001 -0)">
        <path d="M4.76837e-07 28C4.76837e-07 28 4.76837e-07 14 4.76837e-07 14C4.76837e-07 10.134 1.36683 6.83418 4.1005 4.1005C6.83418 1.36683 10.134 4.76837e-07 14 4.76837e-07C14 4.76837e-07 71.9395 4.76837e-07 71.9395 4.76837e-07C75.8055 4.76837e-07 79.1053 1.36683 81.839 4.1005C84.5727 6.83418 85.9395 10.134 85.9395 14C85.9395 14 85.9395 71.9395 85.9395 71.9395C85.9395 75.8055 84.5727 79.1053 81.839 81.839C79.1053 84.5727 75.8055 85.9395 71.9395 85.9395C71.9395 85.9395 14 85.9395 14 85.9395C10.134 85.9395 6.83418 84.5727 4.1005 81.839C1.36683 79.1053 4.76837e-07 75.8055 4.76837e-07 71.9395C4.76837e-07 71.9395 4.76837e-07 28 4.76837e-07 28Z" fill="#DCD9FC" fill-rule="evenodd" />
        <path d="M0 32.7099C0 14.6447 14.6447 0 32.7099 0C50.7751 0 65.4198 14.6447 65.4198 32.7099C65.4198 50.7751 50.7751 65.4198 32.7099 65.4198C14.6447 65.4198 0 50.7751 0 32.7099Z" fill="#ABA5FA" fill-rule="evenodd" transform="translate(10.26 10.26)" />
        <path d="M29.9796 1.03032C29.9668 1.03022 29.954 1.03042 29.9412 1.03092C29.9412 1.03092 29.9721 1.74642 29.9721 1.74642C29.9721 1.74642 29.9796 1.03032 29.9796 1.03032ZM29.9721 1.74642C29.9721 1.74642 29.9796 1.03032 29.9796 1.03032L29.9798 1.03032L29.9802 1.03032L29.9815 1.03032L29.9864 1.03042C29.9864 1.03042 30.0046 1.03062 30.0046 1.03062C30.0046 1.03062 30.0734 1.03162 30.0734 1.03162C30.1328 1.03262 30.2187 1.03422 30.3256 1.03672C30.5392 1.04172 30.8374 1.05032 31.1765 1.06492C31.8479 1.09382 32.7052 1.14692 33.3836 1.24602C33.4406 1.25432 33.4957 1.26232 33.5493 1.27002C34.1025 1.35012 34.4988 1.40752 35.121 1.57562C35.6449 1.71712 35.9431 1.82092 36.4389 2.01772C36.6882 2.11662 36.9896 2.25492 37.2197 2.36372C37.3367 2.41912 37.439 2.46862 37.5122 2.50432C37.5122 2.50432 37.5986 2.54672 37.5986 2.54672C37.5986 2.54672 37.6223 2.55842 37.6223 2.55842L37.6287 2.56162L37.6305 2.56252L37.631 2.56272L37.6311 2.56282L37.6312 2.56282L37.3137 3.20022C37.3137 3.20022 29.9721 1.74642 29.9721 1.74642ZM29.9721 1.74642C29.9721 1.74642 29.9412 1.03092 29.9412 1.03092L29.9411 1.03092L29.9406 1.03092L29.9388 1.03102L29.9317 1.03132L29.9034 1.03252C29.9034 1.03252 29.7937 1.03722 29.7937 1.03722C29.7937 1.03722 29.3857 1.05442 29.3857 1.05442C29.0386 1.06892 28.5531 1.08892 27.9996 1.11092C26.8918 1.15492 25.5142 1.20692 24.4283 1.23882C24.3354 1.24152 24.1098 1.21882 23.7616 1.15212C23.4311 1.08892 23.0368 0.995422 22.6319 0.88192C21.9772 0.698521 21.3583 0.480221 20.9417 0.27882C20.8323 0.215721 20.7162 0.151222 20.5932 0.0852203C20.2548 -0.0963783 19.8333 0.0213203 19.638 0.35202C19.4426 0.68272 19.543 1.10872 19.8654 1.31742C19.901 1.34052 19.9381 1.36342 19.9766 1.38612C18.3377 1.37722 16.4388 1.34552 14.8608 1.31372C13.93 1.29492 13.112 1.27622 12.5269 1.26212C12.2343 1.25512 11.9999 1.24922 11.8388 1.24512C11.8388 1.24512 11.6538 1.24042 11.6538 1.24042C11.6538 1.24042 11.606 1.23912 11.606 1.23912L11.5939 1.23882L11.5909 1.23872L11.5901 1.23872L11.59 1.23872L11.5709 1.95462L11.5899 1.23862C11.5899 1.23862 11.5778 1.23852 11.5778 1.23852C11.5778 1.23852 0.8265 1.13442 0.8265 1.13442C0.458801 1.13082 0.148102 1.40642 0.1077 1.77202C0.1077 1.77202 0.00440216 2.70892 0.00440216 2.70892C0.00150299 2.73502 0 2.76122 0 2.78752C0 2.78752 0 14.5512 0 14.5512C0 14.9467 0.320702 15.2673 0.716202 15.2673C0.716202 15.2673 9.4974 15.2673 9.4974 15.2673C9.4974 15.2673 15.7975 15.3713 15.7975 15.3713L15.7975 15.3714C15.7975 15.3714 15.8093 15.3714 15.8093 15.3714C15.8093 15.3714 18.4972 15.3714 18.4972 15.3714C18.7067 15.3714 18.9056 15.2797 19.0417 15.1204C19.1777 14.9612 19.2373 14.7503 19.2045 14.5434C19.2045 14.5434 37.3137 3.20022 37.3137 3.20022C37.3137 3.20022 29.9721 1.74642 29.9721 1.74642ZM37.3137 3.20022C37.3137 3.20022 37.6312 2.56282 37.6312 2.56282C37.8744 2.68402 38.0281 2.93222 38.0281 3.20392C38.0281 3.20392 38.0281 3.30802 38.0281 3.30802C38.0281 3.50002 37.9509 3.68402 37.814 3.81862C37.6771 3.95322 37.4919 4.02732 37.2999 4.02402C37.2999 4.02402 31.705 3.93012 31.705 3.93012C31.705 3.93012 37.3137 3.20022 37.3137 3.20022ZM37.3137 3.20022C37.3137 3.20022 31.705 3.93012 31.705 3.93012C31.705 3.93012 37.3137 3.20022 37.3137 3.20022ZM31.705 3.93012C31.7012 4.05932 31.704 4.17552 31.7142 4.24312C31.7545 4.51322 31.8197 4.63172 32.0104 4.97852C32.0222 4.99992 32.0344 5.02222 32.0472 5.04552C32.1739 5.27632 32.3034 5.43252 32.4647 5.60182C32.5053 5.64442 32.5527 5.69252 32.6051 5.74552C32.7486 5.89082 32.9289 6.07332 33.1048 6.28272C33.3206 6.53952 33.4016 6.61412 33.4501 6.65262C33.4754 6.67272 33.502 6.69102 33.5588 6.72802C33.5658 6.73262 33.5731 6.73742 33.5809 6.74242C33.6348 6.77732 33.707 6.82422 33.795 6.88592C34.2582 7.21102 34.547 7.32192 35.1556 7.51982C35.5557 7.64982 35.8071 7.68712 36.2022 7.74552C36.3191 7.76292 36.4486 7.78202 36.5982 7.80602C37.4046 7.93532 38.4745 7.98692 39.3652 8.00442C39.8058 8.01312 40.194 8.01332 40.4719 8.01142C40.6107 8.01042 40.7217 8.00892 40.7976 8.00762C40.7976 8.00762 40.8842 8.00602 40.8842 8.00602C40.8842 8.00602 40.906 8.00562 40.906 8.00562L40.9112 8.00542L40.9124 8.00542C40.9124 8.00542 40.9125 8.00542 40.9125 8.00542C40.9125 8.00542 31.705 3.93012 31.705 3.93012ZM36.8445 15.1615C36.828 15.1627 36.8115 15.1632 36.795 15.1632C36.795 15.1632 33.1768 15.1632 33.1768 15.1632C32.977 15.1632 32.7862 15.0797 32.6507 14.9329C32.5151 14.7862 32.447 14.5894 32.4629 14.3903C32.4629 14.3903 36.8445 15.1615 36.8445 15.1615ZM36.8445 15.1615C36.8445 15.1615 36.795 14.4471 36.795 14.4471C36.795 14.4471 36.8445 15.1615 36.8445 15.1615ZM36.8445 15.1615C36.8445 15.1615 36.795 14.4471 36.795 14.4471C36.795 14.4471 36.8445 15.1615 36.8445 15.1615ZM36.8445 15.1615L36.8446 15.1615L36.8447 15.1615L36.8452 15.1615L36.8469 15.1613L36.8529 15.1609C36.8529 15.1609 36.8749 15.1593 36.8749 15.1593C36.8749 15.1593 36.9551 15.1533 36.9551 15.1533C37.0227 15.1481 37.1172 15.1405 37.2247 15.131C37.4357 15.1123 37.7121 15.0847 37.9352 15.0512C38.0034 15.0409 38.0729 15.0321 38.1445 15.023C38.4233 14.9877 38.7333 14.9484 39.1146 14.8051C39.6181 14.6158 39.9609 14.4389 40.391 14.0279C40.8823 13.5587 41.0643 13.1543 41.2799 12.6433C41.4948 12.1335 41.5511 11.7761 41.6189 11.3449C41.6249 11.3068 41.631 11.2681 41.6373 11.2287C41.7227 10.6939 41.7198 10.0365 41.701 9.54502C41.701 9.54502 36.795 14.4471 36.795 14.4471C36.795 14.4471 36.8445 15.1615 36.8445 15.1615ZM36.795 14.4471C36.795 14.4471 41.701 9.54502 41.701 9.54502C41.701 9.54502 36.795 14.4471 36.795 14.4471ZM41.701 9.54502C41.6914 9.29262 41.677 9.07072 41.665 8.91172C41.665 8.91172 41.701 9.54502 41.701 9.54502ZM41.701 9.54502C41.701 9.54502 41.665 8.91172 41.665 8.91172C41.665 8.91172 41.701 9.54502 41.701 9.54502ZM41.665 8.91172C41.6589 8.83202 41.6535 8.76772 41.6495 8.72282C41.6495 8.72282 41.665 8.91172 41.665 8.91172ZM41.665 8.91172C41.665 8.91172 41.6495 8.72282 41.6495 8.72282C41.6495 8.72282 41.665 8.91172 41.665 8.91172ZM41.6495 8.72282C41.6495 8.72282 41.6447 8.67042 41.6447 8.67042C41.6447 8.67042 41.6495 8.72282 41.6495 8.72282ZM41.6495 8.72282C41.6495 8.72282 41.6447 8.67042 41.6447 8.67042C41.6447 8.67042 41.6495 8.72282 41.6495 8.72282ZM41.6447 8.67042C41.6447 8.67042 41.6433 8.65602 41.6433 8.65602C41.6433 8.65602 41.6447 8.67042 41.6447 8.67042ZM41.6447 8.67042C41.6447 8.67042 41.6433 8.65602 41.6433 8.65602C41.6433 8.65602 41.6447 8.67042 41.6447 8.67042ZM41.6433 8.65602C41.6433 8.65602 41.6429 8.65192 41.6429 8.65192C41.6429 8.65192 41.6433 8.65602 41.6433 8.65602ZM41.6433 8.65602C41.6433 8.65602 41.6429 8.65192 41.6429 8.65192C41.6429 8.65192 41.6433 8.65602 41.6433 8.65602ZM41.6428 8.65192C41.6428 8.65192 41.6428 8.65072 41.6428 8.65072C41.6428 8.65072 41.6428 8.65192 41.6428 8.65192ZM41.6428 8.65192C41.6428 8.65192 41.6428 8.65072 41.6428 8.65072C41.6428 8.65072 41.6428 8.65192 41.6428 8.65192ZM41.6427 8.65072C41.6427 8.65072 41.6427 8.65022 41.6427 8.65022C41.6427 8.65022 41.6427 8.65072 41.6427 8.65072ZM41.6427 8.65072C41.6427 8.65072 41.6427 8.65022 41.6427 8.65022C41.6427 8.65022 41.6427 8.65072 41.6427 8.65072ZM41.6427 8.65022C41.6427 8.65022 41.6427 8.65012 41.6427 8.65012C41.6427 8.65012 41.6427 8.65022 41.6427 8.65022ZM41.6427 8.65022C41.6427 8.65022 41.6427 8.65012 41.6427 8.65012C41.6427 8.65012 41.6427 8.65022 41.6427 8.65022ZM41.6427 8.65012C41.6427 8.65002 41.6427 8.64992 40.9301 8.72142C40.9301 8.72142 41.6427 8.65012 41.6427 8.65012ZM19.2045 14.5433C19.2045 14.5433 19.2044 14.5425 19.2044 14.5425L19.2038 14.5389C19.2038 14.5389 19.2015 14.5236 19.2015 14.5236C19.2015 14.5236 19.1926 14.465 19.1926 14.465C19.185 14.4147 19.1747 14.3443 19.1638 14.2642C19.1412 14.0998 19.1181 13.9106 19.1081 13.7714C19.0577 13.0651 19.0855 12.6786 19.2038 11.961C19.2638 11.5968 19.2925 11.4279 19.388 11.1194C19.5362 10.641 19.6672 10.406 19.9486 9.90492C19.9486 9.90492 19.3242 9.55422 19.3242 9.55422C19.3242 9.55422 19.9486 9.90482 19.9486 9.90482C20.2563 9.35692 20.4098 9.09502 20.7846 8.68252C20.7846 8.68252 20.2546 8.20082 20.2546 8.20082C20.2546 8.20082 20.7846 8.68252 20.7846 8.68252C21.0231 8.42002 21.1838 8.29012 21.4643 8.06352C21.5174 8.02062 21.5747 7.97432 21.6376 7.92302C21.6609 7.90402 21.6836 7.88552 21.7057 7.86742C22.0894 7.55422 22.2921 7.38882 22.6911 7.14902C23.0672 6.92292 23.2458 6.82052 23.6069 6.68542C24.0409 6.52302 24.2862 6.47772 24.7913 6.41272C25.4002 6.33432 25.7354 6.34662 26.3824 6.41462C26.9495 6.47422 27.2504 6.53712 27.8044 6.70132C28.0377 6.77042 28.3459 6.88902 28.6104 6.99752C28.7394 7.05042 28.8525 7.09862 28.9331 7.13352C28.9734 7.15102 29.0054 7.16502 29.027 7.17462C29.027 7.17462 29.0374 7.17922 29.0374 7.17922C29.0374 7.17922 29.0419 7.18152 29.0419 7.18152C29.0497 7.18582 29.0593 7.19092 29.0704 7.19692C29.0836 7.20412 29.099 7.21242 29.1162 7.22192C29.18 7.25672 29.269 7.30612 29.369 7.36362C29.5757 7.48242 29.8054 7.62232 29.9619 7.73722C30.3615 8.03042 30.5556 8.20582 30.8859 8.57462C31.0371 8.74332 31.2222 8.99742 31.3798 9.22772C31.4561 9.33922 31.5216 9.43872 31.5679 9.51022C31.5878 9.54092 31.6041 9.56632 31.6161 9.58512C31.6251 9.60472 31.637 9.63082 31.6514 9.66242C31.6855 9.73772 31.7327 9.84322 31.7849 9.96362C31.8917 10.2098 32.0106 10.4987 32.0841 10.7183C32.2971 11.3549 32.3844 11.701 32.4662 12.3504C32.5123 12.7157 32.5141 13.2159 32.501 13.6499C32.4946 13.8616 32.4849 14.0482 32.4769 14.1816C32.4729 14.2482 32.4693 14.3013 32.4668 14.3373C32.4668 14.3373 32.4638 14.3779 32.4638 14.3779C32.4638 14.3779 32.4631 14.3878 32.4631 14.3878L32.4629 14.3899C32.4629 14.3899 32.4629 14.3902 32.4629 14.3902C32.4629 14.3902 19.2045 14.5434 19.2045 14.5434C19.2045 14.5434 19.2045 14.5433 19.2045 14.5433ZM20.9808 2.05252C20.9829 2.05512 20.9838 2.05652 20.9837 2.05652C20.9837 2.05652 20.9826 2.05512 20.9808 2.05252Z" fill="#9A93FA" stroke-width="1.432" stroke="#443DA8" stroke-linejoin="round" transform="translate(37.188 36.849)" />
        <path d="M20.6947 0.2297C20.6947 0.2297 20.6946 0.2297 20.6946 0.2297L20.6943 0.229801L20.6933 0.230001L20.6896 0.231001C20.6896 0.231001 20.6758 0.2344 20.6758 0.2344C20.6758 0.2344 20.624 0.247601 20.624 0.247601C20.5791 0.2591 20.5143 0.275702 20.4337 0.296801C20.2727 0.3388 20.048 0.3985 19.793 0.4692C19.288 0.609201 18.6454 0.797501 18.1432 0.980001C17.0694 1.3701 16.477 1.6492 15.4772 2.1606C15.4772 2.1606 15.8033 2.7982 15.8033 2.7982C15.8033 2.7982 15.4772 2.1606 15.4772 2.1606C14.849 2.482 14.4141 2.7442 13.93 3.0361C13.7252 3.1596 13.5116 3.2884 13.2708 3.4293C12.3773 3.9519 11.8734 4.2481 10.9854 4.7893C10.1282 5.3116 9.64859 5.6105 8.80209 6.1503C8.54349 6.3152 8.35609 6.443 8.18649 6.5586C7.93699 6.7288 7.72579 6.8728 7.38249 7.0705C7.22579 7.1607 7.09259 7.2403 6.97319 7.3117C6.57239 7.5512 6.32739 7.6977 5.87159 7.8406C5.60219 7.925 5.44489 7.953 5.14999 8.0056C5.11199 8.0124 5.07169 8.0195 5.02859 8.0273C4.61019 8.1026 4.26359 8.0496 3.81129 7.9805C3.73109 7.9682 3.64759 7.9554 3.55979 7.9428C2.99239 7.8611 2.30261 7.8049 1.52505 8.1967C1.50106 8.2088 1.47457 8.2214 1.44594 8.2351C1.29085 8.3093 1.07276 8.4135 0.846849 8.6203C0.846849 8.6203 1.33044 9.1486 1.33044 9.1486C1.33044 9.1486 0.846849 8.6203 0.846849 8.6203C0.538739 8.9024 0.382919 9.1545 0.245679 9.5235C0.171229 9.7237 0.137979 9.9511 0.121749 10.088C0.112669 10.1646 0.106889 10.232 0.103339 10.2805C0.101549 10.3049 0.100299 10.325 0.0994596 10.3396C0.0994596 10.3396 0.0984993 10.3574 0.0984993 10.3574C0.0984993 10.3574 0.0982289 10.3631 0.0982289 10.3631L0.0981393 10.365L0.0980992 10.3658C0.0980992 10.3658 0.0980892 10.3661 0.0980892 10.3661C0.0980892 10.3661 0.0980792 10.3663 0.0980792 10.3663C0.0980792 10.3663 0.0980692 10.3664 0.813549 10.3978C0.813549 10.3978 0.0980692 10.3664 0.0980692 10.3664C0.089509 10.5616 0.161069 10.7518 0.296159 10.893C0.431259 11.0341 0.618159 11.114 0.813549 11.114C0.813549 11.114 4.64079 11.114 4.64079 11.114C4.67099 11.1356 4.68929 11.1508 4.69759 11.1578C4.70329 11.1626 4.70439 11.1635 4.70139 11.1598C4.71129 11.1721 4.71479 11.1789 4.71549 11.1804C4.71609 11.1816 4.71619 11.1819 4.71629 11.1825C4.71629 11.1825 4.71639 11.1826 4.71639 11.1826C4.71669 11.1843 4.72119 11.2042 4.71439 11.26C4.70699 11.3202 4.69029 11.3952 4.66009 11.5106C4.65439 11.5324 4.64799 11.5564 4.64119 11.582C4.61599 11.6766 4.58459 11.794 4.55919 11.9104C4.51619 12.1067 4.48379 12.1998 4.39569 12.4016C4.18999 12.8728 3.99199 13.0706 3.52039 13.5266C3.52039 13.5266 4.01829 14.0414 4.01829 14.0414C4.01829 14.0414 3.52039 13.5266 3.52039 13.5266C3.19219 13.844 3.05929 13.9713 2.74692 14.1404C2.74692 14.1404 3.08789 14.7702 3.08789 14.7702C3.08789 14.7702 2.74692 14.1404 2.74692 14.1404C2.33543 14.3631 2.08955 14.4222 1.56969 14.4739C1.45507 14.4853 1.2849 14.4865 1.1237 14.4826C1.04727 14.4808 0.979809 14.478 0.931649 14.4757C0.931649 14.4757 0.876059 14.4728 0.876059 14.4728C0.876059 14.4728 0.862089 14.472 0.862089 14.472C0.862089 14.472 0.859019 14.4719 0.859019 14.4719C0.859019 14.4719 0.858739 14.4718 0.858739 14.4718C0.858709 14.4718 0.858689 14.4718 0.858669 14.4718C0.858669 14.4718 0.858609 14.4718 0.858609 14.4718C0.858609 14.4718 0.858599 14.4718 0.858589 14.4718C0.475959 14.4477 0.142189 14.7292 0.101439 15.1105C0.101439 15.1105 0.813549 15.1866 0.813549 15.1866C0.101439 15.1105 0.101429 15.1105 0.101429 15.1106C0.101429 15.1106 0.101409 15.1108 0.101409 15.1108C0.101409 15.1108 0.101349 15.1113 0.101349 15.1113L0.101179 15.1129L0.100609 15.1183C0.100609 15.1183 0.098619 15.1378 0.098619 15.1378C0.098619 15.1378 0.091609 15.2094 0.091609 15.2094C0.0857596 15.271 0.0777597 15.3594 0.0688996 15.4692C0.0512094 15.6885 0.0299997 15.9944 0.0158391 16.3423C-0.0119009 17.0236 -0.0152512 17.9193 0.107609 18.6385C0.112249 18.6657 0.116669 18.692 0.121009 18.7178C0.147429 18.8753 0.170899 19.0152 0.223819 19.2187C0.228809 19.2378 0.233739 19.2569 0.238649 19.2758C0.341589 19.6732 0.432399 20.0238 0.734699 20.4769C1.0201 20.9047 1.26909 21.1178 1.6277 21.3836C2.03832 21.6879 2.35659 21.812 2.71544 21.952C2.7516 21.9661 2.78818 21.9804 2.8253 21.995C2.8253 21.995 3.08789 21.3287 3.08789 21.3287C3.08789 21.3287 2.8253 21.995 2.8253 21.995C3.55519 22.2826 4.01999 22.3735 4.76579 22.4568C5.13849 22.4985 5.59309 22.497 5.93229 22.4879C6.10659 22.4832 6.25969 22.4762 6.36939 22.4703C6.42429 22.4674 6.46859 22.4647 6.49959 22.4628C6.49959 22.4628 6.53569 22.4605 6.53569 22.4605C6.53569 22.4605 6.54569 22.4598 6.54569 22.4598L6.54859 22.4596L6.54939 22.4595L6.54969 22.4595L6.54989 22.4595C6.54989 22.4595 6.49929 21.7451 6.49929 21.7451C6.49929 21.7451 6.54989 22.4595 6.54989 22.4595C6.92489 22.4329 7.21549 22.121 7.21549 21.7451C7.21549 21.7451 7.21549 19.6941 7.21549 19.6941C7.21549 19.6941 7.21999 19.6443 7.21999 19.6443C7.22459 19.5942 7.23139 19.524 7.24009 19.4445C7.25789 19.28 7.28129 19.0954 7.30629 18.9639C7.39769 18.4829 7.48489 18.2325 7.68099 17.7433C7.92649 17.1305 8.06769 16.8279 8.42389 16.3345C8.65179 16.0188 8.80599 15.862 9.09659 15.5663C9.12369 15.5388 9.15189 15.51 9.18149 15.4798C9.26179 15.398 9.33149 15.3256 9.39439 15.2602C9.65529 14.9892 9.80039 14.8383 10.1019 14.6369C10.41 14.4311 10.5912 14.3563 10.996 14.1891C10.996 14.1891 11.0112 14.1829 11.0112 14.1829C11.0649 14.1607 11.1153 14.1397 11.1628 14.1199C11.5828 13.9452 11.7816 13.8625 12.1683 13.8154C13.0276 13.7107 13.5585 13.76 13.8494 13.8182C13.9947 13.8472 14.0807 13.8786 14.1191 13.8946C14.1288 13.8987 14.1356 13.9018 14.1396 13.9038C14.4598 14.1031 14.8835 14.0197 15.1031 13.7077C15.3301 13.3853 15.2538 12.9401 14.9324 12.7117C14.4266 12.3522 13.7842 11.6979 13.2926 10.9494C12.7875 10.1807 12.5302 9.4486 12.5871 8.9118C12.6305 8.503 12.7428 8.1185 12.9199 7.7206C13.4978 6.8275 15.0124 5.1593 18.1578 3.792C17.952 4.0551 17.8035 4.3288 17.7121 4.6132C17.488 5.3111 17.6492 5.9422 17.9145 6.4265C18.1727 6.8981 18.5441 7.2629 18.8258 7.4989C18.9704 7.6201 19.1008 7.7151 19.1965 7.7808C19.2445 7.8137 19.2844 7.8396 19.3135 7.8581C19.3281 7.8674 19.3401 7.8748 19.3492 7.8803C19.3492 7.8803 19.3605 7.8872 19.3605 7.8872C19.3605 7.8872 19.3645 7.8896 19.3645 7.8896C19.3645 7.8896 19.366 7.8905 19.366 7.8905C19.366 7.8905 19.3667 7.8909 19.3667 7.8909C19.367 7.8911 19.3673 7.8912 19.7317 7.2747C19.7317 7.2747 19.3673 7.8912 19.3673 7.8912C19.4777 7.9564 19.6035 7.9908 19.7317 7.9908C19.7317 7.9908 24.2803 7.9908 24.2803 7.9908C24.2803 7.9908 25.2107 7.9908 25.2107 7.9908L25.2162 7.9908L25.2218 7.9908L25.2272 7.9908L25.2327 7.9908L25.2381 7.9908L25.2434 7.9908L25.2488 7.9908L25.2541 7.9908L25.2593 7.9908L25.2645 7.9908L25.2697 7.9908L25.2748 7.9908L25.2799 7.9908L25.285 7.9908L25.29 7.9908L25.295 7.9908L25.2999 7.9908L25.3048 7.9908L25.3097 7.9908L25.3146 7.9908L25.3194 7.9908L25.3241 7.9908L25.3289 7.9908L25.3336 7.9908L25.3382 7.9908L25.3428 7.9908L25.3474 7.9908L25.352 7.9908L25.3565 7.9908L25.361 7.9908L25.3654 7.9908L25.3698 7.9908L25.3742 7.9908L25.3786 7.9908L25.3829 7.9908L25.3871 7.9908L25.3914 7.9908L25.3956 7.9908L25.3998 7.9908L25.4039 7.9908L25.408 7.9908L25.4121 7.9908L25.4162 7.9908L25.4202 7.9908L25.4242 7.9908L25.4281 7.9908L25.432 7.9908L25.4359 7.9908L25.4398 7.9908L25.4436 7.9908L25.4474 7.9908L25.4511 7.9908L25.4549 7.9908L25.4586 7.9908L25.4622 7.9908L25.4659 7.9908L25.4695 7.9908L25.4731 7.9908L25.4766 7.9908L25.4801 7.9908L25.4836 7.9908L25.4871 7.9908L25.4905 7.9908L25.4939 7.9908L25.4973 7.9908L25.5006 7.9908L25.5039 7.9908L25.5072 7.9908L25.5105 7.9908L25.5137 7.9908L25.5169 7.9908L25.5201 7.9908L25.5232 7.9908L25.5264 7.9908L25.5295 7.9908L25.5325 7.9908L25.5356 7.9908L25.5386 7.9908L25.5416 7.9908L25.5445 7.9908L25.5475 7.9908L25.5504 7.9908L25.5533 7.9908L25.5561 7.9908L25.5589 7.9908L25.5617 7.9908L25.5645 7.9908L25.5673 7.9908L25.57 7.9908L25.5727 7.9908L25.5754 7.9908L25.5781 7.9908L25.5807 7.9908L25.5833 7.9908L25.5859 7.9908L25.5885 7.9908L25.591 7.9908L25.5935 7.9908L25.596 7.9908L25.5985 7.9908L25.6009 7.9908L25.6033 7.9908L25.6058 7.9908L25.6081 7.9908L25.6105 7.9908L25.6128 7.9908L25.6151 7.9908L25.6174 7.9908L25.6197 7.9908L25.622 7.9908L25.6242 7.9908L25.6264 7.9908L25.6286 7.9908L25.6308 7.9908L25.6329 7.9908L25.635 7.9908L25.6371 7.9908L25.6392 7.9908L25.6413 7.9908L25.6433 7.9908L25.6454 7.9908L25.6474 7.9908L25.6494 7.9908L25.6513 7.9908L25.6533 7.9908L25.6552 7.9908L25.6571 7.9908L25.659 7.9908L25.6609 7.9908L25.6628 7.9908L25.6646 7.9908L25.6664 7.9908L25.6683 7.9908L25.67 7.9908L25.6718 7.9908L25.6736 7.9908L25.6753 7.9908L25.6771 7.9908L25.6788 7.9908L25.6805 7.9908L25.6821 7.9908L25.6838 7.9908L25.6854 7.9908L25.6871 7.9908L25.6887 7.9908L25.6903 7.9908L25.6919 7.9908L25.6934 7.9908L25.695 7.9908L25.6965 7.9908L25.6981 7.9908L25.6996 7.9908L25.7011 7.9908L25.7026 7.9908L25.704 7.9908L25.7055 7.9908L25.7069 7.9908L25.7084 7.9908L25.7098 7.9908L25.7112 7.9908L25.7126 7.9908L25.714 7.9908L25.7153 7.9908L25.7167 7.9908L25.718 7.9908L25.7194 7.9908L25.7207 7.9908L25.722 7.9908L25.7233 7.9908L25.7246 7.9908L25.7259 7.9908L25.7271 7.9908L25.7284 7.9908L25.7296 7.9908L25.7309 7.9908L25.7321 7.9908L25.7333 7.9908L25.7345 7.9908L25.7357 7.9908L25.7369 7.9908L25.7381 7.9908L25.7393 7.9908L25.7404 7.9908L25.7416 7.9908L25.7427 7.9908L25.7438 7.9908L25.745 7.9908L25.7461 7.9908L25.7472 7.9908L25.7483 7.9908L25.7494 7.9908L25.7505 7.9908L25.7516 7.9908L25.7526 7.9908L25.7537 7.9908L25.7548 7.9908L25.7558 7.9908L25.7569 7.9908L25.7579 7.9908L25.759 7.9908L25.76 7.9908L25.761 7.9908L25.762 7.9908L25.763 7.9908L25.764 7.9908L25.7651 7.9908L25.7661 7.9908L25.767 7.9908L25.768 7.9908L25.769 7.9908L25.77 7.9908L25.771 7.9908L25.772 7.9908L25.7729 7.9908L25.7739 7.9908L25.7749 7.9908L25.7758 7.9908L25.7768 7.9908L25.7777 7.9908L25.7787 7.9908L25.7796 7.9908L25.7806 7.9908L25.7815 7.9908L25.7825 7.9908L25.7834 7.9908L25.7844 7.9908L25.7853 7.9908L25.7862 7.9908L25.7872 7.9908L25.7881 7.9908L25.789 7.9908L25.79 7.9908L25.7909 7.9908L25.7918 7.9908L25.7928 7.9908L25.7937 7.9908L25.7946 7.9908L25.7956 7.9908L25.7965 7.9908L25.7975 7.9908L25.7984 7.9908L25.7993 7.9908L25.8003 7.9908L25.8012 7.9908L25.8022 7.9908L25.8031 7.9908L25.8041 7.9908L25.805 7.9908L25.806 7.9908L25.8069 7.9908L25.8079 7.9908L25.8088 7.9908L25.8098 7.9908L25.8108 7.9908L25.8117 7.9908L25.8127 7.9908L25.8137 7.9908L25.8147 7.9908L25.8156 7.9908L25.8166 7.9908L25.8176 7.9908L25.8186 7.9908L25.8196 7.9908L25.8206 7.9908L25.8216 7.9908L25.8227 7.9908L25.8237 7.9908L25.8247 7.9908L25.8258 7.9908L25.8268 7.9908L25.8278 7.9908L25.8289 7.9908L25.83 7.9908L25.831 7.9908L25.8321 7.9908L25.8332 7.9908L25.8343 7.9908L25.8354 7.9908L25.8365 7.9908L25.8376 7.9908L25.8387 7.9908L25.8398 7.9908L25.8409 7.9908L25.8421 7.9908L25.8432 7.9908L25.8444 7.9908L25.8456 7.9908L25.8467 7.9908L25.8479 7.9908L25.8491 7.9908L25.8503 7.9908L25.8515 7.9908L25.8528 7.9908L25.854 7.9908L25.8552 7.9908L25.8565 7.9908L25.8577 7.9908L25.859 7.9908L25.8603 7.9908L25.8616 7.9908L25.8629 7.9908L25.8642 7.9908L25.8656 7.9908L25.8669 7.9908L25.8683 7.9908L25.8696 7.9908L25.871 7.9908L25.8724 7.9908L25.8738 7.9908L25.8752 7.9908L25.8766 7.9908L25.8781 7.9908L25.8795 7.9908L25.881 7.9908L25.8825 7.9908L25.884 7.9908L25.8855 7.9908L25.887 7.9908L25.8886 7.9908L25.8901 7.9908L25.8917 7.9908L25.8933 7.9908L25.8949 7.9908L25.8965 7.9908L25.8981 7.9908L25.8997 7.9908L25.9014 7.9908L25.9031 7.9908L25.9048 7.9908L25.9065 7.9908L25.9082 7.9908L25.9099 7.9908L25.9117 7.9908L25.9135 7.9908L25.9153 7.9908L25.9171 7.9908L25.9189 7.9908L25.9207 7.9908L25.9226 7.9908L25.9245 7.9908L25.9263 7.9908L25.9283 7.9908L25.9302 7.9908L25.9321 7.9908L25.9341 7.9908L25.9361 7.9908L25.9381 7.9908L25.9401 7.9908L25.9422 7.9908L25.9442 7.9908L25.9463 7.9908L25.9484 7.9908L25.9505 7.9908L25.9527 7.9908L25.9548 7.9908L25.957 7.9908L25.9592 7.9908L25.9615 7.9908L25.9637 7.9908L25.966 7.9908L25.9683 7.9908L25.9706 7.9908L25.9729 7.9908L25.9753 7.9908L25.9776 7.9908L25.98 7.9908L25.9824 7.9908L25.9849 7.9908L25.9874 7.9908L25.9898 7.9908L25.9924 7.9908L25.9949 7.9908L25.9974 7.9908L26 7.9908L26.0026 7.9908L26.0053 7.9908L26.0079 7.9908L26.0106 7.9908L26.0133 7.9908L26.016 7.9908L26.0188 7.9908L26.0216 7.9908L26.0244 7.9908L26.0272 7.9908L26.03 7.9908L26.0329 7.9908L26.0358 7.9908L26.0387 7.9908L26.0417 7.9908L26.0447 7.9908L26.0477 7.9908L26.0507 7.9908L26.0538 7.9908L26.0569 7.9908L26.06 7.9908L26.0631 7.9908L26.0663 7.9908L26.0695 7.9908L26.0727 7.9908L26.076 7.9908L26.0793 7.9908L26.0826 7.9908L26.0859 7.9908L26.0893 7.9908L26.0927 7.9908L26.0961 7.9908L26.0995 7.9908L26.103 7.9908L26.1065 7.9908L26.1101 7.9908L26.1136 7.9908L26.1172 7.9908L26.1209 7.9908L26.1245 7.9908L26.1282 7.9908L26.132 7.9908L26.1357 7.9908L26.1395 7.9908L26.1433 7.9908L26.1472 7.9908L26.151 7.9908L26.155 7.9908L26.1589 7.9908L26.1629 7.9908L26.1669 7.9908L26.1709 7.9908L26.175 7.9908L26.1791 7.9908L26.1832 7.9908L26.1874 7.9908L26.1916 7.9908L26.1958 7.9908L26.2001 7.9908L26.2044 7.9908L26.2088 7.9908L26.2131 7.9908L26.2175 7.9908L26.222 7.9908L26.2264 7.9908L26.231 7.9908L26.2355 7.9908L26.2401 7.9908L26.2447 7.9908L26.2494 7.9908L26.254 7.9908L26.2588 7.9908L26.2635 7.9908L26.2683 7.9908L26.2731 7.9908L26.278 7.9908L26.2829 7.9908L26.2879 7.9908L26.2928 7.9908L26.2978 7.9908L26.3029 7.9908L26.308 7.9908L26.3131 7.9908L26.3183 7.9908L26.3235 7.9908L26.3287 7.9908L26.334 7.9908L26.3393 7.9908L26.3447 7.9908L26.3501 7.9908L26.3555 7.9908L26.361 7.9908L26.3665 7.9908L26.372 7.9908L26.3776 7.9908L26.3833 7.9908L26.3889 7.9908L26.3946 7.9908L26.4004 7.9908L26.4062 7.9908L26.412 7.9908L26.4179 7.9908L26.4238 7.9908L26.4298 7.9908L26.4358 7.9908L26.4418 7.9908L26.4479 7.9908L26.454 7.9908L26.4602 7.9908L26.4664 7.9908L26.4726 7.9908L26.4789 7.9908L26.4852 7.9908L26.4916 7.9908L26.498 7.9908L26.5045 7.9908L26.511 7.9908L26.5176 7.9908L26.5242 7.9908L26.5308 7.9908L26.5375 7.9908L26.5442 7.9908L26.551 7.9908L26.5578 7.9908L26.5646 7.9908L26.5715 7.9908L26.5785 7.9908L26.5855 7.9908L26.5925 7.9908L26.5996 7.9908L26.6067 7.9908L26.6139 7.9908L26.6211 7.9908L26.6284 7.9908L26.6357 7.9908L26.6431 7.9908L26.6505 7.9908C26.6505 7.9908 26.658 7.9908 26.658 7.9908C26.658 7.9908 29.6559 7.9908 29.6559 7.9908C30.0462 7.9908 30.3647 7.6783 30.372 7.2881C30.372 7.2881 30.4946 0.7295 30.4946 0.7295C30.4981 0.5373 30.4243 0.3517 30.2896 0.2145C30.155 0.077301 29.9708 0 29.7785 0C29.7785 0 28.2115 0 28.2115 0C28.2115 0 28.2115 0.246101 28.2115 0.246101C28.2115 0.246101 28.2115 0.246101 28.2115 0.246101C28.2115 0.246101 28.2115 0 28.2115 0C28.2115 0 28.2114 0 28.2114 0L28.211 0L28.2094 0L28.203 0L28.1777 0L28.0794 0L27.7086 0C27.7086 0 26.4049 0 26.4049 0C26.4049 0 22.6242 0 22.6242 0C22.36 0 21.868 0.0606003 21.4967 0.1105C21.2991 0.137001 21.1151 0.1635 20.9807 0.1833C20.9134 0.193201 20.8584 0.2015 20.82 0.2073C20.82 0.2073 20.7754 0.2141 20.7754 0.2141C20.7754 0.2141 20.7635 0.216002 20.7635 0.216002L20.7604 0.216501L20.7595 0.2166L20.7593 0.2166C20.7593 0.2166 20.7592 0.2166 20.7592 0.2166C20.7592 0.2166 20.8688 0.9244 20.8688 0.9244C20.8688 0.9244 20.6947 0.2297 20.6947 0.2297ZM20.6947 0.2297C20.716 0.2243 20.7375 0.220001 20.7592 0.2166C20.7592 0.2166 20.8688 0.9244 20.8688 0.9244C20.8688 0.9244 20.6947 0.2297 20.6947 0.2297ZM14.1093 13.8839C14.1095 13.884 14.1097 13.8841 14.1099 13.8843C14.1099 13.8843 14.1098 13.8842 14.1098 13.8842C14.1098 13.8842 14.1093 13.8839 14.1093 13.8839ZM14.1093 13.8839C14.1091 13.8837 14.109 13.8836 14.1088 13.8835C14.1088 13.8835 14.1088 13.8835 14.1088 13.8835C14.1088 13.8835 14.1093 13.8839 14.1093 13.8839Z" fill="#9A93FA" stroke-width="1.432" stroke="#443DA8" stroke-linejoin="round" transform="translate(7.008 29.655)" />
        <path d="M10.8788 9.91821e-05C10.8788 9.91821e-05 5.71711 0.104099 5.71711 0.104099C5.71711 0.104099 1.27911 0.104099 1.27911 0.104099C1.27911 0.104099 0.716209 0.104099 0.716209 0.104099C0.52261 0.104099 0.337311 0.1824 0.20241 0.321301C0.0675106 0.460197 -0.00539017 0.647697 0.000310898 0.841198C0.0562096 2.7482 1.43451 4.083 2.63811 4.9908C3.21021 5.4223 3.83761 5.6977 4.37521 5.9337C4.47061 5.9756 4.56321 6.0162 4.65211 6.0563C5.26781 6.3336 5.77971 6.6066 6.21641 7.0812C7.36491 8.3295 8.01561 10.1589 8.10951 11.8744C8.10951 11.8744 8.10951 13.4168 8.10951 13.4168C8.10951 13.8123 8.43011 14.1329 8.82561 14.1329C8.82561 14.1329 16.904 14.1329 16.904 14.1329C17.2995 14.1329 17.6201 13.8123 17.6201 13.4168C17.6201 13.4168 17.6201 0.820198 17.6201 0.820198C17.6201 0.477699 17.3777 0.183201 17.0416 0.117397C17.0416 0.117397 16.5098 0.013298 16.5098 0.013298C16.4645 0.00439835 16.4184 0 16.3722 0C16.3722 0 10.8932 0 10.8932 0C10.8932 0 10.8788 9.91821e-05 10.8788 9.91821e-05Z" fill="#9A93FA" stroke-width="1.432" stroke="#443DA8" stroke-linejoin="round" transform="translate(19.465 37.983)" />
        <path d="M17.1079 4.38205C17.1079 4.38205 17.0971 4.37585 17.0971 4.37585C17.0971 4.37585 16.9325 4.66005 16.9325 4.66005C16.9325 4.66005 16.9324 4.66005 16.9324 4.66005C16.9324 4.66005 17.0971 4.37575 17.0971 4.37575C17.0971 4.37575 17.097 4.37575 17.097 4.37575L17.0967 4.37555L17.0955 4.37485L17.0907 4.37215L17.072 4.36125C17.072 4.36125 16.9996 4.31935 16.9996 4.31935C16.9996 4.31935 16.7306 4.16365 16.7306 4.16365C16.5019 4.03135 16.1822 3.84655 15.8182 3.63655C15.0905 3.21675 14.1844 2.69535 13.4742 2.29105C12.0549 1.48305 9.9768 0.58655 9.1365 0.266249C8.8366 0.151949 8.4564 0.0939484 8.0861 0.0594482C7.7011 0.02355 7.2643 0.00794983 6.8202 0.00244904C6.2951 -0.00405121 5.7151 0.00364876 5.1844 0.010849C4.8411 0.0154495 4.5185 0.0197487 4.2447 0.0197487C4.2447 0.0197487 1.9659 0.0197487 1.9659 0.0197487C1.9659 0.0197487 1.0745 0.0197487 1.0745 0.0197487L0.811501 0.0197487L0.7407 0.0197487L0.722401 0.0197487L0.717701 0.0197487L0.716499 0.0197487L0.716198 0.0197487L0.716198 0.0197487C0.716198 0.0197487 0.716099 0.73595 0.716099 0.73595C0.716099 0.73595 0.716099 0.0197487 0.716099 0.0197487C0.320599 0.0197487 0 0.340349 0 0.73595C0 0.73595 0 7.42165 0 7.42165C0 7.61665 0.0794983 7.80335 0.2202 7.93835C0.361 8.07345 0.550701 8.14525 0.745598 8.13725C0.745598 8.13725 4.0374 8.00195 4.0374 8.00195C4.0374 8.00195 4.0388 8.00195 4.0388 8.00195L4.0408 8.00195L4.0428 8.00195L4.0448 8.00195L4.0468 8.00195L4.0488 8.00195L4.0508 8.00195L4.0528 8.00195L4.0547 8.00195L4.0567 8.00195L4.0587 8.00195L4.0606 8.00195L4.0626 8.00195L4.0646 8.00195L4.0665 8.00195L4.0685 8.00195L4.0704 8.00195L4.0724 8.00195L4.0743 8.00195L4.0762 8.00195L4.0782 8.00195L4.0801 8.00195L4.082 8.00195L4.0839 8.00195L4.0859 8.00195L4.0878 8.00195L4.0897 8.00195L4.0916 8.00195L4.0935 8.00195L4.0954 8.00195L4.0973 8.00195L4.0992 8.00195L4.1011 8.00195L4.103 8.00195L4.1049 8.00195L4.1068 8.00195L4.1087 8.00195L4.1106 8.00195L4.1125 8.00195L4.1143 8.00195L4.1162 8.00195L4.1181 8.00195L4.12 8.00195L4.1218 8.00195L4.1237 8.00195L4.1256 8.00195L4.1274 8.00195L4.1293 8.00195L4.1311 8.00195L4.133 8.00195L4.1349 8.00195L4.1367 8.00195L4.1386 8.00195L4.1404 8.00195L4.1422 8.00195L4.1441 8.00195L4.1459 8.00195L4.1478 8.00195L4.1496 8.00195L4.1514 8.00195L4.1533 8.00195L4.1551 8.00195L4.1569 8.00195L4.1587 8.00195L4.1606 8.00195L4.1624 8.00195L4.1642 8.00195L4.166 8.00195L4.1678 8.00195L4.1697 8.00195L4.1715 8.00195L4.1733 8.00195L4.1751 8.00195L4.1769 8.00195L4.1787 8.00195L4.1805 8.00195L4.1823 8.00195L4.1841 8.00195L4.1859 8.00195L4.1877 8.00195L4.1895 8.00195L4.1913 8.00195L4.1931 8.00195L4.1949 8.00195L4.1967 8.00195L4.1985 8.00195L4.2003 8.00195L4.2021 8.00195L4.2039 8.00195L4.2057 8.00195L4.2075 8.00195L4.2093 8.00195L4.211 8.00195L4.2128 8.00195L4.2146 8.00195L4.2164 8.00195L4.2182 8.00195L4.22 8.00195L4.2218 8.00195L4.2235 8.00195L4.2253 8.00195L4.2271 8.00195L4.2289 8.00195L4.2307 8.00195L4.2324 8.00195L4.2342 8.00195L4.236 8.00195L4.2378 8.00195L4.2396 8.00195L4.2413 8.00195L4.2431 8.00195L4.2449 8.00195L4.2467 8.00195L4.2484 8.00195L4.2502 8.00195L4.252 8.00195L4.2538 8.00195L4.2555 8.00195L4.2573 8.00195L4.2591 8.00195L4.2609 8.00195L4.2626 8.00195L4.2644 8.00195L4.2662 8.00195L4.268 8.00195L4.2698 8.00195L4.2715 8.00195L4.2733 8.00195L4.2751 8.00195L4.2769 8.00195L4.2786 8.00195L4.2804 8.00195L4.2822 8.00195L4.284 8.00195L4.2858 8.00195L4.2875 8.00195L4.2893 8.00195L4.2911 8.00195L4.2929 8.00195L4.2947 8.00195L4.2965 8.00195L4.2983 8.00195L4.3 8.00195L4.3018 8.00195L4.3036 8.00195L4.3054 8.00195L4.3072 8.00195L4.309 8.00195L4.3108 8.00195L4.3126 8.00195L4.3144 8.00195L4.3162 8.00195L4.3179 8.00195L4.3197 8.00195L4.3215 8.00195L4.3233 8.00195L4.3251 8.00195L4.3269 8.00195L4.3287 8.00195L4.3306 8.00195L4.3324 8.00195L4.3342 8.00195L4.336 8.00195L4.3378 8.00195L4.3396 8.00195L4.3414 8.00195L4.3432 8.00195L4.345 8.00195L4.3469 8.00195L4.3487 8.00195L4.3505 8.00195L4.3523 8.00195L4.3542 8.00195L4.356 8.00195L4.3578 8.00195L4.3596 8.00195L4.3615 8.00195L4.3633 8.00195L4.3651 8.00195L4.367 8.00195L4.3688 8.00195L4.3707 8.00195L4.3725 8.00195L4.3744 8.00195L4.3762 8.00195L4.3781 8.00195L4.3799 8.00195L4.3818 8.00195L4.3836 8.00195L4.3855 8.00195L4.3874 8.00195L4.3892 8.00195L4.3911 8.00195L4.393 8.00195L4.3948 8.00195L4.3967 8.00195L4.3986 8.00195L4.4005 8.00195L4.4023 8.00195L4.4042 8.00195L4.4061 8.00195L4.408 8.00195L4.4099 8.00195L4.4118 8.00195L4.4137 8.00195L4.4156 8.00195L4.4175 8.00195L4.4194 8.00195L4.4213 8.00195L4.4232 8.00195L4.4252 8.00195L4.4271 8.00195L4.429 8.00195L4.4309 8.00195L4.4329 8.00195L4.4348 8.00195L4.4367 8.00195L4.4387 8.00195L4.4406 8.00195L4.4426 8.00195L4.4445 8.00195L4.4465 8.00195L4.4484 8.00195L4.4504 8.00195L4.4524 8.00195L4.4543 8.00195L4.4563 8.00195L4.4583 8.00195L4.4602 8.00195L4.4622 8.00195L4.4642 8.00195L4.4662 8.00195L4.4682 8.00195L4.4702 8.00195L4.4722 8.00195L4.4742 8.00195L4.4762 8.00195L4.4782 8.00195L4.4802 8.00195L4.4823 8.00195L4.4843 8.00195L4.4863 8.00195L4.4883 8.00195L4.4904 8.00195L4.4924 8.00195L4.4945 8.00195L4.4965 8.00195L4.4986 8.00195L4.5006 8.00195L4.5027 8.00195L4.5048 8.00195L4.5068 8.00195L4.5089 8.00195L4.511 8.00195L4.5131 8.00195L4.5152 8.00195L4.5173 8.00195L4.5193 8.00195L4.5215 8.00195L4.5236 8.00195L4.5257 8.00195L4.5278 8.00195L4.5299 8.00195L4.532 8.00195L4.5342 8.00195L4.5363 8.00195L4.5384 8.00195L4.5406 8.00195L4.5427 8.00195L4.5449 8.00195L4.5471 8.00195L4.5492 8.00195L4.5514 8.00195L4.5536 8.00195L4.5558 8.00195L4.5579 8.00195L4.5601 8.00195L4.5623 8.00195L4.5645 8.00195L4.5667 8.00195L4.569 8.00195L4.5712 8.00195L4.5734 8.00195L4.5756 8.00195L4.5779 8.00195L4.5801 8.00195L4.5824 8.00195L4.5846 8.00195L4.5869 8.00195L4.5891 8.00195L4.5914 8.00195L4.5937 8.00195L4.596 8.00195L4.5982 8.00195L4.6005 8.00195L4.6028 8.00195L4.6051 8.00195L4.6074 8.00195L4.6098 8.00195L4.6121 8.00195L4.6144 8.00195L4.6167 8.00195L4.6191 8.00195L4.6214 8.00195L4.6238 8.00195L4.6261 8.00195L4.6285 8.00195L4.6309 8.00195L4.6333 8.00195L4.6356 8.00195L4.638 8.00195L4.6404 8.00195L4.6428 8.00195L4.6452 8.00195L4.6477 8.00195L4.6501 8.00195L4.6525 8.00195L4.6549 8.00195L4.6574 8.00195L4.6598 8.00195L4.6623 8.00195L4.6648 8.00195L4.6672 8.00195L4.6697 8.00195L4.6722 8.00195L4.6747 8.00195L4.6772 8.00195L4.6797 8.00195L4.6822 8.00195L4.6847 8.00195L4.6872 8.00195L4.6898 8.00195L4.6923 8.00195L4.6948 8.00195L4.6974 8.00195L4.7 8.00195L4.7025 8.00195L4.7051 8.00195L4.7077 8.00195L4.7103 8.00195L4.7129 8.00195L4.7155 8.00195L4.7181 8.00195L4.7207 8.00195L4.7233 8.00195L4.726 8.00195L4.7286 8.00195L4.7312 8.00195L4.7339 8.00195L4.7366 8.00195L4.7392 8.00195L4.7419 8.00195L4.7446 8.00195L4.7473 8.00195L4.75 8.00195L4.7527 8.00195L4.7554 8.00195L4.7582 8.00195L4.7609 8.00195L4.7636 8.00195L4.7664 8.00195L4.7692 8.00195L4.7719 8.00195L4.7747 8.00195L4.7775 8.00195L4.7803 8.00195L4.7831 8.00195L4.7859 8.00195L4.7887 8.00195L4.7915 8.00195L4.7944 8.00195L4.7972 8.00195L4.8 8.00195L4.8029 8.00195L4.8058 8.00195L4.8086 8.00195L4.8115 8.00195L4.8144 8.00195L4.8173 8.00195L4.8202 8.00195L4.8231 8.00195L4.8261 8.00195L4.829 8.00195L4.832 8.00195L4.8349 8.00195L4.8379 8.00195L4.8408 8.00195L4.8438 8.00195L4.8468 8.00195L4.8498 8.00195L4.8528 8.00195L4.8558 8.00195L4.8589 8.00195L4.8619 8.00195L4.8649 8.00195L4.868 8.00195L4.8711 8.00195L4.8741 8.00195L4.8772 8.00195L4.8803 8.00195L4.8834 8.00195L4.8865 8.00195L4.8896 8.00195L4.8927 8.00195L4.8959 8.00195L4.899 8.00195L4.9022 8.00195L4.9054 8.00195L4.9085 8.00195L4.9117 8.00195L4.9149 8.00195L4.9181 8.00195L4.9213 8.00195L4.9245 8.00195L4.9278 8.00195L4.931 8.00195L4.9343 8.00195L4.9375 8.00195L4.9408 8.00195L4.9441 8.00195L4.9474 8.00195L4.9507 8.00195L4.954 8.00195L4.9573 8.00195L4.9607 8.00195L4.964 8.00195L4.9674 8.00195L4.9707 8.00195L4.9741 8.00195L4.9775 8.00195L4.9809 8.00195L4.9843 8.00195L4.9877 8.00195L4.9911 8.00195L4.9946 8.00195L4.998 8.00195L5.0015 8.00195L5.0049 8.00195L5.0084 8.00195L5.0119 8.00195L5.0154 8.00195L5.0189 8.00195L5.0224 8.00195L5.026 8.00195L5.0295 8.00195L5.0331 8.00195L5.0366 8.00195L5.0402 8.00195L5.0438 8.00195L5.0474 8.00195L5.051 8.00195L5.0546 8.00195L5.0583 8.00195L5.0619 8.00195L5.0656 8.00195L5.0692 8.00195L5.0729 8.00195L5.0766 8.00195L5.0803 8.00195L5.084 8.00195L5.0877 8.00195L5.0914 8.00195L5.0952 8.00195L5.0989 8.00195L5.1027 8.00195L5.1065 8.00195L5.1103 8.00195L5.1141 8.00195L5.1179 8.00195L5.1217 8.00195L5.1256 8.00195L5.1294 8.00195L5.1333 8.00195L5.1371 8.00195L5.141 8.00195L5.1449 8.00195L5.1488 8.00195L5.1527 8.00195L5.1567 8.00195L5.1606 8.00195L5.1646 8.00195L5.1685 8.00195L5.1725 8.00195L5.1765 8.00195L5.1805 8.00195L5.1845 8.00195L5.1886 8.00195L5.1926 8.00195L5.1967 8.00195L5.2007 8.00195L5.2048 8.00195L5.2089 8.00195L5.213 8.00195L5.2171 8.00195L5.2212 8.00195L5.2254 8.00195L5.2295 8.00195L5.2337 8.00195L5.2379 8.00195L5.242 8.00195L5.2462 8.00195L5.2505 8.00195L5.2547 8.00195L5.2589 8.00195C5.2589 8.00195 5.2632 8.00195 5.2632 8.00195C5.2632 8.00195 9.1896 8.00195 9.1896 8.00195C9.2144 8.00195 9.2392 8.00065 9.2639 7.99805C9.2639 7.99805 9.1896 7.28575 9.1896 7.28575C9.2639 7.99805 9.264 7.99805 9.2641 7.99805C9.2641 7.99805 9.2644 7.99805 9.2644 7.99805C9.2644 7.99805 9.2652 7.99795 9.2652 7.99795L9.2678 7.99765C9.2678 7.99765 9.2769 7.99665 9.2769 7.99665C9.2769 7.99665 9.3098 7.99305 9.3098 7.99305C9.3382 7.98985 9.3791 7.98515 9.4308 7.97895C9.5341 7.96645 9.6811 7.94765 9.858 7.92245C10.2107 7.87215 10.6886 7.79515 11.1811 7.68895C11.6675 7.58395 12.1962 7.44455 12.638 7.26265C12.8585 7.17195 13.082 7.06065 13.2744 6.92195C13.4586 6.78915 13.6769 6.58625 13.7892 6.29125C13.7911 6.28625 13.7939 6.27935 13.7975 6.27075C13.8434 6.15955 14.0097 5.75655 13.8672 5.25965C13.7848 4.97255 13.6182 4.70405 13.3648 4.45095C13.4016 4.46765 13.4385 4.48445 13.4754 4.50135C14.2847 4.87225 14.7244 5.10005 15.5179 5.52815C15.6727 5.61165 15.8129 5.68625 15.9434 5.75565C16.4903 6.04685 16.8668 6.24715 17.4315 6.62955C18.0937 7.07785 19.034 7.70585 19.5667 7.98005C19.5667 7.98005 19.7408 7.64175 19.7408 7.64175C19.7408 7.64175 19.5667 7.98005 19.5667 7.98005C19.7239 8.06095 19.9988 8.18375 20.3047 8.12825C20.4915 8.09445 20.6724 7.99635 20.8028 7.82945C20.9216 7.67745 20.9601 7.51765 20.9732 7.41315C20.9973 7.21955 20.9542 7.04975 20.9352 6.98125C20.9228 6.93625 20.9098 6.89805 20.8998 6.87065C20.8947 6.85665 20.8901 6.84465 20.8864 6.83515C20.8864 6.83515 20.8813 6.82265 20.8813 6.82265C20.8813 6.82265 20.8793 6.81775 20.8793 6.81775L20.8784 6.81565C20.8784 6.81565 20.878 6.81465 20.878 6.81465C20.878 6.81465 20.8778 6.81415 20.8778 6.81415C20.8777 6.81395 20.8776 6.81375 20.2182 7.09335C20.2182 7.09335 20.8776 6.81375 20.8776 6.81375C20.8186 6.67475 20.7173 6.55795 20.588 6.47995C20.588 6.47995 17.1078 4.38215 17.1078 4.38215C17.1078 4.38215 17.1079 4.38205 17.1079 4.38205Z" fill="#9A93FA" stroke-width="1.432" stroke="#443DA8" stroke-linejoin="round" transform="translate(36.363 29.644)" />
        <path d="M7.09657 0.0311852C6.64217 -0.0134163 6.36747 -0.00701523 5.93177 0.0303841C2.17307 0.352482 -0.623132 3.38398 0.120269 7.33088C0.267669 8.11388 0.589869 8.99148 1.05697 9.76988C1.51997 10.5417 2.16237 11.2766 2.98297 11.6898C2.99797 11.6974 3.01307 11.705 3.02807 11.7125C3.87897 12.1411 4.79287 12.6014 5.93077 12.7006C6.52567 12.7524 7.11537 12.716 7.70367 12.5811C8.74067 12.3432 9.81727 11.7713 10.6065 11.0625C11.4521 10.3032 12.0783 9.32168 12.4558 8.27388C12.6343 7.77858 12.7446 7.43938 12.8046 6.85508C13.0986 3.99318 11.2379 1.30828 8.60887 0.380882C8.06167 0.187782 7.70447 0.0907822 7.09657 0.0311852ZM5.07477 3.19548C5.43707 3.07918 5.63477 3.04838 6.04277 3.01988C7.20497 2.93878 8.53717 3.45469 9.26927 4.32728C9.65657 4.78898 9.85987 5.35668 9.93297 6.02678C9.97597 6.42118 9.98987 6.57308 9.93907 6.86889C9.68327 8.35778 8.30947 9.61968 6.82747 9.81989C6.45817 9.86978 6.26417 9.86588 5.87177 9.81858C4.38757 9.63988 3.16887 8.46778 2.87057 6.95558C2.54727 5.31718 3.50517 3.69968 5.07477 3.19548Z" fill="#9A93FA" stroke-width="1.432" stroke="#443DA8" stroke-linejoin="round" transform="translate(14.441 43.681)" />
        <path d="M12.8169 6.62716C12.7027 4.78646 12.0122 3.05866 10.8095 1.82166C9.5948 0.572563 7.8875 -0.142239 5.8416 0.0237617C3.017 0.253063 0.545303 2.14746 0.0597038 5.63586C-0.436798 9.20226 2.2193 12.3959 5.9456 12.6947C9.37101 12.9694 13.0629 10.5902 12.8169 6.62716ZM2.9902 5.83606C3.1024 5.05236 3.3966 4.45206 3.821 4.01356C4.2462 3.57416 4.8415 3.25696 5.6216 3.10646C6.8989 2.86016 7.991 3.19776 8.7648 3.87306C9.544 4.55306 10.0421 5.61266 10.0421 6.87976C10.0421 7.79996 9.5507 8.60996 8.76091 9.16526C7.9663 9.72406 6.9156 9.98686 5.9159 9.81726C5.0151 9.66446 4.2252 9.06756 3.679 8.26486C3.1272 7.45386 2.8908 6.53036 2.9902 5.83606Z" fill="#9A93FA" stroke-width="1.432" stroke="#443DA8" stroke-linejoin="round" transform="translate(56.506 43.687)" />
        <path d="M7.79036 3.86568C8.02886 3.85949 8.24856 3.73499 8.37636 3.53358C8.50416 3.33219 8.52336 3.08039 8.42756 2.86199C8.42756 2.86199 7.77176 3.14979 7.77176 3.14979C7.77176 3.14979 7.79036 3.86568 7.79036 3.86568ZM7.79036 3.86568C7.79036 3.86568 7.79026 3.86568 7.79026 3.86568L7.79005 3.86568L7.78946 3.86568L7.78735 3.86579L7.77956 3.86599C7.77956 3.86599 7.75026 3.86669 7.75026 3.86669C7.75026 3.86669 7.64296 3.86889 7.64296 3.86889C7.55206 3.87069 7.42516 3.87289 7.28056 3.87429C6.99486 3.87709 6.62775 3.87729 6.33395 3.86529C6.25526 3.86209 6.17995 3.85939 6.10696 3.85669C5.64385 3.83969 5.27335 3.82619 4.71526 3.72559C4.01176 3.59888 3.61046 3.46878 2.96825 3.22169C2.96825 3.22169 2.95335 3.21598 2.95335 3.21598C2.53735 3.05589 2.25686 2.94799 1.82046 2.69879C1.67625 2.61639 1.57986 2.56869 1.47636 2.51739C1.41335 2.48619 1.34776 2.45369 1.26716 2.41129C1.06666 2.30589 0.869362 2.18359 0.635963 1.97569C0.62796 1.96859 0.609962 1.95309 0.586662 1.93319C0.527664 1.88259 0.43486 1.80299 0.385262 1.75608C0.301163 1.67649 0.136559 1.51269 0.0523605 1.27269C-0.0138397 1.08379 -0.000236511 0.902882 0.0042572 0.846485C0.00765991 0.803185 0.0126648 0.766087 0.0167618 0.739487C0.0188599 0.725983 0.0208588 0.714287 0.0225601 0.705086C0.0225601 0.705086 0.0248642 0.692883 0.0248642 0.692883C0.0248642 0.692883 0.0258636 0.688084 0.0258636 0.688084L0.0262604 0.686085L0.0264587 0.685081C0.0264587 0.685081 0.0264587 0.684685 0.0264587 0.684685C0.0264587 0.684685 0.0265579 0.684483 0.0265579 0.684483C0.0265579 0.684387 0.0265579 0.684288 0.728264 0.827587C0.728264 0.827587 0.0265579 0.684288 0.0265579 0.684288C0.0935593 0.356285 0.37886 0.118481 0.713562 0.111588C0.713562 0.111588 5.75375 0.00798798 5.75375 0.00798798C5.75375 0.00798798 5.76025 0.00738525 5.76025 0.00738525C5.78326 0.00558472 5.81496 0.00328445 5.85165 0.00178528C5.91026 -0.000614166 6.03566 -0.00411224 6.16245 0.0178871C6.41245 0.0613861 6.59605 0.164883 6.73856 0.276585C6.79926 0.324181 6.85255 0.373585 6.88676 0.405186C6.88676 0.405186 6.88805 0.406384 6.88805 0.406384C6.88805 0.406384 6.89226 0.410286 6.89226 0.410286C6.92905 0.444283 6.95206 0.465588 6.97765 0.487183C7.38186 0.826187 7.58575 1.20869 7.74556 1.50859C7.78516 1.58279 7.82195 1.65189 7.85856 1.71408C7.85856 1.71408 7.26636 2.06199 7.26636 2.06199C7.26636 2.06199 7.85856 1.71408 7.85856 1.71408C7.99386 1.94439 8.13776 2.23669 8.24256 2.45809C8.29616 2.57149 8.34206 2.67169 8.37466 2.74359C8.39095 2.77969 8.40395 2.80878 8.41296 2.82909C8.41296 2.82909 8.42345 2.85279 8.42345 2.85279C8.42345 2.85279 8.42635 2.85929 8.42635 2.85929L8.42715 2.86109L8.42746 2.86169L8.42746 2.86189C8.42746 2.86189 8.42756 2.86199 8.42756 2.86199C8.42756 2.86199 7.77176 3.14979 7.77176 3.14979C7.77176 3.14979 7.79036 3.86568 7.79036 3.86568Z" fill="#9A93FA" stroke-width="1.432" stroke="#443DA8" stroke-linejoin="round" transform="translate(69.43 40.59)" />
        <path d="M0.8573 2.82429C0.8573 2.82429 0.85739 2.82429 0.85739 2.82429L0.85763 2.82429L0.85836 2.82419L0.86082 2.82409C0.86082 2.82409 0.86959 2.82359 0.86959 2.82359C0.86959 2.82359 0.901589 2.82179 0.901589 2.82179C0.92896 2.82019 0.96801 2.81779 1.01573 2.81469C1.11089 2.80849 1.24185 2.79909 1.38409 2.78669C1.63992 2.76439 2.02314 2.72539 2.26277 2.65719C2.68278 2.53759 2.96707 2.34579 3.19187 2.19409C3.20697 2.18389 3.22177 2.17389 3.23627 2.16419C3.23627 2.16419 2.83711 1.56959 2.83711 1.56959C2.83711 1.56959 3.23627 2.16419 3.23627 2.16419C3.37957 2.06799 3.61157 1.89629 3.81087 1.70339C3.90867 1.60869 4.02337 1.48539 4.11377 1.34439C4.18517 1.23279 4.34307 0.956989 4.27337 0.613388C4.27337 0.613388 3.57157 0.755688 3.57157 0.755688C3.57157 0.755688 4.27337 0.613388 4.27337 0.613388C4.22527 0.376091 4.07857 0.231491 3.98007 0.160389C3.88547 0.0921898 3.79497 0.0601883 3.74597 0.0451889C3.64627 0.0147896 3.55337 0.00669098 3.50287 0.00349045C3.39007 -0.00381088 3.26757 0.00168991 3.17537 0.00769043C3.07657 0.0142899 2.98127 0.0237885 2.91257 0.0313873C2.87768 0.0352898 2.8485 0.0387878 2.82769 0.0413895C2.82769 0.0413895 2.82458 0.04179 2.82458 0.04179C2.82458 0.04179 0.68185 0.144489 0.68185 0.144489C0.3001 0.162788 0 0.477688 0 0.85989C0 0.85989 0 2.00499 0 2.00499C0 2.19409 0.07476 2.37549 0.20799 2.50959C0.20799 2.50959 0.31136 2.61369 0.31136 2.61369C0.45505 2.75839 0.6536 2.83499 0.85723 2.82429C0.85723 2.82429 0.81953 2.10909 0.81953 2.10909C0.81953 2.10909 0.8573 2.82429 0.8573 2.82429Z" fill="#9A93FA" stroke-width="1.432" stroke="#443DA8" stroke-linejoin="round" transform="translate(7.105 40.962)" />
      </g>
    </g>
  </g>
</svg>