<?xml version="1.0" encoding="utf-8"?>
<svg width="25" height="25" viewBox="0 0 25 25" fill="none" xmlns="http://www.w3.org/2000/svg">
  <g>
    <path d="M15.0205 5.50867C18.8605 7.4287 18.8605 10.5687 15.0205 12.4887C15.0205 12.4887 6.46046 16.7687 6.46046 16.7687C0.700459 19.6487 -1.64954 17.2887 1.23046 11.5387C1.23046 11.5387 2.10046 9.8087 2.10046 9.8087C2.35046 9.2987 2.35046 8.7087 2.10046 8.1987C2.10046 8.1987 1.23046 6.4587 1.23046 6.4587C-1.64954 0.708669 0.710459 -1.65133 6.46046 1.22867C6.46046 1.22867 15.0205 5.50867 15.0205 5.50867Z" fill="#ABA5FA" fill-opacity="0.4" transform="translate(3.188 3.794)" />
    <path d="M0.75 1.5C0.339999 1.5 0 1.16 0 0.75C0 0.34 0.339999 0 0.75 0C0.75 0 6.14999 0 6.14999 0C6.55999 0 6.89999 0.34 6.89999 0.75C6.89999 1.16 6.55999 1.5 6.14999 1.5C6.14999 1.5 0.75 1.5 0.75 1.5Z" fill="#ABA5FA" transform="translate(8.829 12.043)" />
  </g>
</svg>