<?xml version="1.0" encoding="utf-8"?>
<svg width="16" height="17" viewBox="0 0 16 17" fill="none" xmlns="http://www.w3.org/2000/svg">
  <g>
    <path d="M8.99263 3.30167C9.15263 3.62833 9.57933 3.94167 9.93933 4.00167C9.93933 4.00167 12.0659 4.355 12.0659 4.355C13.4259 4.58167 13.7459 5.56833 12.7659 6.54167C12.7659 6.54167 11.1126 8.19501 11.1126 8.19501C10.8326 8.47501 10.6793 9.01501 10.7659 9.40171C10.7659 9.40171 11.2393 11.4483 11.2393 11.4483C11.6126 13.0683 10.7526 13.695 9.31933 12.8483C9.31933 12.8483 7.32595 11.6683 7.32595 11.6683C6.96595 11.455 6.37262 11.455 6.00595 11.6683C6.00595 11.6683 4.01262 12.8483 4.01262 12.8483C2.58595 13.695 1.71929 13.0617 2.09262 11.4483C2.09262 11.4483 2.56595 9.40171 2.56595 9.40171C2.65262 9.01501 2.49929 8.47501 2.21929 8.19501C2.21929 8.19501 0.565953 6.54167 0.565953 6.54167C-0.407376 5.56833 -0.0940465 4.58167 1.26595 4.355C1.26595 4.355 3.39262 4.00167 3.39262 4.00167C3.74595 3.94167 4.17262 3.62833 4.33262 3.30167C4.33262 3.30167 5.50595 0.954998 5.50595 0.954998C6.14595 -0.318332 7.18595 -0.318332 7.81929 0.954998C7.81929 0.954998 8.99263 3.30167 8.99263 3.30167Z" fill="#ABA5FA" transform="translate(1.333 2.177)" />
  </g>
</svg>