<?xml version="1.0" encoding="utf-8"?>
<svg width="60" height="61" viewBox="0 0 60 61" fill="none" xmlns="http://www.w3.org/2000/svg">
  <g>
    <g transform="translate(0 0.896)">
      <path d="M0 28C0 28 0 14 0 14C0 10.134 1.36683 6.83418 4.10051 4.1005C6.83418 1.36683 10.134 4.76837e-07 14 4.76837e-07C14 4.76837e-07 46 4.76837e-07 46 4.76837e-07C49.866 4.76837e-07 53.1658 1.36683 55.8995 4.1005C58.6332 6.83418 60 10.134 60 14C60 14 60 46 60 46C60 49.866 58.6332 53.1658 55.8995 55.8995C53.1658 58.6332 49.866 60 46 60C46 60 14 60 14 60C10.134 60 6.83418 58.6332 4.10051 55.8995C1.36683 53.1658 0 49.866 0 46C0 46 0 28 0 28Z" fill="#DCD9FC" fill-rule="evenodd" />
      <path d="M0 25C0 11.1929 11.1929 0 25 0C38.8071 0 50 11.1929 50 25C50 38.8071 38.8071 50 25 50C11.1929 50 0 38.8071 0 25Z" fill="#ABA5FA" fill-rule="evenodd" transform="translate(5 5)" />
      <path d="M8.71015 0.061121C9.96995 0.0856209 14.2628 0.0917225 18.2439 0.0795212C25.4111 0.0550213 25.4844 0.0550213 25.6801 0.177322C25.8514 0.281322 25.9859 0.299622 26.6953 0.299622C28.0284 0.299622 28.7011 0.507521 29.5939 1.18632C31.826 2.88642 34.4128 4.80052 35.2751 5.38762C35.8071 5.74842 35.9233 5.80342 36.1618 5.80342C36.5348 5.80342 38.773 6.01742 39.9594 6.17032C40.4792 6.23152 41.4271 6.32932 42.0692 6.38442C43.4207 6.50052 44.7293 6.67792 45.243 6.81242C46.0747 7.03262 46.8391 7.62582 47.2183 8.34132C47.3222 8.54312 47.5852 9.30142 47.7931 10.023C47.7931 10.023 48.1723 11.3378 48.1723 11.3378C48.1723 11.3378 48.16 12.8177 48.16 12.8177C48.1478 14.4627 48.1172 14.6217 47.7564 15.0864C47.3467 15.6124 46.8575 15.8509 46.0441 15.9181C45.775 15.9426 45.1941 16.0099 44.7599 16.0771C44.3196 16.1444 43.8426 16.2117 43.6897 16.23C43.6897 16.23 43.4084 16.2667 43.4084 16.2667C43.4084 16.2667 43.3106 16.7437 43.3106 16.7437C43.0965 17.7711 42.7235 18.4499 41.9041 19.2693C41.1213 19.9741 39.9649 20.4333 39.464 20.4562C40.7426 20.4389 22.0102 20.6789 10.826 20.6789C9.45625 20.6789 7.92135 19.8197 7.94575 19.8013C7.96415 19.7769 7.81125 19.5995 7.60335 19.4039C7.08965 18.9146 6.53925 18.1686 6.23965 17.5448C6.03775 17.1167 5.98275 16.9455 5.97055 16.5908C5.97055 16.5908 5.94605 16.1566 5.94605 16.1566C5.94605 16.1566 5.29785 16.1138 5.29785 16.1138C4.41725 16.0649 1.34735 15.5512 1.0049 15.3983C0.668556 15.2454 0.430057 15.0314 0.222136 14.6706C0.0570164 14.3954 0.0570164 14.3771 0.0203261 12.8666C-0.0163636 11.6191 -0.0041337 11.2949 0.0631366 11.1176C0.130406 10.9586 0.167096 10.396 0.197676 8.88552C0.246596 6.94082 0.252707 6.86132 0.393356 6.53722C0.540126 6.20702 1.43908 4.50082 2.06896 3.35732C2.24631 3.03932 2.60711 2.37882 2.87618 1.88962C3.61002 0.532022 3.78823 0.061121 4.79115 0.061121C5.26175 0.061121 5.68645 -0.0229778 6.16625 0.00612068C6.30075 0.0122223 7.45045 0.0367222 8.71015 0.061121ZM4.93705 1.20472C4.53955 1.21692 4.48455 1.27812 4.00751 2.13422C3.27979 3.43072 2.0445 5.74222 2.0445 5.80342C2.0445 5.84012 2.27077 5.86462 2.58876 5.86462C3.10245 5.86462 3.13914 5.85842 3.18195 5.72392C3.20029 5.65052 3.42656 5.22862 3.6834 4.79442C3.93413 4.35412 4.29495 3.73642 4.47835 3.41842C5.04715 2.42772 5.31615 2.08532 5.57915 2.02412C5.70145 1.99362 7.45045 1.97522 9.45625 1.98132C13.2599 1.99362 13.2966 1.99972 13.2966 2.25042C13.2966 2.30542 13.2538 2.42772 13.1988 2.53172C13.1437 2.62962 12.838 3.22272 12.52 3.84652C11.6149 5.60772 11.2786 6.21922 11.1135 6.42102C10.9545 6.61062 10.6303 6.80022 10.3613 6.86132C10.2757 6.87972 8.23935 6.90422 5.82375 6.91642C5.82375 6.91642 1.4452 6.93472 1.4452 6.93472C1.4452 6.93472 1.4085 7.16712 1.4085 7.16712C1.38404 7.29552 1.38404 7.42402 1.40239 7.46062C1.42685 7.49122 1.85492 7.51572 2.36249 7.51572C2.36249 7.51572 3.27979 7.51572 3.27979 7.51572C3.27979 7.51572 3.4816 7.71752 3.4816 7.71752C3.65894 7.89482 3.68952 7.97432 3.72621 8.34132C3.75679 8.57972 3.75679 9.17292 3.73844 9.66832C3.73844 9.66832 3.70787 10.5733 3.70787 10.5733C3.70787 10.5733 4.34995 10.5733 4.34995 10.5733C4.34995 10.5733 4.99205 10.5733 4.99205 10.5733C4.99205 10.5733 5.51795 10.0658 5.51795 10.0658C6.27015 9.35032 6.52705 9.15462 7.12025 8.86112C7.94575 8.44522 8.81415 8.25562 10.2084 8.18842C10.8444 8.15782 11.5599 8.13332 11.7861 8.12722C11.7861 8.12722 12.202 8.12722 12.202 8.12722C12.202 8.12722 12.1592 7.52792 12.1592 7.52792C12.1592 7.52792 12.1225 6.93472 12.1225 6.93472C12.1225 6.93472 13.1621 4.88612 13.1621 4.88612C13.7369 3.76092 14.3118 2.64792 14.4402 2.40942C14.4402 2.40942 14.6726 1.98132 14.6726 1.98132C14.6726 1.98132 21.1609 1.98132 21.1609 1.98132C21.1609 1.98132 27.6431 1.98132 27.6431 1.98132C27.6431 1.98132 27.8816 2.17092 27.8816 2.17092C28.0162 2.26872 28.3036 2.47672 28.5238 2.62342C29.0313 2.96592 29.9609 3.69362 30.5357 4.20732C31.4346 5.01452 31.3123 4.94732 31.826 4.94732C31.826 4.94732 32.2908 4.94732 32.2908 4.94732C32.2908 4.94732 32.7311 5.30812 32.7311 5.30812C33.4833 5.91962 33.416 5.65052 33.416 8.13332C33.416 8.13332 33.416 10.2981 33.416 10.2981C33.416 10.2981 33.6851 9.98632 33.6851 9.98632C34.0336 9.58882 34.902 9.00172 35.5258 8.74492C35.7887 8.63482 36.2719 8.47582 36.5898 8.39632C37.6845 8.11502 39.727 8.13332 40.9135 8.43912C42.008 8.71432 43.433 9.65602 44.1118 10.555C44.3503 10.8669 44.7845 11.9004 44.9618 12.5608C45.0963 13.0745 45.2186 14.0163 45.2186 14.5483C45.2186 14.5483 45.2186 14.8541 45.2186 14.8541C45.2186 14.8541 45.8117 14.8479 45.8117 14.8479C47.0166 14.8418 47.0655 14.7746 47.1021 12.9216C47.1204 12.2061 47.1143 11.5579 47.0898 11.4723C47.0532 11.3255 47.0471 11.3194 46.1725 11.2949C45.2981 11.2705 45.292 11.2705 44.9434 11.0564C44.4786 10.7813 44.0995 10.341 43.812 9.74782C43.5553 9.22802 43.3534 8.49412 43.4145 8.31072C43.4636 8.15782 43.6163 8.12722 44.5459 8.12112C45.5305 8.11502 45.6956 8.07832 45.3714 7.92542C45.0718 7.78482 44.289 7.66862 42.5951 7.51572C41.8063 7.44232 40.8707 7.35062 40.5159 7.30162C40.1612 7.25882 39.3173 7.16102 38.6446 7.08762C35.4096 6.75132 35.4403 6.75742 34.8226 6.38442C34.6391 6.26822 34.2538 5.99302 33.9664 5.77282C33.1286 5.11852 29.386 2.30542 28.9763 2.01802C28.7684 1.87742 28.3403 1.64502 28.0284 1.50432C28.0284 1.50432 27.4536 1.24752 27.4536 1.24752C27.4536 1.24752 25.0992 1.21692 25.0992 1.21692C23.0322 1.19252 5.76875 1.18022 4.93705 1.20472ZM23.7416 3.09432C23.7293 3.12492 23.7293 3.73642 23.7416 4.45802C23.7416 4.45802 23.7599 5.77282 23.7599 5.77282C23.7599 5.77282 26.3773 5.78512 26.3773 5.78512C26.3773 5.78512 28.9946 5.79732 28.9946 5.79732C28.9946 5.79732 29.068 5.55882 29.068 5.55882C29.1475 5.27752 29.3921 4.97172 29.5756 4.91672C29.6857 4.88002 29.6734 4.84942 29.4044 4.60482C29.2392 4.45192 28.7194 4.04222 28.2547 3.69362C28.2547 3.69362 27.4046 3.05152 27.4046 3.05152C27.4046 3.05152 25.5823 3.05152 25.5823 3.05152C24.5794 3.05152 23.7538 3.06992 23.7416 3.09432ZM16.5989 3.42452C16.5989 3.61412 16.6172 4.22562 16.6417 4.78832C16.6417 4.78832 16.6784 5.80952 16.6784 5.80952C16.6784 5.80952 18.886 5.77282 18.886 5.77282C18.886 5.77282 22.0538 5.82642 22.0538 5.82642C22.0538 5.82642 22.0538 4.64082 22.0538 4.64082C22.0721 4.12722 22.0293 3.84732 22.0538 3.63932C22.0538 3.63932 22.0538 3.13862 22.0538 3.13862C22.0538 3.13862 20.8674 3.10042 20.8674 3.10042C20.6533 3.08822 19.6076 3.08212 18.5436 3.08212C18.5436 3.08212 16.5989 3.08212 16.5989 3.08212C16.5989 3.08212 16.5989 3.42452 16.5989 3.42452ZM15.0211 3.73642C14.7643 4.22562 13.9082 5.82792 13.9082 5.83402C13.9082 5.83402 14.2628 5.82792 14.7031 5.81562C14.7031 5.81562 15.4981 5.79732 15.4981 5.79732C15.4981 5.79732 15.4981 4.46412 15.4981 4.46412C15.4981 3.30832 15.4798 3.05152 15.4003 3.05152C15.3942 3.05152 15.2229 3.36342 15.0211 3.73642ZM5.87265 3.34502C5.51795 3.78532 4.42945 5.64442 4.49675 5.70562C4.51505 5.72392 5.80545 5.74222 7.36485 5.74222C10.0372 5.74842 10.2084 5.74222 10.2879 5.63832C10.3735 5.52212 10.5998 5.13682 11.1379 4.18282C11.6577 3.26552 11.7066 3.17382 11.7066 3.11272C11.7066 3.07602 10.6732 3.05152 8.90585 3.05152C8.90585 3.05152 6.11115 3.05152 6.11115 3.05152C6.11115 3.05152 5.87265 3.34502 5.87265 3.34502ZM30.1015 6.02972C30.0893 6.06022 30.0893 6.30492 30.1015 6.58002C30.1015 6.58002 30.126 7.08762 30.126 7.08762C30.126 7.08762 31.1411 7.08762 31.1411 7.08762C31.7037 7.08762 32.1991 7.06322 32.248 7.03262C32.3214 6.98372 32.3091 6.89802 32.1562 6.51282C32.0645 6.26202 31.9422 6.04192 31.8872 6.02352C31.7159 5.98072 30.1198 5.98692 30.1015 6.02972ZM23.0811 7.69912C23.0811 8.15172 23.0689 9.74172 23.0505 11.2277C23.0505 11.2277 23.02 13.9368 23.02 13.9368C23.02 13.9368 26.3222 13.949 26.3222 13.949C28.1385 13.9612 30.1932 13.9673 30.8904 13.9673C30.8904 13.9673 32.1562 13.9673 32.1562 13.9673C32.1562 13.9673 32.2541 13.4475 32.2541 13.4475C32.3091 13.1601 32.4498 12.6403 32.5599 12.2917C32.7617 11.6619 32.7617 11.6496 32.6577 11.4662C32.5171 11.2277 32.4437 10.4633 32.4375 9.19132C32.4375 9.19132 32.4253 8.20062 32.4253 8.20062C32.4253 8.20062 32.1501 8.16392 32.1501 8.16392C31.9972 8.14562 31.453 8.12722 30.9454 8.12722C29.9242 8.12722 29.7101 8.09052 29.4227 7.84592C29.1292 7.60132 29.013 7.39342 29.013 7.10602C29.013 7.10602 29.013 6.84302 29.013 6.84302C29.013 6.84302 26.047 6.86132 26.047 6.86132C26.047 6.86132 23.0811 6.87362 23.0811 6.87362C23.0811 6.87362 23.0811 7.69912 23.0811 7.69912ZM13.0398 7.06932C12.9114 7.20382 12.8196 7.58912 12.8135 8.03552C12.8074 8.20062 12.838 8.23122 13.1009 8.32902C13.8959 8.60422 14.5747 8.98342 15.0762 9.41142C16.391 10.5366 17.0086 11.6252 17.2655 13.2641C17.2655 13.2641 17.3633 13.9062 17.3633 13.9062C17.3633 13.9062 19.6504 13.9062 19.6504 13.9062C19.6504 13.9062 21.9437 13.9062 21.9437 13.9062C21.9437 13.9062 21.9926 13.7227 21.9926 13.7227C22.0232 13.6188 22.0415 12.9767 22.0293 12.2856C22.0171 11.5946 22.0171 10.0841 22.0293 8.92832C22.0293 8.92832 22.0538 6.87362 22.0538 6.87362C22.0538 6.87362 21.7235 6.86752 21.7235 6.86752C21.5112 6.87362 19.5465 6.91032 17.2838 6.91642C17.2838 6.91642 13.1743 6.92862 13.1743 6.92862C13.1743 6.92862 13.0398 7.06932 13.0398 7.06932ZM1.30455 9.20962C1.29843 9.85782 1.30455 10.0352 1.35347 10.0841C1.3657 10.1025 1.67146 10.1269 2.02004 10.133C2.02004 10.133 2.65603 10.1575 2.65603 10.1575C2.65603 10.1575 2.65603 9.38702 2.65603 9.38702L2.65603 8.61642L1.98334 8.61642C1.98334 8.61642 1.31066 8.61642 1.31066 8.61642C1.31066 8.61642 1.30455 9.20962 1.30455 9.20962ZM9.10765 9.27082C7.70725 9.47872 6.30075 10.3287 5.83595 11.246C5.83595 11.246 5.70145 11.5212 5.70145 11.5212C5.70145 11.5212 5.84215 11.3989 5.84215 11.3989C5.92165 11.3255 6.12955 11.1482 6.30075 10.9892C6.72885 10.6039 7.04075 10.4143 7.62775 10.2003C8.70405 9.79672 9.53575 9.65602 10.826 9.65602C12.5995 9.65602 13.8653 10.0841 15.2535 11.1543C15.8345 11.6068 15.81 11.4845 15.174 10.7385C14.8927 10.4082 14.1711 9.88232 13.6024 9.59492C12.7524 9.16072 10.771 9.02012 9.10765 9.27082ZM37.0546 9.28912C35.7643 9.55212 34.4862 10.3165 33.8991 11.1665C33.8013 11.3072 33.7218 11.4356 33.7218 11.4601C33.7218 11.5212 34.0948 11.246 34.4311 10.9341C34.9509 10.451 36.0089 9.99242 37.0363 9.79672C37.4399 9.72332 37.923 9.69272 38.7057 9.69272C39.9594 9.69272 40.467 9.77222 41.3904 10.1269C41.9163 10.3287 42.2159 10.5244 43.5002 11.5151C43.5735 11.5701 43.5735 11.5579 43.5063 11.4295C43.0537 10.555 42.008 9.73552 40.9684 9.44202C40.1979 9.22802 39.831 9.18522 38.6691 9.17292C37.8679 9.16682 37.5194 9.19132 37.0546 9.28912ZM44.6682 9.27692C44.6682 9.36252 44.9984 9.79062 45.243 10.023C45.4693 10.237 45.4693 10.237 46.1175 10.2553C46.729 10.2798 46.7596 10.2737 46.7229 10.1636C46.6985 10.1025 46.6312 9.87012 46.5762 9.64382C46.5762 9.64382 46.4722 9.22802 46.4722 9.22802C46.4722 9.22802 45.5671 9.22802 45.5671 9.22802C45.0718 9.22802 44.6682 9.25242 44.6682 9.27692ZM37.819 10.6039C37.1158 10.7079 36.2535 10.9525 35.8377 11.1665C35.2751 11.4539 34.4801 12.0288 34.1743 12.3712C33.5811 13.0378 33.2325 13.8878 33.2325 14.6828C33.2325 14.6828 33.2325 15.0987 33.2325 15.0987C33.2325 15.0987 33.5383 15.0987 33.5383 15.0987C33.8013 15.0987 33.8441 15.0803 33.8685 14.958C34.0581 14.0468 34.1865 13.7227 34.584 13.1295C35.4035 11.9187 36.7122 11.1543 38.1003 11.0809C38.8281 11.0381 39.7392 11.1359 40.2223 11.3011C41.0907 11.6007 41.8796 12.145 42.4177 12.8238C42.9681 13.5148 43.1883 14.0285 43.3534 14.9886C43.3534 14.9886 43.3901 15.221 43.3901 15.221C43.3901 15.221 43.7692 15.1782 43.7692 15.1782C43.9771 15.1598 44.1606 15.1292 44.1728 15.117C44.2401 15.062 44.0566 13.686 43.9588 13.4965C43.9038 13.3864 43.543 12.9583 43.1577 12.5486C42.2037 11.5273 41.5799 11.1298 40.4608 10.8118C39.3784 10.5061 38.7608 10.4571 37.819 10.6039ZM9.99445 10.5733C7.81125 10.8241 5.78095 12.2306 5.38345 13.7655C5.34065 13.9429 5.27955 14.3159 5.25505 14.5911C5.25505 14.5911 5.21225 15.0987 5.21225 15.0987C5.21225 15.0987 5.45685 15.0987 5.45685 15.0987C5.59135 15.0987 5.74425 15.1109 5.79315 15.1292C5.85435 15.1598 5.89715 15.0497 5.97055 14.6767C6.19065 13.576 6.89395 12.5486 7.87235 11.8942C8.90585 11.2093 9.71925 11.0136 11.1073 11.1115C12.2264 11.191 12.7707 11.3561 13.4862 11.8331C14.6175 12.5853 15.1924 13.3803 15.5104 14.6339C15.5104 14.6339 15.651 15.1721 15.651 15.1721C15.651 15.1721 15.969 15.1476 15.969 15.1476C16.1464 15.1292 16.3115 15.0987 16.3359 15.0803C16.3604 15.0559 16.342 14.7807 16.2992 14.4688C16.1708 13.4536 15.755 12.781 14.7337 11.9309C13.3639 10.7874 11.8656 10.3593 9.99445 10.5733ZM1.1272 14.1875C1.1272 14.1875 1.2862 14.3343 1.2862 14.3343C1.55527 14.585 2.13011 14.7317 3.09633 14.7929C3.57332 14.8235 4.00751 14.8541 4.04421 14.8541C4.09925 14.8541 4.12375 14.7379 4.12375 14.4688C4.12375 14.004 4.24605 13.2396 4.44785 12.4691C4.52735 12.1511 4.61295 11.7903 4.63125 11.6741C4.63125 11.6741 4.66185 11.4601 4.66185 11.4601C4.66185 11.4601 2.89453 11.4478 2.89453 11.4478C2.89453 11.4478 1.1272 11.4417 1.1272 11.4417C1.1272 11.4417 1.1272 12.8115 1.1272 12.8115C1.1272 12.8115 1.1272 14.1875 1.1272 14.1875ZM37.391 12.2917C36.6327 12.5792 35.7765 13.2641 35.3974 13.8878C34.8042 14.8602 34.7002 15.912 35.0733 17.0556C35.3423 17.8873 36.174 18.829 36.9629 19.2143C37.8435 19.6423 38.5345 19.7218 39.464 19.5017C40.1428 19.3366 40.6198 19.0736 41.1213 18.5844C42.3505 17.3858 42.6868 15.5206 41.9469 14.0163C41.7817 13.6799 41.6228 13.4781 41.2436 13.1234C40.4119 12.3529 39.6781 12.0838 38.4917 12.1266C37.9352 12.1389 37.709 12.1755 37.391 12.2917ZM9.47465 12.2856C8.96095 12.4813 8.17205 13.0195 7.79285 13.4231C7.16915 14.1141 6.90615 14.8846 6.94895 15.9548C6.99175 16.8721 7.24255 17.5203 7.81735 18.2052C8.80805 19.3733 10.1472 19.8442 11.5476 19.5078C12.8808 19.1898 13.8837 18.2725 14.3607 16.9394C14.538 16.4563 14.5503 16.3523 14.5441 15.649C14.538 14.7623 14.4218 14.3281 14.0305 13.7594C13.4679 12.9338 12.7034 12.4263 11.6761 12.1878C11.1073 12.0594 9.93935 12.1083 9.47465 12.2856ZM17.7853 15.4778C17.8097 15.753 17.8464 16.0037 17.8709 16.0282C17.8953 16.0465 18.8921 16.0404 20.0846 16.0099C21.3138 15.9732 24.2186 15.967 26.787 15.9854C26.787 15.9854 31.3246 16.0282 31.3246 16.0282C31.3246 16.0282 31.3918 15.6368 31.3918 15.6368C31.4897 15.0497 31.4836 14.8907 31.349 14.9458C31.294 14.9702 28.2058 14.9825 24.4938 14.9764C24.4938 14.9764 17.7425 14.9702 17.7425 14.9702C17.7425 14.9702 17.7853 15.4778 17.7853 15.4778ZM32.407 16.4746C32.3458 16.6397 32.2052 16.8721 32.089 16.9822C32.089 16.9822 31.8872 17.1901 31.8872 17.1901C31.8872 17.1901 29.6429 17.1351 29.6429 17.1351C26.7625 17.0739 19.5037 17.0739 18.4518 17.1351C18.4518 17.1351 17.6446 17.184 17.6446 17.184C17.6446 17.184 17.3388 16.9027 17.3388 16.9027C17.1676 16.7437 16.9842 16.5113 16.923 16.389C16.923 16.389 16.819 16.1688 16.819 16.1688C16.819 16.1688 16.2626 16.1811 16.2626 16.1811C15.9629 16.1872 15.6938 16.1994 15.6694 16.1994C15.651 16.1994 15.6021 16.389 15.5593 16.6153C15.4186 17.4592 14.697 18.7495 14.0733 19.2815C13.8959 19.4283 13.425 19.9716 12.8135 20.2844C12.202 20.5973 10.826 20.6789 10.826 20.6789C15.5593 20.6683 36.4165 20.4976 39.464 20.4562C36.4178 20.4976 35.7276 19.6118 35.538 19.4405C34.7553 18.7251 33.9419 17.3124 33.8624 16.5235C33.8624 16.5235 33.8257 16.1994 33.8257 16.1994C33.8257 16.1994 33.3915 16.1933 33.3915 16.1933C33.153 16.1872 32.8717 16.1627 32.7739 16.1444C32.5537 16.0894 32.5476 16.0955 32.407 16.4746Z" fill="#443DA8" transform="translate(5.914 19.5)" />
      <path d="M2.62222 0.0979004C2.87912 0.256901 2.94022 0.366899 2.92192 0.6544C2.89132 1.0457 2.73232 1.1069 1.53982 1.1619C0.445219 1.2108 0.170017 1.1497 0.0599194 0.856201C-0.0378799 0.6054 -0.0134811 0.2997 0.115019 0.146801C0.231216 0 0.249517 0 1.35032 0C2.25532 0 2.49382 0.0184002 2.62222 0.0979004Z" fill="#443DA8" transform="translate(29.852 27.169)" />
      <path d="M1.81703 0.0415382C2.78323 0.0843391 2.91173 0.139439 2.91173 0.543039C2.91173 0.720339 2.87503 0.805939 2.72823 0.928339C2.49583 1.12394 2.21453 1.16064 1.24833 1.13014C0.38603 1.09954 0.23933 1.04444 0.0619316 0.714239C-0.0481682 0.488039 -0.0114689 0.286139 0.172031 0.108839C0.31883 -0.0256615 0.227032 -0.0195618 1.81703 0.0415382Z" fill="#443DA8" transform="translate(20.029 27.152)" />
      <path d="M3.89856 1.94928C3.89856 0.872723 3.02584 0 1.94928 0C0.872723 0 0 0.872723 0 1.94928C0 3.02584 0.872723 3.89856 1.94928 3.89856C3.02584 3.89856 3.89856 3.02584 3.89856 1.94928Z" fill="none" stroke-width="1" stroke="#443DA8" transform="translate(42.508 33.407)" />
      <path d="M0.259817 0.0489006C0.149817 0.122303 0.0397167 0.373001 0.076416 0.464802C0.094717 0.519802 0.0825176 0.5382 0.0519161 0.519802C-0.0886841 0.4342 0.0825176 0 0.253717 0C0.302616 0 0.308817 0.0122032 0.259817 0.0489006Z" fill="#443DA8" transform="translate(21.788 46.157)" />
      <path d="M3.89856 1.94928C3.89856 0.872723 3.02584 0 1.94928 0C0.872722 0 0 0.872723 0 1.94928C0 3.02584 0.872722 3.89856 1.94928 3.89856C3.02584 3.89856 3.89856 3.02584 3.89856 1.94928Z" fill="none" stroke-width="1" stroke="#443DA8" transform="translate(14.543 33.407)" />
    </g>
  </g>
</svg>