<?xml version="1.0" encoding="utf-8"?>
<svg width="18" height="18" viewBox="0 0 18 18" fill="none" xmlns="http://www.w3.org/2000/svg">
  <defs>
    <mask id="mask_1" x="-2.813" y="-2.806" width="3.375" height="1.125">
      <path d="M2.8125 1.125C3.12 1.125 3.375 0.87 3.375 0.5625C3.375 0.255 3.12 0 2.8125 0C2.8125 0 0.5625 0 0.5625 0C0.255 0 0 0.255 0 0.5625C0 0.87 0.255 1.125 0.5625 1.125C0.5625 1.125 2.8125 1.125 2.8125 1.125Z" fill="#FFFFFF" transform="translate(1.125 1.125)" />
    </mask>
  </defs>
  <g>
    <path d="M4.5 4.81506C4.5 6.00006 3.75 6.75006 2.565 6.75006C2.565 6.75006 0 6.75006 0 6.75006C0 6.75006 0 1.50756 0 1.50756C0 0.675061 0.6825 -0.00743866 1.515 6.12736e-05C2.3325 0.00756133 3.0825 0.337561 3.6225 0.877561C4.1625 1.42506 4.5 2.17506 4.5 3.00006C4.5 3.00006 4.5 4.81506 4.5 4.81506Z" fill="#ABA5FA" transform="translate(12 1.5)" />
    <path d="M0 3.75C0 3.75 0 14.25 0 14.25C0 14.8725 0.705 15.225 1.2 14.85C1.2 14.85 2.4825 13.89 2.4825 13.89C2.7825 13.665 3.2025 13.695 3.4725 13.965C3.4725 13.965 4.7175 15.2175 4.7175 15.2175C5.01 15.51 5.49 15.51 5.7825 15.2175C5.7825 15.2175 7.0425 13.9575 7.0425 13.9575C7.305 13.695 7.725 13.665 8.0175 13.89C8.0175 13.89 9.3 14.85 9.3 14.85C9.795 15.2175 10.5 14.865 10.5 14.25C10.5 14.25 10.5 1.5 10.5 1.5C10.5 0.675 11.175 0 12 0C12 0 3.75 0 3.75 0C3.75 0 3 0 3 0C0.75 0 0 1.3425 0 3C0 3 0 3.75 0 3.75Z" fill="#ABA5FA" fill-opacity="0.4" transform="translate(1.5 1.5)" />
    <path d="M2.3625 0C2.38963 0 2.41778 0.0110502 2.44086 0.0341301C2.46394 0.05721 2.475 0.0853605 2.475 0.1125C2.475 0.13963 2.46394 0.167781 2.44086 0.190861C2.41778 0.213941 2.38963 0.225 2.3625 0.225C2.3625 0.225 0.1125 0.225 0.1125 0.225C0.0853701 0.225 0.05722 0.213941 0.0341401 0.190861C0.0110602 0.167781 0 0.13963 0 0.1125C0 0.0853605 0.0110602 0.05721 0.0341401 0.0341301C0.05722 0.0110502 0.0853701 0 0.1125 0C0.1125 0 2.3625 0 2.3625 0Z" fill="#ABA5FA" stroke-width="0.9" stroke="#ABA5FA" transform="translate(6.638 9.644)" />
    <path d="M2.8125 1.125C3.12 1.125 3.375 0.87 3.375 0.5625C3.375 0.255 3.12 0 2.8125 0C2.8125 0 0.5625 0 0.5625 0C0.255 0 0 0.255 0 0.5625C0 0.87 0.255 1.125 0.5625 1.125C0.5625 1.125 2.8125 1.125 2.8125 1.125Z" fill="#ABA5FA" transform="translate(6.188 6.194)" />
    <g transform="translate(5.063 5.069)" mask="url(#mask_1)">
      <path d="M1.6875 3.375C1.6875 3.375 3.9375 3.375 3.9375 3.375L3.9375 1.125L1.6875 1.125C1.6875 1.125 1.6875 3.375 1.6875 3.375ZM3.9375 3.375C4.86632 3.375 5.625 2.61632 5.625 1.6875C5.625 1.6875 3.375 1.6875 3.375 1.6875C3.375 1.37368 3.62368 1.125 3.9375 1.125C3.9375 1.125 3.9375 3.375 3.9375 3.375ZM5.625 1.6875C5.625 0.75868 4.86632 0 3.9375 0C3.9375 0 3.9375 2.25 3.9375 2.25C3.62368 2.25 3.375 2.00132 3.375 1.6875C3.375 1.6875 5.625 1.6875 5.625 1.6875ZM3.9375 0C3.9375 0 1.6875 0 1.6875 0L1.6875 2.25L3.9375 2.25C3.9375 2.25 3.9375 0 3.9375 0ZM1.6875 0C0.75868 0 0 0.75868 0 1.6875C0 1.6875 2.25 1.6875 2.25 1.6875C2.25 2.00132 2.00132 2.25 1.6875 2.25C1.6875 2.25 1.6875 0 1.6875 0ZM0 1.6875C0 2.61632 0.75868 3.375 1.6875 3.375C1.6875 3.375 1.6875 1.125 1.6875 1.125C2.00132 1.125 2.25 1.37368 2.25 1.6875C2.25 1.6875 0 1.6875 0 1.6875Z" fill="#ABA5FA" />
    </g>
    <path d="M0 0.1875C0 0.0819798 0.08182 0 0.1875 0C0.28934 0 0.375 0.08566 0.375 0.1875C0.375 0.28934 0.28934 0.375 0.1875 0.375C0.08566 0.375 0 0.28934 0 0.1875Z" fill="#ABA5FA" stroke-width="1.125" stroke="#ABA5FA" transform="translate(4.29 6.569)" />
    <path d="M0 0.1875C0 0.0819807 0.08182 0 0.1875 0C0.28934 0 0.375 0.08566 0.375 0.1875C0.375 0.28934 0.28934 0.375 0.1875 0.375C0.08566 0.375 0 0.28934 0 0.1875Z" fill="#ABA5FA" stroke-width="1.125" stroke="#ABA5FA" transform="translate(4.29 9.569)" />
  </g>
</svg>