<?xml version="1.0" encoding="utf-8"?>
<svg width="24" height="25" viewBox="0 0 24 25" fill="none" xmlns="http://www.w3.org/2000/svg">
  <g>
    <path d="M20 14.19C20 17 18.71 18.93 16.44 19.66C15.78 19.89 15.02 20 14.19 20C14.19 20 5.81 20 5.81 20C4.98 20 4.22 19.89 3.56 19.66C1.29 18.93 0 17 0 14.19C0 14.19 0 5.80999 0 5.80999C0 2.16999 2.17 0 5.81 0C5.81 0 14.19 0 14.19 0C17.83 0 20 2.16999 20 5.80999C20 5.80999 20 14.19 20 14.19Z" fill="#443DA8" fill-opacity="0.4" transform="translate(2 2.013)" />
    <path d="M12.88 4.69C12.22 4.92 11.46 5.03 10.63 5.03C10.63 5.03 2.25 5.03 2.25 5.03C1.42 5.03 0.66 4.92 0 4.69C0.35 2.05 3.11 0 6.44004 0C9.77004 0 12.53 2.05 12.88 4.69Z" fill="#443DA8" transform="translate(5.56 16.983)" />
    <path d="M7.15998 3.58C7.15998 5.56 5.55998 7.17 3.57998 7.17C1.59998 7.17 0 5.56 0 3.58C0 1.60001 1.59998 0 3.57998 0C5.55998 0 7.15998 1.60001 7.15998 3.58Z" fill="#443DA8" transform="translate(8.42 8.013)" />
  </g>
</svg>