<?xml version="1.0" encoding="utf-8"?>
<svg width="20" height="21" viewBox="0 0 20 21" fill="none" xmlns="http://www.w3.org/2000/svg">
  <g>
    <g transform="translate(0 0.896)">
      <g transform="translate(1.667 1.667)">
        <path d="M10.2333 3.875C9.5 4.0917 8.6333 4.1917 7.6167 4.1917C7.6167 4.1917 2.61667 4.1917 2.61667 4.1917C1.6 4.1917 0.73333 4.0917 0 3.875C0.18333 1.7084 2.40833 0 5.11667 0C7.825 0 10.05 1.7084 10.2333 3.875Z" fill="none" stroke-width="1.5" stroke="#ABA5FA" stroke-linecap="round" stroke-linejoin="round" transform="translate(3.217 12.475)" />
        <path d="M5.83333 0C1.66666 0 0 1.66667 0 5.83333C0 5.83333 0 10.8333 0 10.8333C0 13.9833 0.95 15.7083 3.21667 16.35C3.4 14.1833 5.625 12.475 8.33335 12.475C11.0416 12.475 13.2667 14.1833 13.45 16.35C15.7167 15.7083 16.6667 13.9833 16.6667 10.8333C16.6667 10.8333 16.6667 5.83333 16.6667 5.83333C16.6667 1.66667 15 0 10.8334 0C10.8334 0 5.83333 0 5.83333 0ZM8.33335 10.1417C6.68333 10.1417 5.35 8.8 5.35 7.15001C5.35 5.50001 6.68333 4.16667 8.33335 4.16667C9.98335 4.16667 11.3167 5.50001 11.3167 7.15001C11.3167 8.8 9.98335 10.1417 8.33335 10.1417Z" fill="none" stroke-width="1.5" stroke="#ABA5FA" stroke-linecap="round" stroke-linejoin="round" />
        <path d="M5.9667 2.98334C5.9667 4.63338 4.6333 5.97498 2.98334 5.97498C1.33334 5.97498 0 4.63338 0 2.98334C0 1.33334 1.33334 0 2.98334 0C4.6333 0 5.9667 1.33334 5.9667 2.98334Z" fill="none" stroke-width="1.5" stroke="#ABA5FA" stroke-linecap="round" stroke-linejoin="round" transform="translate(5.35 4.166)" />
      </g>
    </g>
  </g>
</svg>