<?xml version="1.0" encoding="utf-8"?>
<svg width="86" height="87" viewBox="0 0 86 87" fill="none" xmlns="http://www.w3.org/2000/svg">
  <defs>
    <clipPath id="clip_path_1">
      <rect width="86" height="87" />
    </clipPath>
  </defs>
  <g clip-path="url(#clip_path_1)">
    <path d="M0 28L0 14C0 10.134 1.36683 6.83418 4.1005 4.1005C6.83418 1.36683 10.134 0 14 0L71.9395 0C75.8055 0 79.1053 1.36683 81.839 4.1005C84.5727 6.83418 85.9395 10.134 85.9395 14L85.9395 71.9395C85.9395 75.8055 84.5727 79.1053 81.839 81.839C79.1053 84.5727 75.8055 85.9395 71.9395 85.9395L14 85.9395C10.134 85.9395 6.83418 84.5727 4.1005 81.839C1.36683 79.1053 0 75.8055 0 71.9395L0 28Z" fill="#DCD9FC" fill-rule="evenodd" transform="translate(-0.001 0.879)" />
    <path d="M0 32.7099C0 14.6447 14.6447 0 32.7099 0C50.7751 0 65.4198 14.6447 65.4198 32.7099C65.4198 50.7751 50.7751 65.4198 32.7099 65.4198C14.6447 65.4198 0 50.7751 0 32.7099Z" fill="#ABA5FA" fill-rule="evenodd" transform="translate(10.259 11.139)" />
    <path d="M8.47783 0.124901C5.84993 0.1784 5.58183 0.214001 4.59853 0.6777C3.20413 1.3197 1.88122 2.3184 1.25552 3.1744C1.25552 3.1744 0.811578 3.5518 0.737088 3.8877C0.330348 5.7222 0.0650382 7.9908 0.0650382 11.4693C0.0650382 14.9479 0.292448 17.708 1.09463 19.3494C1.68457 20.0522 1.77396 20.7047 1.07675 21.6856C0.754968 22.1314 0.0650382 23.0588 0.0650382 27.107C0.0650382 27.107 -0.309042 29.8276 0.737088 30.9233C1.09462 31.2978 1.47005 31.8112 1.47005 31.8112C2.54267 32.6137 2.7572 32.2608 4.56283 32.2965C4.56283 32.2965 6.33263 32.3322 6.33263 32.3322C6.33263 32.3322 6.85103 33.2952 6.85103 33.2952C7.13713 33.8124 7.63763 34.5257 7.97733 34.8645C8.31693 35.2212 8.16023 35.2799 8.60303 35.6314C15.7365 41.3005 34.6489 37.7322 52.8573 35.6943C58.4528 39.5895 63.1281 35.8613 63.1281 35.6135C63.1281 35.56 63.3605 35.2569 63.6466 34.9537C63.9326 34.6684 64.451 33.955 64.7728 33.3665C64.7728 33.3665 65.3628 32.3322 65.3628 32.3322C65.3628 32.3322 66.8108 32.2787 66.8108 32.2787C68.5985 32.2073 69.832 31.7258 70.7438 30.7272C71.9058 29.4253 71.9594 29.2113 71.9058 24.4319C71.87 20.1876 71.8521 20.1519 71.3516 18.8679C70.7259 17.2985 70.1538 16.3712 68.9739 14.9802C66.9359 12.5905 63.2711 8.8455 61.251 7.0799C55.0477 1.7121 54.7974 1.5159 52.7952 0.5707C52.7952 0.5707 51.5974 0 51.5974 0L45.9125 0.0179005C45.9125 0.0179005 40.2276 0.0535011 40.2276 0.0535011C15.1043 0 24.0789 0 11.2845 0.0535011C11.2845 0.0535011 8.47783 0.124901 8.47783 0.124901ZM51.6868 2.1579C52.1337 2.3184 52.7773 2.6216 53.1169 2.8356C54.3862 3.5846 61.3762 9.8085 64.1114 12.6083C65.9885 14.5343 68.3125 17.1024 68.3125 17.245C68.3125 17.2985 67.9907 17.3877 67.6153 17.459C66.5784 17.6195 65.8633 18.315 65.5237 19.4386C65.1661 20.6691 65.3985 21.5964 66.3102 22.5951C67.0611 23.4333 67.6868 23.7364 68.9739 23.9148C69.7248 24.0039 69.9035 24.0931 69.9572 24.4141C70.1002 25.1631 69.9572 25.2344 68.3125 25.2344C68.3125 25.2344 66.7393 25.2344 66.7393 25.2344C66.7393 25.2344 66.5248 24.6994 66.5248 24.6994C66.1315 23.7543 63.8968 21.8282 62.1628 20.9544C62.1628 20.9544 60.5717 20.1519 60.5717 20.1519C60.5717 20.1519 58.3192 20.1519 58.3192 20.1519C55.7806 20.1519 54.9404 20.3481 53.0812 21.4359C51.8119 22.1671 50.2566 23.5759 49.6667 24.5211C49.47 24.8599 49.2019 25.1988 49.1125 25.2701C49.0052 25.3414 47.3784 25.4128 45.4834 25.4128C45.4834 25.4128 42.0689 25.4128 42.0689 25.4128C42.0689 25.4128 41.9795 20.7226 41.9795 20.7226C41.908 15.9789 41.8365 15.3547 41.3896 15.1763C40.8175 14.9623 40.7102 15.8005 40.6387 20.6512C40.6387 20.6512 40.5672 25.4128 40.5672 25.4128L31.575 25.3771L22.565 25.3236C22.565 25.3236 22.4577 20.8117 22.4577 20.8117C22.4041 18.3329 22.279 16.1215 22.1896 15.8719C21.975 15.3368 21.5639 15.3012 21.2957 15.8005C21.0454 16.2464 21.1348 23.1658 21.3851 23.7186C21.5102 23.9683 21.3315 23.8969 20.7773 23.4511C17.8991 21.1149 16.9337 20.6334 14.6097 20.4194C12.3393 20.2054 10.8376 20.4551 9.10353 21.3289C7.01193 22.3811 5.33153 23.7721 5.09913 24.6994C4.92033 25.3414 4.74153 25.4128 3.02533 25.4128C1.48793 25.4128 1.45217 25.4128 1.45217 24.9848C1.45217 24.7529 1.80971 24.0753 2.25664 23.4868C3.16833 22.2741 3.49013 21.0436 3.29353 19.5456C3.15053 18.4934 2.90022 17.994 2.02424 17.1024C2.02424 17.1024 1.68457 15.8719 1.68457 15.8719C1.68457 15.8719 1.47005 11.9307 1.47005 11.9307C1.61307 7.1334 1.77396 6.1883 2.77508 4.4762C3.84773 2.6572 5.29573 2.033 8.87113 1.8904C10.2477 1.8369 20.2588 1.8012 31.1281 1.819C49.0767 1.8547 50.9538 1.8904 51.6868 2.1579ZM69.4566 19.4386C69.5996 19.5991 69.7784 20.0092 69.832 20.3837C69.9035 20.7404 69.9929 21.2576 70.0287 21.5429C70.1002 21.8817 70.0466 22.0601 69.832 22.1314C69.4566 22.2919 67.7047 21.7569 67.4186 21.4002C67.1683 21.0971 66.9717 19.8309 67.1147 19.4386C67.2756 19.0641 69.0633 19.0641 69.4566 19.4386ZM61.841 22.4524C64.1292 23.6651 65.8454 26.0548 66.4175 28.8725C66.5784 29.6393 66.7035 30.2992 66.7035 30.3527C66.7035 30.3883 66.489 30.4062 66.2209 30.3705C65.7739 30.317 65.7203 30.2278 65.5773 29.3361C65.2913 27.1961 63.5572 24.7529 61.698 23.8078C58.8197 22.3632 55.5482 22.8091 53.1169 25.0026C51.6868 26.3045 51.079 27.5171 50.7035 29.9068C50.6142 30.5132 50.5427 30.5845 50.06 30.5845C49.5058 30.5845 49.5058 30.5845 49.6309 29.8177C50.0242 27.3566 50.7929 25.5198 52.0443 24.1109C53.5818 22.3811 55.6197 21.6321 58.6589 21.7212C60.4466 21.7747 60.5896 21.7926 61.841 22.4524ZM16.1292 22.2206C17.8991 22.7913 18.7214 23.3619 19.8655 24.8064C21.0633 26.3045 21.2421 26.786 21.403 29.0508C21.5102 30.3705 21.4924 30.6202 21.2778 30.5488C21.1348 30.4953 20.9739 30.0852 20.9024 29.5858C20.5091 26.8573 18.9181 24.7529 16.3438 23.5938C15.6287 23.2549 15.1639 23.1836 13.5192 23.1836C11.6063 23.1836 11.5169 23.2014 10.3013 23.8256C9.01423 24.5033 7.51253 25.8229 7.10133 26.6433C6.95833 26.893 6.67233 27.8916 6.45773 28.8368C6.06443 30.5488 5.92143 30.745 5.40303 30.424C5.17063 30.2813 5.17063 30.0317 5.43873 28.5336C5.79633 26.5363 6.18963 25.6803 7.29803 24.5033C8.97843 22.7021 10.9091 21.8639 13.4477 21.8639C14.5382 21.8461 15.3069 21.9531 16.1292 22.2206ZM15.7359 25.3593C16.9516 25.9478 17.8812 26.8573 18.489 28.0878C18.9359 28.9795 18.737 28.2368 19.0052 29.782C19.0052 31.333 18.737 32.4951 18.489 32.9867C18.3136 33.2781 16.9638 33.1842 16.787 32.7652C17.0076 32.0436 17.5952 30.1208 17.47 29.782C16.7907 27.9808 16.1471 27.1783 14.8778 26.6076C14.0019 26.2153 12.9471 26.2866 11.7315 26.8216C10.8019 27.2318 10.4086 27.6955 9.99743 28.8368C9.67563 29.7285 9.73373 31.5222 9.99743 32.3322C11.6235 34.5853 15.5035 34.3813 16.787 32.7652C16.9677 33.1934 18.3187 33.2695 18.489 32.9867C15.855 37.3605 9.99743 35.667 8.60303 32.3322C8.26523 31.0303 8.13263 30.1199 8.30973 28.7476C8.42603 27.8463 8.54933 27.9451 9.04993 27.107C9.85443 25.7338 12.2499 24.6103 13.9661 24.7886C14.413 24.8421 15.1996 25.0918 15.7359 25.3593ZM60.4466 25.2523C62.1806 26.0548 63.3605 27.642 63.5393 29.4253C63.5929 29.9068 63.6179 29.887 63.6179 30.0206C63.662 30.4409 63.6179 30.9282 63.5393 31.1861C63.4063 31.6227 63.3462 32.1894 62.6991 33.1882C62.3952 33.7945 60.6253 35.132 59.6957 35.4887C57.4611 36.3269 54.2075 34.8645 52.9918 32.4748C52.6164 31.7258 52.5628 31.4048 52.6164 30.317C52.6879 28.8368 53.4387 27.1248 54.422 26.1618C55.9415 24.6994 58.4264 24.3249 60.4466 25.2523ZM3.97283 27.1426C4.06223 27.2318 4.08013 27.9986 4.00863 28.8546C3.90133 30.3883 3.90133 30.4062 3.41863 30.4062C2.90022 30.4062 2.27452 29.8355 1.64882 28.8011C1.14826 27.963 1.14826 27.2318 1.68457 27.0178C2.11362 26.8216 3.75833 26.9286 3.97283 27.1426ZM69.8142 26.9465C70.8332 27.3388 69.0991 30.4062 67.8834 30.4062C67.4901 30.4062 67.4723 30.3348 67.365 28.7476C67.3114 27.856 67.3114 27.0535 67.365 26.9643C67.4544 26.8216 69.4209 26.786 69.8142 26.9465ZM40.4957 27.3031C40.5494 27.4636 40.603 28.2126 40.603 28.9973C40.603 30.2992 40.5672 30.4062 40.2097 30.4953C39.9773 30.5488 36.0622 30.5667 31.4857 30.5488C31.4857 30.5488 23.1728 30.4953 23.1728 30.4953L23.1192 28.7476L23.0655 27.0178C23.0655 27.0178 31.7359 27.0178 31.7359 27.0178C39.4588 27.0178 40.4063 27.0535 40.4957 27.3031ZM48.022 28.6585C47.9505 29.568 47.8075 30.3705 47.6823 30.4418C47.5751 30.531 46.2343 30.5667 44.7147 30.531C44.7147 30.531 41.9438 30.4953 41.9438 30.4953L41.8901 28.7476L41.8365 27.0178L45.0008 27.0178L48.1471 27.0178C48.1471 27.0178 48.022 28.6585 48.022 28.6585ZM14.86 28.5693C15.4499 29.1043 15.7181 30.1387 15.5035 31.0303C15.3248 31.7615 14.5561 32.3678 13.8231 32.3678C13.1438 32.3678 12.089 31.815 11.8209 31.2978C11.5885 30.852 11.5885 29.5858 11.8387 29.1043C12.4108 27.9808 13.9125 27.7311 14.86 28.5693ZM51.0432 32.992C51.222 33.42 51.7225 34.1869 52.1695 34.6862C52.7237 35.2925 52.7029 35.3533 52.8573 35.6943C34.623 37.7388 15.7359 41.2928 8.60303 35.6314C11.8387 37.6687 15.6879 38.2908 18.5426 35.667C18.8587 35.3766 19.2935 34.8645 19.2935 34.8645C19.7047 34.4187 20.241 33.6519 20.4912 33.1347C20.4912 33.1347 20.9382 32.2073 20.9382 32.2073L35.8477 32.2073L50.7393 32.1895C50.7393 32.1895 51.0432 32.992 51.0432 32.992Z" fill="#443DA8" transform="translate(7.036 24.539)" />
    <path d="M3.94914 0.178619C2.71564 0.463921 1.03514 2.17592 0.516744 3.70962C0.391644 4.04842 0.212843 5.22542 0.105543 6.34902C-0.055357 8.06102 -0.0374565 8.52462 0.194943 9.32722C0.498843 10.3615 1.35694 11.2888 2.19724 11.5028C2.42964 11.5742 5.50444 11.5742 9.02625 11.5385C15.0687 11.4672 15.4441 11.4493 16.1234 11.0927C17.3748 10.4328 17.6966 9.93352 17.8575 8.48902C17.929 7.77562 17.9826 5.92102 17.9826 4.36942C17.9826 4.36942 18.0005 1.53392 18.0005 1.53392C18.0005 1.53392 17.2854 0.874119 17.2854 0.874119C16.8743 0.49962 16.3022 0.160719 15.9983 0.0894203C15.1402 -0.0710812 4.77154 0.000219345 3.94914 0.178619ZM16.0519 5.33252C15.9983 8.61382 15.891 9.34502 15.4262 9.64822C15.3189 9.71952 12.3156 9.79082 8.77594 9.79082C2.96594 9.79082 2.28654 9.75522 2.07204 9.48772C1.57154 8.89922 1.98264 4.63692 2.66204 3.21032C2.93014 2.63962 3.23404 2.35432 3.77034 2.10462C4.44974 1.80142 4.96814 1.76582 10.3134 1.81932C10.3134 1.81932 16.1234 1.85492 16.1234 1.85492C16.1234 1.85492 16.0519 5.33252 16.0519 5.33252Z" fill="#443DA8" transform="translate(10.332 28.391)" />
    <path d="M1.7341 0.3388C1.323 0.5172 0.768801 0.927299 0.500601 1.2662C0.500601 1.2662 0 1.8547 0 1.8547C0 1.8547 0.0716 5.5284 0.0716 5.5284C0.143101 9.1842 0.143101 9.2199 0.6436 10.0581C1.019 10.7001 1.3587 11.0033 1.9487 11.2708C2.6995 11.5918 3.0928 11.6096 9.2961 11.5561C9.2961 11.5561 15.857 11.5026 15.857 11.5026C15.857 11.5026 16.8045 10.9676 16.8045 10.9676C18.2883 10.1473 18.3241 10.0581 18.1632 5.5819C18.0202 1.3197 17.9308 0.998699 16.6615 0.3388C16.0894 0.0177994 15.5174 0 9.2425 0C3.0392 0 2.3777 0.0356998 1.7341 0.3388ZM16.0179 1.9617C16.1967 2.1578 16.2861 3.0852 16.3576 5.5819C16.3576 5.5819 16.4649 8.9524 16.4649 8.9524L16.0001 9.3804L15.5352 9.8084C15.5352 9.8084 8.9565 9.8084 8.9565 9.8084C2.8246 9.8084 2.3598 9.7906 2.1989 9.4874C2.1095 9.3091 2.0202 7.5436 2.0202 5.564C2.0023 1.9795 2.0023 1.9438 2.3956 1.8012C2.6101 1.7298 5.7207 1.6763 9.2783 1.6763C14.7308 1.6942 15.8034 1.7477 16.0179 1.9617Z" fill="#443DA8" transform="translate(29.369 28.373)" />
    <path d="M1.7519 0.298632C1.3408 0.494831 0.786598 0.904932 0.518398 1.24383C0.518398 1.24383 0 1.85013 0 1.85013C0 1.85013 0.107197 4.70353 0.107197 4.70353C0.178799 6.27283 0.303898 7.87783 0.411198 8.27023C0.679298 9.23323 1.5732 10.5172 2.3419 11.0522C2.9676 11.4802 3.0033 11.4802 7.9374 11.498C7.9374 11.498 12.8894 11.5159 12.8894 11.5159C12.8894 11.5159 13.9262 12.033 13.9262 12.033C15.714 12.9069 17.5732 12.6394 19.5039 11.2305C20.0045 10.856 20.2547 10.535 20.2547 10.2675C20.2547 9.83953 18.8246 7.61033 17.9843 6.73653C17.7519 6.46903 17.2514 6.11233 16.8938 5.93403C16.5363 5.75573 15.714 5.11363 15.0704 4.50733C13.1933 2.74183 10.9586 1.02983 9.886 0.530432C8.9564 0.10243 8.7061 0.0668316 5.6849 0.0133305C2.8246 -0.0223694 2.3776 -0.0045681 1.7519 0.298632ZM9.2424 2.13553C10.1184 2.59913 12.6033 4.50733 13.4436 5.38113C13.4436 5.38113 14.0514 6.02323 14.0514 6.02323C14.0514 6.02323 13.4078 6.75433 13.4078 6.75433C12.8357 7.43203 12.3888 8.62683 12.3888 9.51853C12.3888 9.75043 11.6916 9.78603 7.8838 9.78603C3.7005 9.78603 3.3251 9.75043 2.7888 9.42943C2.4491 9.23323 2.1452 8.87653 2.0737 8.59123C2.0201 8.32373 1.9486 6.68303 1.9486 4.97103C1.9486 4.97103 1.9307 1.85013 1.9307 1.85013C1.9307 1.85013 3.2715 1.74313 3.2715 1.74313C4.0045 1.68963 5.4883 1.67183 6.5609 1.70743C8.1341 1.74313 8.6346 1.81443 9.2424 2.13553ZM16.3218 7.82433C16.7151 8.03833 17.0369 8.91223 17.0369 9.80393C17.0369 10.6242 16.5899 10.9452 15.6603 10.7669C14.6592 10.5885 13.9799 9.07273 14.5877 8.32373C15.0704 7.71733 15.7497 7.52123 16.3218 7.82433Z" fill="#443DA8" transform="translate(49.016 28.396)" />
    <path d="M1.51137 0.0757523C0.242174 0.236252 -0.0618258 0.432449 0.00977421 1.05665C0.0633736 1.39545 0.206373 1.41335 5.15837 1.41335C5.15837 1.41335 10.2533 1.41335 10.2533 1.41335C10.2533 1.41335 10.307 0.94965 10.307 0.94965C10.3427 0.699951 10.2533 0.41465 10.1282 0.307652C9.82427 0.0579491 3.12037 -0.102551 1.51137 0.0757523Z" fill="#443DA8" transform="translate(15.844 41.851)" />
    <path d="M0.200048 0.213997C-0.0859509 0.499298 -0.0680523 0.802498 0.271549 1.1413C0.486149 1.3553 0.933048 1.4267 2.13085 1.4267C3.99005 1.4267 4.27605 1.3375 4.27605 0.820297C4.27605 0.124798 3.95425 0 2.13085 0C1.04035 0 0.343149 0.0712967 0.200048 0.213997Z" fill="#443DA8" transform="translate(31.028 41.927)" />
    <path d="M0.203972 0.214001C-0.135727 0.552803 -0.0463295 1.0343 0.436371 1.3553C1.07997 1.7834 3.63637 1.605 4.11907 1.1235C4.42297 0.820301 4.44087 0.7668 4.17267 0.392303C3.92237 0.0357018 3.76147 0 2.15257 0C1.04417 0 0.346973 0.0713005 0.203972 0.214001Z" fill="#443DA8" transform="translate(41.929 41.927)" />
    <path d="M0.232399 0.108589C0.1073 0.144188 0 0.429588 0 0.71489C0 1.39259 0.4827 1.58869 2.1452 1.58869C3.7005 1.58869 4.2905 1.37469 4.2905 0.821888C4.2905 0.108589 3.9687 -0.0163116 2.1631 0.00158691C1.2156 0.00158691 0.339699 0.055088 0.232399 0.108589Z" fill="#443DA8" transform="translate(50.679 41.943)" />
    <path d="M2.5743 0.229919C1.6446 0.550922 0.893799 1.13942 0.428997 1.88842C0.0892982 2.44132 0.0177994 2.81582 0 3.99282C0 5.31252 0.0536003 5.50862 0.5005 6.11502C1.6446 7.61302 3.4502 8.18372 5.1664 7.59522C5.9062 7.25942 6.3633 7.23332 6.7683 6.58182C7.1209 6.19312 7.3299 5.77402 7.4867 5.39612C7.6853 4.91742 7.7723 4.16632 7.761 3.87162C7.6173 2.10242 6.7575 0.996822 5.4346 0.336922C4.648 -0.0732803 3.5217 -0.108879 2.5743 0.229919ZM5.077 2.10242C6.1497 2.86932 6.2391 4.52782 5.2558 5.50862C4.4692 6.27552 3.9329 6.36462 3.0033 5.86532C1.3765 5.00932 1.2513 3.10112 2.7173 1.94192C3.3251 1.46042 4.2726 1.53182 5.077 2.10242Z" fill="#443DA8" transform="translate(61.316 50.863)" />
  </g>
</svg>