<?xml version="1.0" encoding="utf-8"?>
<svg width="200" height="202" viewBox="0 0 200 202" fill="none" xmlns="http://www.w3.org/2000/svg">
  <defs>
    <linearGradient id="gradient_1" gradientUnits="userSpaceOnUse" x1="-14.495" y1="-303.995" x2="313.031" y2="-281.885">
      <stop offset="0" stop-color="#DEDCFC" />
      <stop offset="1" stop-color="#ABA5FA" />
    </linearGradient>
    <clipPath id="clip_path_2">
      <rect width="68.74" height="33.987" />
    </clipPath>
  </defs>
  <g>
    <path d="M0 98.1668C0 43.9508 43.9508 0 98.1668 0C152.383 0 196.334 43.9508 196.334 98.1668C196.334 152.383 152.383 196.334 98.1668 196.334C43.9508 196.334 0 152.383 0 98.1668Z" fill="none" stroke-width="2.666" stroke="url(#gradient_1)" stroke-dasharray="2,67 5,33" transform="translate(2.069 1.926)" />
    <path d="M8.672 0C8.672 0 10.427 4.06 10.427 4.06C11.022 5.437 12.137 6.52301 13.528 7.08301C13.528 7.08301 17.776 8.79201 17.776 8.79201C17.776 8.79201 13.562 10.487 13.562 10.487C12.151 11.055 11.025 12.165 10.437 13.568C10.437 13.568 8.672 17.777 8.672 17.777C8.672 17.777 6.87599 13.492 6.87599 13.492C6.30699 12.134 5.233 11.049 3.87999 10.466C3.87999 10.466 0 8.79201 0 8.79201C0 8.79201 3.914 7.104 3.914 7.104C5.24599 6.52901 6.30899 5.46701 6.88499 4.13501C6.88499 4.13501 8.672 0 8.672 0Z" fill="#ABA5FA" transform="translate(159.809 130.256)" />
    <path d="M8.6722 0C8.6722 0 10.4272 4.06001 10.4272 4.06001C11.0223 5.437 12.1366 6.523 13.528 7.083C13.528 7.083 17.7763 8.792 17.7763 8.792C17.7763 8.792 13.5622 10.487 13.5622 10.487C12.1505 11.055 11.025 12.165 10.4367 13.568C10.4367 13.568 8.6722 17.777 8.6722 17.777C8.6722 17.777 6.8759 13.492 6.8759 13.492C6.3064 12.134 5.2328 11.049 3.8804 10.466C3.8804 10.466 0 8.792 0 8.792C0 8.792 3.9139 7.104 3.9139 7.104C5.2463 6.529 6.309 5.467 6.8848 4.135C6.8848 4.135 8.6722 0 8.6722 0Z" fill="#ABA5FA" transform="translate(12.074 106.67)" />
    <path d="M8.672 0C8.672 0 10.461 4.1384 10.461 4.1384C11.035 5.4646 12.108 6.5109 13.449 7.0502C13.449 7.0502 17.777 8.7915 17.777 8.7915C17.777 8.7915 13.481 10.5196 13.481 10.5196C12.122 11.0667 11.037 12.1354 10.471 13.4872C10.471 13.4872 8.672 17.7763 8.672 17.7763C8.672 17.7763 6.844 13.4141 6.844 13.4141C6.295 12.1057 5.261 11.0607 3.958 10.4987C3.958 10.4987 0 8.7915 0 8.7915C0 8.7915 3.99 7.0704 3.99 7.0704C5.274 6.5168 6.297 5.4939 6.85201 4.2108C6.85201 4.2108 8.672 0 8.672 0Z" fill="#ABA5FA" transform="translate(116.253 11.767)" />
    <path d="M0 23.2404C0 10.4051 10.4051 0 23.2404 0C36.0757 0 46.4808 10.4051 46.4808 23.2404C46.4808 36.0757 36.0757 46.4808 23.2404 46.4808C10.4051 46.4808 0 36.0757 0 23.2404Z" fill="#ABA5FA" fill-rule="evenodd" transform="translate(2.904 0.031)" />
    <path d="M24.4424 12.2213C24.4424 18.9674 18.9673 24.4425 12.2212 24.4425C5.4751 24.4425 0 18.9674 0 12.2213C0 5.4751 5.4751 0 12.2212 0C18.9673 0 24.4424 5.4751 24.4424 12.2213Z" fill="none" stroke-width="1.778" stroke="#FCFCFC" stroke-linecap="round" stroke-linejoin="round" transform="translate(13.924 11.051)" />
    <path d="M4.9863 9.3737C4.9863 9.3737 1.1977 7.1127 1.1977 7.1127C0.5378 6.7216 0 5.7806 0 5.0107C0 5.0107 0 0 0 0" fill="none" stroke-width="1.778" stroke="#FCFCFC" stroke-linecap="round" stroke-linejoin="round" transform="translate(25.693 17.784)" />
    <rect width="105.05" height="19.187" fill="#FBFBFB" fill-rule="evenodd" transform="translate(47.673 180.406)" />
    <path d="M0.274658 40.245C-1.86844 30.958 8.13296 0.238998 44.3291 0.000991821C73.2861 -0.190002 85.2871 27.227 86.2401 40.245C81.3181 40.721 72.3811 41.388 76.0001 40.245C80.5251 38.816 69.3321 9.52599 44.3291 9.28799C24.3257 9.09698 10.673 29.529 8.13296 40.245C8.13296 40.245 0.274658 40.245 0.274658 40.245Z" fill="#ABA5FA" transform="translate(58.19 156.79)" />
    <path d="M52.0197 0.0943375C51.7546 0.160637 50.1961 0.392738 48.5383 0.591637C38.0939 2.01744 28.5778 7.32254 22.8085 14.9486C17.636 21.7458 14.8508 31.3945 15.7461 39.2527C16.1771 42.7673 17.0061 44.2594 19.7248 46.3814C19.7248 46.3814 21.5153 47.7409 21.5153 47.7409L21.5153 51.3218L21.5153 54.9028C21.5153 54.9028 19.9902 55.4333 19.9902 55.4333C16.7739 56.5275 13.624 59.18 11.8004 62.2968C9.51255 66.2093 9.24725 71.9128 11.1703 75.9908C12.9277 79.7708 16.4092 82.8538 20.3218 84.1808C20.3218 84.1808 21.9465 84.7438 21.9465 84.7438C21.9465 84.7438 22.6759 87.6618 22.6759 87.6618C24.8642 96.2498 30.103 103.644 37.5302 108.584C37.5302 108.584 39.8511 110.143 39.8511 110.143C39.8511 110.143 37.5634 110.607 37.5634 110.607C34.1482 111.27 29.904 112.762 26.4226 114.519C10.9052 122.311 0.89175 137.497 0.0627518 154.473C-0.16935 159.48 0.19545 161.271 1.95275 164.056C3.54425 166.476 5.76575 168.167 8.55095 169.029C10.6068 169.692 11.5351 169.692 56.9935 169.692C102.285 169.692 103.38 169.692 105.435 169.029C109.315 167.836 112.465 164.653 113.559 160.773C114.023 159.281 114.089 158.054 113.923 154.606C113.128 137.563 102.816 122.013 87.3324 114.453C83.2865 112.497 79.8714 111.27 76.4234 110.607C76.4234 110.607 74.1355 110.143 74.1355 110.143C74.1355 110.143 76.4565 108.584 76.4565 108.584C83.8835 103.644 89.1225 96.2498 91.3104 87.6618C91.3104 87.6618 92.0405 84.7438 92.0405 84.7438C92.0405 84.7438 93.6655 84.1808 93.6655 84.1808C97.2455 82.9868 100.826 79.9698 102.418 76.8198C104.838 72.1108 104.573 66.0104 101.788 61.6336C99.9644 58.7821 96.7484 56.2622 93.7314 55.3007C93.7314 55.3007 92.4715 54.9028 92.4715 54.9028L92.4715 51.2223L92.4715 47.5088C92.4715 47.5088 93.9964 46.5141 93.9964 46.5141C95.6874 45.3867 96.8814 43.961 97.7104 42.1042C98.4395 40.4132 98.4395 32.555 97.6774 29.2061C96.4174 23.7352 94.1954 18.8943 90.9124 14.617C85.3094 7.22304 77.2525 2.71374 66.1115 0.724239C63.4254 0.260136 53.2466 -0.204063 52.0197 0.0943375ZM66.5424 5.86364C74.1024 7.42204 79.7395 10.2072 84.1824 14.5507C89.7195 19.9553 93.0354 27.2499 93.2334 34.5112C93.2334 34.5112 93.3004 37.2301 93.3004 37.2301C93.3004 37.2301 69.9904 37.3959 69.9904 37.3959C47.3778 37.5617 46.6483 37.5948 46.1841 38.1917C45.5211 39.12 45.6204 40.4795 46.3499 41.4079C46.3499 41.4079 46.98 42.2036 46.98 42.2036L69.1624 42.3694L91.3104 42.5352C91.3104 42.5352 88.0284 44.1599 88.0284 44.1599C85.6075 45.3536 83.4854 46.083 79.9044 46.9119C77.2525 47.5751 74.7325 48.2051 74.3015 48.3709C72.7095 48.9677 72.6104 51.5539 74.1355 52.5486C74.8985 53.046 75.1964 53.046 77.9155 52.5155C80.5685 52.0181 85.3754 50.7582 86.9344 50.1282C87.5304 49.9292 87.5304 50.5924 87.3985 66.9388C87.2654 83.4178 87.2654 84.0808 86.5365 86.6338C82.7894 99.9298 71.9144 108.65 58.3194 109.247C51.655 109.546 46.1178 108.087 40.8459 104.638C34.2476 100.328 29.6389 94.0278 27.4505 86.3028C26.7211 83.7498 26.6878 83.1198 26.5552 66.8061C26.4889 57.5553 26.5221 49.9955 26.5884 49.9955C26.6878 49.9955 27.3842 50.2276 28.18 50.4929C30.9319 51.4876 35.9386 52.6149 40.7464 53.3444C44.9242 54.0075 46.9136 54.107 56.0317 54.107C65.9124 54.1402 66.5754 54.107 67.2384 53.5102C67.7034 53.0791 67.9355 52.4823 67.9355 51.6534C67.9355 49.3987 68.0014 49.4319 56.3302 49.2329C48.1405 49.1003 44.891 48.9014 41.31 48.3709C33.7835 47.2435 27.7157 45.5194 24.2674 43.4636C24.2674 43.4636 22.6759 42.5352 22.6759 42.5352C22.6759 42.5352 30.7994 42.3694 30.7994 42.3694C35.2755 42.27 39.1881 42.071 39.5196 41.9052C40.9123 41.2421 41.1444 39.2195 39.9839 38.1253C39.2544 37.429 38.9227 37.3959 29.9703 37.3296C29.9703 37.3296 20.6865 37.2301 20.6865 37.2301C20.6865 37.2301 20.7528 34.5112 20.7528 34.5112C20.9516 27.4156 24.2674 19.9222 29.473 14.816C35.1098 9.27884 41.0448 6.72574 52.1856 5.10104C54.6724 4.73634 63.2604 5.20044 66.5424 5.86364ZM21.5153 79.5388C21.5153 79.5388 20.1559 78.7758 20.1559 78.7758C19.3933 78.3448 18.1334 77.3168 17.3708 76.4218C13.2924 71.9128 14.3203 64.5183 19.4597 61.2358C20.2886 60.7053 21.1175 60.2742 21.2501 60.2742C21.3827 60.2742 21.5153 64.6178 21.5153 69.9228C21.5153 69.9228 21.5153 79.5388 21.5153 79.5388ZM94.0624 60.9042C98.0414 62.9599 100.13 68.5968 98.6384 73.1388C97.9754 75.1288 95.7874 77.6818 93.8304 78.7758C93.8304 78.7758 92.4715 79.5388 92.4715 79.5388C92.4715 79.5388 92.4715 69.9228 92.4715 69.9228C92.4715 64.6178 92.5374 60.2742 92.6375 60.2742C92.7365 60.2742 93.3664 60.5726 94.0624 60.9042ZM49.3673 118.83C50.8593 121.283 52.0197 123.339 51.9867 123.405C51.9204 123.438 50.5941 123.737 49.0689 124.068C47.5437 124.4 45.2557 124.997 44.0289 125.428C44.0289 125.428 41.7412 126.191 41.7412 126.191C41.7412 126.191 41.7412 120.587 41.7412 120.587C41.7412 114.221 41.4428 114.785 44.891 114.552C45.8194 114.486 46.5821 114.42 46.6153 114.387C46.6483 114.353 47.9084 116.343 49.3673 118.83ZM61.2375 114.586C60.8724 115.481 57.1595 121.615 56.9935 121.615C56.8274 121.615 53.1139 115.481 52.7492 114.586C52.6829 114.453 54.6061 114.32 56.9935 114.32C59.3805 114.32 61.3034 114.453 61.2375 114.586ZM72.1794 119.924C72.1794 119.924 72.2785 124.997 72.2785 124.997C72.2785 124.997 71.3504 124.765 71.3504 124.765C68.8965 124.135 64.3544 123.273 63.3925 123.273C62.7955 123.273 62.2985 123.14 62.2985 122.974C62.2985 122.775 63.3925 120.819 64.7525 118.564C64.7525 118.564 67.2054 114.486 67.2054 114.486L69.6595 114.652L72.0795 114.818C72.0795 114.818 72.1794 119.924 72.1794 119.924ZM36.7676 121.117C36.7676 123.936 36.7344 126.257 36.6681 126.257C36.635 126.257 34.8777 124.533 32.7888 122.444C32.7888 122.444 29.0089 118.664 29.0089 118.664C29.0089 118.664 30.0036 118.266 30.0036 118.266C32.2913 117.338 35.9719 116.011 36.3696 116.011C36.6681 115.978 36.7676 117.205 36.7676 121.117ZM80.2695 116.84C96.2844 122.145 108.088 137.729 108.95 154.672C109.149 158.585 109.116 158.784 108.254 160.508C107.226 162.63 104.905 164.52 104.374 163.691C104.208 163.426 104.076 162.862 104.076 162.398C104.076 160.906 102.484 155.004 101.291 151.953C98.9034 145.952 95.3895 140.846 90.2495 135.872C86.9344 132.623 83.0215 129.805 79.3085 127.948C79.3085 127.948 77.2195 126.92 77.2195 126.92C77.2195 126.92 77.2195 121.449 77.2195 121.449C77.2195 118.432 77.3185 115.978 77.4514 115.978C77.6174 115.978 78.8434 116.376 80.2695 116.84ZM32.7224 130.899C32.3246 131.164 31.1972 132.026 30.2357 132.789C29.2741 133.585 28.3788 134.214 28.2463 134.214C28.0804 134.214 25.9916 132.225 23.571 129.805C23.571 129.805 19.1281 125.362 19.1281 125.362C19.1281 125.362 20.7528 124.068 20.7528 124.068C21.6148 123.339 22.8085 122.411 23.3389 122.013C23.3389 122.013 24.3338 121.316 24.3338 121.316C24.3338 121.316 28.9094 125.859 28.9094 125.859C33.4188 130.368 33.4518 130.401 32.7224 130.899ZM64.5535 128.445C82.4244 131.098 96.6154 145.388 99.2354 163.326C99.2354 163.326 99.4344 164.719 99.4344 164.719C99.4344 164.719 96.9805 164.719 96.9805 164.719C94.2284 164.719 94.3615 164.818 93.9634 162.066C93.3335 158.121 91.0454 152.583 88.3934 148.671C85.1104 143.797 78.9435 138.691 73.4064 136.204C65.7794 132.789 56.9605 132.059 49.0026 134.214C45.6868 135.143 39.7518 138.061 36.9334 140.216C31.9929 143.963 27.6494 149.434 25.4942 154.706C24.4331 157.192 22.8416 162.895 22.8416 164.089C22.8416 164.653 22.5764 164.719 20.3218 164.719C20.3218 164.719 17.8018 164.719 17.8018 164.719C17.8018 164.719 18.0339 162.895 18.0339 162.895C18.6638 157.855 21.4159 150.694 24.4994 146.151C30.103 137.928 38.4917 131.96 48.1405 129.407C53.8434 127.882 58.8505 127.583 64.5535 128.445ZM24.4994 138.028C24.4994 138.028 23.1069 139.685 23.1069 139.685C18.0339 145.753 14.2872 154.175 13.1599 161.901C12.6957 165.084 12.5961 165.15 9.97675 164.255C7.88785 163.492 6.66105 162.431 5.69945 160.475C4.87055 158.784 4.83735 158.552 5.03635 154.672C5.30155 149.069 6.62785 143.996 9.18095 138.724C10.9383 135.11 14.8176 129.241 15.4808 129.241C15.6134 129.241 17.7024 131.23 20.1227 133.651C20.1227 133.651 24.4994 138.028 24.4994 138.028ZM65.9454 138.89C69.6924 139.752 75.3625 142.57 78.4454 145.156C83.8174 149.599 87.6304 155.833 88.9234 162.265C88.9234 162.265 89.3875 164.553 89.3875 164.553L82.2254 164.653L75.0974 164.719L67.3714 157.027L59.6455 149.301L59.6455 143.565L59.6455 137.829C59.6455 137.829 61.4035 138.061 61.4035 138.061C62.3314 138.16 64.3875 138.558 65.9454 138.89ZM54.3407 143.963C54.3407 143.963 52.0197 141.675 52.0197 141.675C50.7599 140.415 49.7651 139.321 49.8314 139.254C50.0304 139.055 53.0809 138.26 53.7771 138.226C54.2744 138.193 54.3407 138.525 54.3407 141.078C54.3407 141.078 54.3407 143.963 54.3407 143.963ZM67.7695 164.719L63.1275 164.719L58.4854 164.719L48.6378 154.871L38.8234 145.057C38.8234 145.057 39.5859 144.46 39.5859 144.46C40.9785 143.333 43.8631 141.509 44.2279 141.509C44.3937 141.509 49.7983 146.715 56.1644 153.114C56.1644 153.114 67.7695 164.719 67.7695 164.719ZM51.1909 164.719C51.1909 164.719 39.4864 164.719 39.4864 164.719C33.0871 164.719 27.8152 164.619 27.8152 164.454C27.8152 163.127 29.473 157.988 30.6335 155.601C31.9599 152.882 34.6455 148.804 35.1098 148.804C35.2092 148.804 38.8564 152.385 43.2332 156.761C43.2332 156.761 51.1909 164.719 51.1909 164.719Z" fill="#8E8E8E" transform="translate(43.243 32.1)" />
    <path d="M0.883919 0.696297C-0.243378 1.5916 -0.309677 3.2494 0.784523 4.24409C1.54712 4.9404 1.81232 4.97359 9.10692 4.97359C9.10692 4.97359 16.6335 4.97359 16.6335 4.97359C16.6335 4.97359 17.4293 4.1447 17.4293 4.1447C17.8935 3.71359 18.2582 2.951 18.2582 2.48679C18.2582 2.0226 17.8935 1.25999 17.4293 0.828995C17.4293 0.828995 16.6335 0 16.6335 0C16.6335 0 9.20632 0 9.20632 0C2.17712 0 1.71292 0.0331955 0.883919 0.696297Z" fill="#8E8E8E" transform="translate(76.341 90.385)" />
    <path d="M0.827995 0.828995C0.363998 1.25999 0 2.0226 0 2.48679C0 2.951 0.363998 3.71359 0.827995 4.1447C0.827995 4.1447 1.624 4.97359 1.624 4.97359C1.624 4.97359 9.217 4.97359 9.217 4.97359C16.711 4.97359 16.81 4.97359 17.506 4.211C18.534 3.1168 18.468 1.5584 17.374 0.696297C16.545 0.0331955 16.081 0 9.051 0C9.051 0 1.624 0 1.624 0C1.624 0 0.827995 0.828995 0.827995 0.828995Z" fill="#8E8E8E" transform="translate(105.873 90.385)" />
    <path d="M2.4205 0.366852C1.2268 0.930855 0 2.65485 0 3.81586C0 5.04285 0.928406 6.66685 1.9563 7.29685C3.8462 8.42486 6.4988 7.72785 7.4604 5.87086C8.2893 4.24686 8.0903 2.68786 6.89671 1.39485C5.6036 0.00285339 4.012 -0.362144 2.4205 0.366852Z" fill="#8E8E8E" transform="translate(80.342 102.75)" />
    <path d="M2.454 0.239296C1.26 0.703293 0 2.49329 0 3.7533C0 6.93629 3.15 8.82629 5.936 7.36729C6.96301 6.87029 7.958 5.08029 7.958 3.8203C7.958 1.36629 4.775 -0.722702 2.454 0.239296Z" fill="#8E8E8E" transform="translate(112.172 102.746)" />
    <path d="M1.29276 0.331001C0.861763 0.529999 0.430664 1.127 0.165459 1.923C-0.69664 4.807 1.92276 9.283 5.40426 10.941C7.52626 11.936 10.7762 11.936 12.8982 10.941C18.3352 8.388 20.3912 0 15.5832 0C14.6882 0 13.5612 1.492 13.3292 2.95C13.1632 3.945 12.7652 4.741 12.0022 5.504C11.0082 6.498 10.6762 6.631 9.15116 6.631C7.62576 6.631 7.29416 6.498 6.29946 5.504C5.53686 4.741 5.13896 3.945 4.97316 2.95C4.57526 0.596001 3.14956 -0.431999 1.29276 0.331001Z" fill="#8E8E8E" transform="translate(91.085 118.569)" />
    <g clip-path="url(#clip_path_2)" transform="translate(66.94 167.806)">
      <g transform="translate(0 0)">
        <path d="M7.926 9.85301C7.926 9.85301 28.062 0 28.062 0L41.7717 1.927L55.5887 9.104L66.2307 30.204L0 30.204C0 30.204 7.926 9.85301 7.926 9.85301Z" fill="#FCFCFC" transform="translate(2.309 1.374)" />
        <path d="M27.5981 0.816788C15.3323 3.37178 5.4515 12.3668 0.953995 25.1098C0.0340958 27.6648 0 28.0058 0 34.4108C0 39.6238 0.136299 41.6338 0.6474 43.7808C1.7718 48.6868 4.736 53.9678 8.6542 58.0228C13.765 63.3718 18.5691 66.3358 25.2131 68.3128C29.6083 69.6408 36.15 69.8798 40.716 68.8918C50.971 66.7108 61.772 57.9548 65.554 48.7888C66.746 45.8928 67.871 41.3958 68.382 37.5798C68.791 34.4448 68.382 29.2658 67.428 25.6888C66.099 20.5098 62.828 14.7518 58.876 10.5608C55.775 7.25578 53.22 5.38179 49.063 3.30379C42.453 -0.0012207 35.435 -0.819214 27.5981 0.816788ZM27.9388 6.54079C27.7003 9.36879 27.2914 12.6388 26.2352 19.5898C25.7241 23.0988 25.5879 23.4058 24.5316 24.3598C23.9183 24.9048 23.2369 25.6888 23.0665 26.0638C22.7258 26.7108 22.1125 26.8128 15.0938 27.3578C10.903 27.6988 6.60989 27.9378 5.5196 27.9378C5.5196 27.9378 3.5094 27.9378 3.5094 27.9378C3.5094 27.9378 3.74789 26.8128 3.74789 26.8128C4.4975 23.3038 8.48389 16.2168 11.5503 12.9798C13.3221 11.1058 17.8195 7.69879 20.1023 6.54079C21.874 5.62079 26.9166 3.78079 27.7344 3.74678C28.0751 3.74678 28.1432 4.29179 27.9388 6.54079ZM43.646 4.46179C47.939 5.55278 51.55 7.80078 55.571 11.7538C57.479 13.6278 59.66 16.1148 60.375 17.2728C62.045 19.8628 64.123 24.5988 64.43 26.5408C64.43 26.5408 64.668 28.0058 64.668 28.0058C64.668 28.0058 62.658 27.8348 62.658 27.8348C61.568 27.6988 57.343 27.4268 53.322 27.2218C53.322 27.2218 45.997 26.8128 45.997 26.8128L44.429 25.1778L42.828 23.5418C42.828 23.5418 41.772 14.9218 41.772 14.9218C41.159 10.1858 40.613 5.72279 40.511 5.00679C40.409 4.32579 40.443 3.74678 40.613 3.74678C40.784 3.74678 42.147 4.05278 43.646 4.46179ZM38.365 25.1778C43.85 27.2558 46.542 33.3548 44.395 38.7378C42.624 43.0998 39.898 45.1098 35.23 45.5528C31.4482 45.9268 26.9166 43.8488 25.1108 40.9528C23.6458 38.5678 23.2028 37.2728 23.2028 34.9558C23.1688 31.5828 23.8843 29.7428 26.0649 27.5628C29.4039 24.1898 33.663 23.3718 38.365 25.1778ZM22.7258 43.2698L24.2931 44.8708L25.8604 46.4728C25.8604 46.4728 26.133 50.2548 26.133 50.2548C26.4056 53.7978 27.1211 60.5438 27.6322 64.1218C27.8366 65.6208 27.8025 65.7568 27.1551 65.7568C25.3493 65.7568 20.9541 63.9508 17.9899 62.0088C10.6645 57.1708 5.0086 49.6068 3.74789 42.8608C3.74789 42.8608 3.5435 41.7028 3.5435 41.7028C3.5435 41.7028 6.8825 41.9748 6.8825 41.9748C8.7224 42.1108 13.0154 42.4858 16.4566 42.7588C16.4566 42.7588 22.7258 43.2698 22.7258 43.2698ZM64.566 42.0428C64.566 43.3038 62.726 48.1078 61.363 50.5268C58.331 55.8418 54.685 59.4198 48.654 62.9628C46.746 64.0878 42.419 65.7568 41.363 65.7568C40.511 65.7568 40.511 64.9048 41.397 57.6818C42.76 46.1658 42.658 46.6768 44.429 44.7688C44.429 44.7688 46.031 43.0648 46.031 43.0648C46.031 43.0648 54.004 42.4518 54.004 42.4518C61.159 41.9068 62.59 41.8048 64.157 41.5998C64.361 41.5998 64.566 41.8048 64.566 42.0428Z" fill="#8E8E8E" />
      </g>
    </g>
    <path d="M40.6114 14.032C35.3164 14.032 30.3574 12.44 27.8044 9.844C24.8691 12.44 16.4018 14.032 13.7485 14.032C11.0952 14.032 -1.13925 13.302 0.0859528 1.992C5.66455 8.98901 16.9892 0 21.5556 0C25.5947 0 25.7029 1.992 27.8044 1.992C29.7444 1.992 30.3574 0 34.0924 0C39.0224 0 47.0053 7.062 55.6443 1.992C54.1364 12.44 43.4394 14.032 40.6114 14.032Z" fill="#ABA5FA" transform="translate(72.597 111.284)" />
  </g>
</svg>