<?xml version="1.0" encoding="utf-8"?>
<svg width="15" height="15" viewBox="0 0 15 15" fill="none" xmlns="http://www.w3.org/2000/svg">
  <g>
    <path d="M10.3239 7.625C10.3239 8.26134 9.98299 8.85234 9.43179 9.17614C9.43179 9.17614 6.05683 11.125 6.05683 11.125C5.5057 11.4432 4.82386 11.4432 4.26705 11.125C4.26705 11.125 0.89204 9.17614 0.89204 9.17614C0.34091 8.85794 0 8.26704 0 7.625C0 7.625 0 3.73866 0 3.73866C0 3.10229 0.34091 2.51136 0.89204 2.1875C0.89204 2.1875 4.26705 0.238642 4.26705 0.238642C4.81818 -0.0795475 5.50001 -0.0795475 6.05683 0.238642C6.05683 0.238642 9.43179 2.1875 9.43179 2.1875C9.98299 2.51136 10.3239 3.09661 10.3239 3.73866C10.3239 3.73866 10.3239 7.625 10.3239 7.625Z" fill="#443DA8" fill-opacity="0.4" transform="translate(2.335 1.818)" />
    <path d="M0.42614 3.83523C0.19319 3.83523 0 3.64205 0 3.40909C0 3.40909 0 0.42614 0 0.42614C0 0.19318 0.19319 0 0.42614 0C0.6591 0 0.85228 0.19318 0.85228 0.42614C0.85228 0.42614 0.85228 3.40909 0.85228 3.40909C0.85228 3.64205 0.6591 3.83523 0.42614 3.83523Z" fill="#443DA8" transform="translate(7.074 4.659)" />
    <path d="M0.56819 1.13572C0.49432 1.13572 0.42046 1.11872 0.35227 1.09022C0.27841 1.06182 0.22158 1.02212 0.16477 0.970921C0.11363 0.914121 0.0738702 0.851621 0.0397801 0.783421C0.0113702 0.715321 0 0.64141 0 0.567551C0 0.419821 0.0568099 0.27208 0.16477 0.164121C0.22158 0.11299 0.27841 0.0732403 0.35227 0.0448303C0.5625 -0.0460796 0.81252 0.00503063 0.97161 0.164121C1.02274 0.220941 1.0625 0.27777 1.0909 0.35163C1.11931 0.419821 1.13637 0.49368 1.13637 0.567551C1.13637 0.64141 1.11931 0.715321 1.0909 0.783421C1.0625 0.851621 1.02274 0.914121 0.97161 0.970921C0.86365 1.07892 0.7216 1.13572 0.56819 1.13572Z" fill="#443DA8" transform="translate(6.932 9.347)" />
  </g>
</svg>